<svg aria-label="article" viewBox="0 0 16 14" xmlns="http://www.w3.org/2000/svg">
<path d="M0 0.25C0 0.111929 0.111929 0 0.25 0H15.75C15.8881 0 16 0.111929 16 0.25V1.75C16 1.88807 15.8881 2 15.75 2H0.25C0.111929 2 0 1.88807 0 1.75V0.25ZM0 4.25C0 4.11193 0.111929 4 0.25 4H15.75C15.8881 4 16 4.11193 16 4.25V5.75C16 5.88807 15.8881 6 15.75 6H0.25C0.111929 6 0 5.88807 0 5.75V4.25ZM0 8.25C0 8.11193 0.111929 8 0.25 8H15.75C15.8881 8 16 8.11193 16 8.25V9.75C16 9.88807 15.8881 10 15.75 10H0.25C0.111929 10 0 9.88807 0 9.75V8.25ZM0 12.25C0 12.1119 0.111929 12 0.25 12H11.75C11.8881 12 12 12.1119 12 12.25V13.75C12 13.8881 11.8881 14 11.75 14H0.25C0.111929 14 0 13.8881 0 13.75V12.25Z" />
</svg>
