<svg aria-label="code" viewBox="0 0 24 24" xmlns="http://www.w3.org/2000/svg">
<path d="M14.2663 4.31141L15.206 4.65345C15.4655 4.74787 15.5993 5.03479 15.5048 5.29432L10.3745 19.3897C10.2801 19.6492 9.9932 19.783 9.73367 19.6885L8.79398 19.3465C8.53445 19.2521 8.40067 18.9652 8.49515 18.7056L13.6255 4.61023C13.7199 4.35077 14.0069 4.21698 14.2663 4.31141Z" />
<path d="M16.0574 15.3554L16.8545 16.1478C17.0502 16.3424 17.3665 16.3416 17.5612 16.1462L21.3493 12.3442C21.544 12.1487 21.5436 11.8325 21.3484 11.6375L17.5602 7.85303C17.365 7.65796 17.0487 7.65796 16.8535 7.85297L16.0583 8.64734C15.8629 8.84247 15.8627 9.15906 16.0583 9.3548L18.7003 11.9939L16.0558 14.6478C15.8609 14.8434 15.8614 15.16 16.0574 15.3554Z" />
<path d="M7.35062 16.1478L8.14774 15.3554C8.34366 15.16 8.34427 14.8434 8.14932 14.6478L5.50467 11.9939L8.14676 9.3548C8.34232 9.15906 8.34219 8.84247 8.14676 8.64734L7.35159 7.85297C7.15628 7.65796 6.84 7.65796 6.64481 7.85303L2.8566 11.6375C2.66141 11.8325 2.66104 12.1487 2.85574 12.3442L6.64383 16.1462C6.83865 16.3416 7.15494 16.3424 7.35062 16.1478Z" />
</svg>
