<svg aria-label="code" viewBox="0 0 20 16" xmlns="http://www.w3.org/2000/svg">
<path d="M12.2663 0.311406L13.206 0.653447C13.4655 0.747868 13.5993 1.03479 13.5048 1.29432L8.37458 15.3897C8.2801 15.6492 7.99323 15.783 7.73371 15.6885L6.79401 15.3465C6.53449 15.2521 6.4007 14.9652 6.49519 14.7056L11.6256 0.610234C11.7199 0.350773 12.0069 0.216984 12.2663 0.311406Z" />
<path d="M14.0574 11.3554L14.8546 12.1478C15.0502 12.3424 15.3665 12.3416 15.5612 12.1462L19.3493 8.34418C19.544 8.14875 19.5436 7.83252 19.3485 7.63752L15.5602 3.85303C15.3651 3.65796 15.0488 3.65796 14.8536 3.85297L14.0583 4.64734C13.863 4.84247 13.8627 5.15906 14.0583 5.3548L16.7004 7.9939L14.0559 10.6478C13.8609 10.8434 13.8614 11.16 14.0574 11.3554Z" />
<path d="M5.35066 12.1478L6.14777 11.3554C6.3437 11.16 6.34431 10.8434 6.14936 10.6478L3.50471 7.9939L6.1468 5.3548C6.34235 5.15906 6.34223 4.84247 6.1468 4.64734L5.35163 3.85297C5.15632 3.65796 4.84003 3.65796 4.64484 3.85303L0.856636 7.63752C0.661446 7.83252 0.66108 8.14875 0.855782 8.34418L4.64387 12.1462C4.83869 12.3416 5.15498 12.3424 5.35066 12.1478Z" />
</svg>
