<svg aria-label="code" viewBox="0 0 20 20" xmlns="http://www.w3.org/2000/svg">
<path fill-rule="evenodd" clip-rule="evenodd" d="M10 0C4.486 0 0 4.486 0 10C0 15.514 4.486 20 10 20C15.514 20 20 15.514 20 10C20 4.486 15.514 0 10 0ZM10 18C5.589 18 2 14.41 2 10C2 5.59 5.589 2 10 2C14.41 2 18 5.59 18 10C18 14.41 14.41 18 10 18ZM11.184 6.854L11.891 6.146C11.9848 6.05226 12.1119 5.99961 12.2445 5.99961C12.3771 5.99961 12.5042 6.05226 12.598 6.146L16.098 9.646C16.1917 9.73976 16.2444 9.86692 16.2444 9.9995C16.2444 10.1321 16.1917 10.2592 16.098 10.353L12.598 13.853C12.5042 13.9467 12.3771 13.9994 12.2445 13.9994C12.1119 13.9994 11.9848 13.9467 11.891 13.853L11.184 13.146C11.0903 13.0522 11.0376 12.9251 11.0376 12.7925C11.0376 12.6599 11.0903 12.5328 11.184 12.439L13.623 10L11.183 7.562C11.0893 7.46824 11.0366 7.34108 11.0366 7.2085C11.0366 7.07592 11.0893 6.94876 11.183 6.855L11.184 6.854ZM8.111 6.146L8.818 6.854C8.91174 6.94776 8.96439 7.07492 8.96439 7.2075C8.96439 7.34008 8.91174 7.46724 8.818 7.561L6.378 10L8.818 12.44C8.91143 12.5337 8.96389 12.6607 8.96389 12.793C8.96389 12.9253 8.91143 13.0523 8.818 13.146L8.111 13.853C8.06455 13.8996 8.00938 13.9365 7.94863 13.9617C7.88789 13.9869 7.82277 13.9999 7.757 13.9999C7.69123 13.9999 7.62611 13.9869 7.56537 13.9617C7.50462 13.9365 7.44945 13.8996 7.403 13.853L3.903 10.353C3.80926 10.2592 3.75661 10.1321 3.75661 9.9995C3.75661 9.86692 3.80926 9.73976 3.903 9.646L7.403 6.146C7.44945 6.09944 7.50462 6.06249 7.56537 6.03729C7.62611 6.01208 7.69123 5.99911 7.757 5.99911C7.82277 5.99911 7.88789 6.01208 7.94863 6.03729C8.00938 6.06249 8.06455 6.09944 8.111 6.146Z" />
</svg>
