<svg aria-label="code" viewBox="0 0 24 24" xmlns="http://www.w3.org/2000/svg">
<path fill-rule="evenodd" clip-rule="evenodd" d="M12 2C6.486 2 2 6.486 2 12C2 17.514 6.486 22 12 22C17.514 22 22 17.514 22 12C22 6.486 17.514 2 12 2ZM12 20C7.589 20 4 16.41 4 12C4 7.59 7.589 4 12 4C16.41 4 20 7.59 20 12C20 16.41 16.41 20 12 20ZM13.184 8.854L13.891 8.146C13.9848 8.05226 14.1119 7.99961 14.2445 7.99961C14.3771 7.99961 14.5042 8.05226 14.598 8.146L18.098 11.646C18.1917 11.7398 18.2444 11.8669 18.2444 11.9995C18.2444 12.1321 18.1917 12.2592 18.098 12.353L14.598 15.853C14.5042 15.9467 14.3771 15.9994 14.2445 15.9994C14.1119 15.9994 13.9848 15.9467 13.891 15.853L13.184 15.146C13.0903 15.0522 13.0376 14.9251 13.0376 14.7925C13.0376 14.6599 13.0903 14.5328 13.184 14.439L15.623 12L13.183 9.562C13.0893 9.46824 13.0366 9.34108 13.0366 9.2085C13.0366 9.07592 13.0893 8.94876 13.183 8.855L13.184 8.854ZM10.111 8.146L10.818 8.854C10.9117 8.94776 10.9644 9.07492 10.9644 9.2075C10.9644 9.34008 10.9117 9.46724 10.818 9.561L8.378 12L10.818 14.44C10.9114 14.5337 10.9639 14.6607 10.9639 14.793C10.9639 14.9253 10.9114 15.0523 10.818 15.146L10.111 15.853C10.0646 15.8996 10.0094 15.9365 9.94863 15.9617C9.88789 15.9869 9.82277 15.9999 9.757 15.9999C9.69123 15.9999 9.62611 15.9869 9.56537 15.9617C9.50462 15.9365 9.44945 15.8996 9.403 15.853L5.903 12.353C5.80926 12.2592 5.75661 12.1321 5.75661 11.9995C5.75661 11.8669 5.80926 11.7398 5.903 11.646L9.403 8.146C9.44945 8.09944 9.50462 8.06249 9.56537 8.03729C9.62611 8.01208 9.69123 7.99911 9.757 7.99911C9.82277 7.99911 9.88789 8.01208 9.94863 8.03729C10.0094 8.06249 10.0646 8.09944 10.111 8.146Z" />
</svg>
