<svg aria-label="list (bullets)" viewBox="0 0 24 24" xmlns="http://www.w3.org/2000/svg">
<path d="M5 8C6.10457 8 7 7.10457 7 6C7 4.89543 6.10457 4 5 4C3.89543 4 3 4.89543 3 6C3 7.10457 3.89543 8 5 8Z" />
<path d="M9.5 5H20.5C20.7761 5 21 5.22388 21 5.5V6.5C21 6.77612 20.7761 7 20.5 7H9.5C9.22388 7 9 6.77612 9 6.5V5.5C9 5.22388 9.22388 5 9.5 5Z" />
<path d="M20.5 11H9.5C9.22388 11 9 11.2239 9 11.5V12.5C9 12.7761 9.22388 13 9.5 13H20.5C20.7761 13 21 12.7761 21 12.5V11.5C21 11.2239 20.7761 11 20.5 11Z" />
<path d="M9.5 17H20.5C20.7761 17 21 17.2239 21 17.5V18.5C21 18.7761 20.7761 19 20.5 19H9.5C9.22388 19 9 18.7761 9 18.5V17.5C9 17.2239 9.22388 17 9.5 17Z" />
<path d="M5 20C6.10457 20 7 19.1046 7 18C7 16.8954 6.10457 16 5 16C3.89543 16 3 16.8954 3 18C3 19.1046 3.89543 20 5 20Z" />
<path d="M7 12C7 13.1046 6.10457 14 5 14C3.89543 14 3 13.1046 3 12C3 10.8954 3.89543 10 5 10C6.10457 10 7 10.8954 7 12Z" />
</svg>
