<svg aria-label="list (bullets)" viewBox="0 0 18 16" xmlns="http://www.w3.org/2000/svg">
<path fill-rule="evenodd" clip-rule="evenodd" d="M4 0.667001C4.00013 0.579372 3.98297 0.492579 3.9495 0.411595C3.91602 0.330612 3.8669 0.25703 3.80493 0.195067C3.74297 0.133104 3.66939 0.0839782 3.58841 0.050505C3.50742 0.0170317 3.42063 -0.000130922 3.333 7.51947e-07H0.667C0.490101 7.51947e-07 0.320446 0.0702737 0.19536 0.19536C0.0702729 0.320447 0 0.490101 0 0.667001V3.333C0 3.702 0.299 4 0.667 4H3.333C3.42063 4.00013 3.50742 3.98297 3.58841 3.9495C3.66939 3.91602 3.74297 3.8669 3.80493 3.80493C3.8669 3.74297 3.91602 3.66939 3.9495 3.58841C3.98297 3.50742 4.00013 3.42063 4 3.333V0.667001ZM4 6.667C4.00013 6.57937 3.98297 6.49258 3.9495 6.4116C3.91602 6.33061 3.8669 6.25703 3.80493 6.19507C3.74297 6.1331 3.66939 6.08398 3.58841 6.0505C3.50742 6.01703 3.42063 5.99987 3.333 6H0.667C0.490101 6 0.320446 6.07027 0.19536 6.19536C0.0702729 6.32045 0 6.4901 0 6.667V9.333C0 9.702 0.299 10 0.667 10H3.333C3.42063 10.0001 3.50742 9.98297 3.58841 9.9495C3.66939 9.91602 3.74297 9.8669 3.80493 9.80493C3.8669 9.74297 3.91602 9.66939 3.9495 9.58841C3.98297 9.50742 4.00013 9.42063 4 9.333V6.667ZM3.333 12C3.702 12 4 12.299 4 12.667V15.333C4.00013 15.4206 3.98297 15.5074 3.9495 15.5884C3.91602 15.6694 3.8669 15.743 3.80493 15.8049C3.74297 15.8669 3.66939 15.916 3.58841 15.9495C3.50742 15.983 3.42063 16.0001 3.333 16H0.667C0.579408 16 0.492674 15.9827 0.41175 15.9492C0.330826 15.9157 0.257296 15.8666 0.19536 15.8046C0.133423 15.7427 0.0842923 15.6692 0.0507724 15.5883C0.0172525 15.5073 0 15.4206 0 15.333V12.667C0 12.299 0.299 12 0.667 12H3.333ZM17.5 1H6.5C6.36739 1 6.24021 1.05268 6.14645 1.14645C6.05268 1.24022 6 1.36739 6 1.5V2.5C6 2.63261 6.05268 2.75979 6.14645 2.85355C6.24021 2.94732 6.36739 3 6.5 3H17.5C17.6326 3 17.7598 2.94732 17.8536 2.85355C17.9473 2.75979 18 2.63261 18 2.5V1.5C18 1.36739 17.9473 1.24022 17.8536 1.14645C17.7598 1.05268 17.6326 1 17.5 1ZM6.5 7H17.5C17.6326 7 17.7598 7.05268 17.8536 7.14645C17.9473 7.24022 18 7.36739 18 7.5V8.5C18 8.63261 17.9473 8.75979 17.8536 8.85355C17.7598 8.94732 17.6326 9 17.5 9H6.5C6.36739 9 6.24021 8.94732 6.14645 8.85355C6.05268 8.75979 6 8.63261 6 8.5V7.5C6 7.36739 6.05268 7.24022 6.14645 7.14645C6.24021 7.05268 6.36739 7 6.5 7ZM17.5 13H6.5C6.36739 13 6.24021 13.0527 6.14645 13.1464C6.05268 13.2402 6 13.3674 6 13.5V14.5C6 14.6326 6.05268 14.7598 6.14645 14.8536C6.24021 14.9473 6.36739 15 6.5 15H17.5C17.6326 15 17.7598 14.9473 17.8536 14.8536C17.9473 14.7598 18 14.6326 18 14.5V13.5C18 13.3674 17.9473 13.2402 17.8536 13.1464C17.7598 13.0527 17.6326 13 17.5 13Z" />
</svg>
