<svg aria-label="redo" viewBox="0 0 20 20" xmlns="http://www.w3.org/2000/svg">
<path d="M10 20C13.6088 20 16.7711 18.0884 18.5296 15.2225C18.6741 14.987 18.5838 14.6821 18.3412 14.5498L17.463 14.0708C17.2208 13.9386 16.9185 14.0288 16.7713 14.2622C15.3547 16.5081 12.8516 18 10 18C5.58172 18 2 14.4183 2 10C2 5.58172 5.58172 2 10 2C12.7199 2 15.1229 3.3574 16.5683 5.43173L14.8536 7.14645C14.5386 7.46143 14.7617 8 15.2071 8H19.5C19.7761 8 20 7.77614 20 7.5V3.20711C20 2.76165 19.4614 2.53857 19.1464 2.85355L18.0004 3.99958C16.176 1.57093 13.2714 0 10 0C4.47715 0 0 4.47715 0 10C0 15.5228 4.47715 20 10 20Z" />
</svg>
