<svg aria-label="undo" viewBox="0 0 20 20" xmlns="http://www.w3.org/2000/svg">
<path d="M10 20C6.39118 20 3.22885 18.0884 1.47039 15.2225C1.32588 14.987 1.41617 14.6821 1.65875 14.5498L2.53698 14.0708C2.77925 13.9386 3.08147 14.0288 3.2287 14.2622C4.64534 16.5081 7.14844 18 10 18C14.4183 18 18 14.4183 18 10C18 5.58172 14.4183 2 10 2C7.28005 2 4.87714 3.3574 3.43173 5.43173L5.14645 7.14645C5.46143 7.46143 5.23835 8 4.79289 8H0.5C0.223858 8 0 7.77614 0 7.5V3.20711C0 2.76166 0.53857 2.53857 0.853554 2.85355L1.99958 3.99958C3.82401 1.57093 6.72855 0 10 0C15.5228 0 20 4.47715 20 10C20 15.5228 15.5228 20 10 20Z" />
</svg>
