<svg aria-label="people" viewBox="0 0 22 20" xmlns="http://www.w3.org/2000/svg">
<path d="M19.371 17.059C20.061 16.418 20.5 15.513 20.5 14.5C20.5 12.57 18.93 11 17 11C15.07 11 13.5 12.57 13.5 14.5C13.5 15.513 13.939 16.418 14.629 17.059C13.151 17.593 12 18.62 12 20H14C14 19.402 15.413 18.643 17 18.643C18.587 18.643 20 19.403 20 20H22C22 18.62 20.849 17.593 19.371 17.059ZM17 13C17.827 13 18.5 13.673 18.5 14.5C18.5 15.327 17.827 16 17 16C16.173 16 15.5 15.327 15.5 14.5C15.5 13.673 16.173 13 17 13ZM7.371 17.059C8.849 17.593 10 18.62 10 20H8C8 19.402 6.587 18.643 5 18.643C3.413 18.643 2 19.402 2 20H0C0 18.62 1.151 17.593 2.629 17.059C1.939 16.418 1.5 15.513 1.5 14.5C1.5 12.57 3.07 11 5 11C6.93 11 8.5 12.57 8.5 14.5C8.5 15.513 8.061 16.418 7.371 17.059ZM5 13C4.173 13 3.5 13.673 3.5 14.5C3.5 15.327 4.173 16 5 16C5.827 16 6.5 15.327 6.5 14.5C6.5 13.673 5.827 13 5 13ZM14 9C14 8.402 12.587 7.643 11 7.643C9.413 7.643 8 8.402 8 9H6C6 7.62 7.151 6.593 8.629 6.059C7.939 5.419 7.5 4.513 7.5 3.5C7.5 1.57 9.07 0 11 0C12.93 0 14.5 1.57 14.5 3.5C14.5 4.513 14.061 5.419 13.371 6.059C14.849 6.593 16 7.62 16 9H14ZM11 2C10.173 2 9.5 2.673 9.5 3.5C9.5 4.327 10.173 5 11 5C11.827 5 12.5 4.327 12.5 3.5C12.5 2.673 11.827 2 11 2Z" />
</svg>
