<svg viewBox="0 0 22 16" xmlns="http://www.w3.org/2000/svg">
<path fill-rule="evenodd" clip-rule="evenodd" d="M14 8C16.2061 8 18 6.20599 18 4C18 1.79401 16.2061 0 14 0C11.7939 0 10 1.79401 10 4C10 6.20599 11.7939 8 14 8ZM14 2C15.103 2 16 2.896 16 4C16 5.10303 15.103 6 14 6C12.897 6 12 5.10303 12 4C12 2.896 12.897 2 14 2Z" />
<path fill-rule="evenodd" clip-rule="evenodd" d="M22 15.5C22 15.7761 21.7761 16 21.5 16H6.5C6.22388 16 6 15.7761 6 15.5V15C6 11.467 9.29004 9 14 9C18.71 9 22 11.467 22 15V15.5ZM19.8409 14H8.15796C8.75598 12.192 10.991 11 13.9989 11C17.007 11 19.2429 12.192 19.8409 14Z" />
<path d="M3 6H0.5C0.223877 6 0 6.22388 0 6.5V7.5C0 7.77612 0.223877 8 0.5 8H3V10.5C3 10.7761 3.22388 11 3.5 11H4.5C4.77612 11 5 10.7761 5 10.5V8H7.5C7.77612 8 8 7.77612 8 7.5V6.5C8 6.22388 7.77612 6 7.5 6H5V3.5C5 3.22388 4.77612 3 4.5 3H3.5C3.22388 3 3 3.22388 3 3.5V6Z" />
</svg>
