<svg aria-label="person" viewBox="0 0 16 16" xmlns="http://www.w3.org/2000/svg">
<path fill-rule="evenodd" clip-rule="evenodd" d="M4 4C4 6.20599 5.79395 8 8 8C10.2061 8 12 6.20599 12 4C12 1.79401 10.2061 0 8 0C5.79395 0 4 1.79401 4 4ZM6 4C6 2.896 6.89697 2 8 2C9.10303 2 10 2.896 10 4C10 5.103 9.10303 6 8 6C6.89697 6 6 5.103 6 4Z" />
<path fill-rule="evenodd" clip-rule="evenodd" d="M0.5 16C0.223877 16 0 15.7761 0 15.5V15C0 11.467 3.29004 9 8 9C12.71 9 16 11.467 16 15V15.5C16 15.7761 15.7761 16 15.5 16H0.5ZM13.842 14H2.15906C2.75708 12.192 4.99304 11 8.0011 11C11.009 11 13.244 12.192 13.842 14Z" />
</svg>
