<svg aria-label="box logo" viewBox="0 0 22 13" xmlns="http://www.w3.org/2000/svg">
<path fill-rule="evenodd" clip-rule="evenodd" d="M11.82 12.3099C14.18 12.3099 16.1 10.3999 16.1 8.03993C16.1 5.67993 14.18 3.75993 11.82 3.75993C10.19 3.75993 8.77 4.67993 8.05 6.02993C7.68653 5.34524 7.1437 4.7723 6.47961 4.37244C5.81552 3.97257 5.05518 3.76085 4.28 3.75993C3.32 3.75993 2.43 4.07993 1.71 4.61993V0.999932C1.70222 0.779738 1.60925 0.571167 1.45068 0.418193C1.29211 0.265218 1.08033 0.179795 0.86 0.179932C0.39 0.179932 0 0.559932 0 0.999932V8.10993C0.0166253 9.05741 0.347586 9.97251 0.940873 10.7114C1.53416 11.4503 2.35614 11.9712 3.27765 12.1921C4.19916 12.4131 5.16795 12.3215 6.0318 11.932C6.89564 11.5424 7.60556 10.8769 8.05 10.0399C8.41347 10.7246 8.9563 11.2976 9.62039 11.6974C10.2845 12.0973 11.0448 12.309 11.82 12.3099ZM11.82 5.46993C12.5016 5.46993 13.1553 5.7407 13.6373 6.22267C14.1192 6.70464 14.39 7.35833 14.39 8.03993C14.389 8.54681 14.2379 9.04204 13.9556 9.46308C13.6734 9.88413 13.2728 10.2121 12.8043 10.4056C12.3358 10.5992 11.8205 10.6495 11.3234 10.5504C10.8263 10.4513 10.3697 10.2071 10.0113 9.84866C9.65286 9.49024 9.40867 9.03366 9.30954 8.53656C9.2104 8.03947 9.26078 7.52414 9.4543 7.05566C9.64782 6.58717 9.9758 6.18652 10.3968 5.9043C10.8179 5.62207 11.3131 5.47092 11.82 5.46993V5.46993ZM6.84 8.03993C6.84 6.61993 5.69 5.46993 4.28 5.46993C3.59839 5.46993 2.9447 5.7407 2.46274 6.22267C1.98077 6.70464 1.71 7.35833 1.71 8.03993C1.71 8.72021 1.98024 9.37263 2.46127 9.85366C2.9423 10.3347 3.59472 10.6049 4.275 10.6049C4.95528 10.6049 5.6077 10.3347 6.08873 9.85366C6.56976 9.37263 6.84 8.72021 6.84 8.03993ZM22 11.4699C21.9995 11.2877 21.9437 11.1098 21.84 10.9599L19.66 8.03993L21.84 5.10993C21.9459 4.97252 22.0023 4.80339 22 4.62993C22 4.35993 21.89 4.09993 21.66 3.92993C21.29 3.64993 20.76 3.71993 20.5 4.08993L18.59 6.60993L16.7 4.08993C16.5605 3.9118 16.3569 3.79532 16.1326 3.76541C15.9083 3.73551 15.6813 3.79456 15.5 3.92993C15.29 4.09993 15.17 4.34993 15.17 4.60993C15.17 4.78993 15.22 4.95993 15.33 5.10993L17.5 8.03993L15.33 10.9599C15.23 11.1099 15.17 11.2899 15.17 11.4599C15.17 11.7199 15.29 11.9999 15.5 12.1499C15.67 12.2599 15.85 12.3199 16.03 12.3199C16.28 12.3199 16.53 12.2099 16.7 11.9999L18.59 9.46993L20.5 11.9999C20.65 12.2099 20.9 12.3199 21.15 12.3199C21.33 12.3199 21.5 12.2599 21.66 12.1499C21.7667 12.0719 21.8533 11.9694 21.9124 11.8511C21.9716 11.7329 22.0016 11.6022 22 11.4699V11.4699Z" />
</svg>
