<svg aria-label="box logo" viewBox="0 0 24 24" xmlns="http://www.w3.org/2000/svg">
<path fill-rule="evenodd" clip-rule="evenodd" d="M12.7454 17.0272C14.8909 17.0272 16.6363 15.2909 16.6363 13.1454C16.6363 11 14.8909 9.25454 12.7454 9.25454C11.2636 9.25454 9.9727 10.0909 9.31816 11.3182C8.98774 10.6957 8.49425 10.1749 7.89053 9.81136C7.28682 9.44785 6.59561 9.25537 5.8909 9.25454C5.01817 9.25454 4.20908 9.54544 3.55454 10.0364V6.74545C3.54747 6.54528 3.46295 6.35567 3.31879 6.2166C3.17464 6.07753 2.98212 5.99988 2.78182 6C2.35454 6 2 6.34545 2 6.74545V13.2091C2.01511 14.0704 2.31599 14.9023 2.85534 15.5741C3.39469 16.2458 4.14194 16.7193 4.97967 16.9201C5.8174 17.121 6.69813 17.0378 7.48343 16.6836C8.26874 16.3295 8.91413 15.7245 9.31816 14.9636C9.64858 15.5861 10.1421 16.1069 10.7458 16.4704C11.3495 16.8339 12.0407 17.0264 12.7454 17.0272ZM12.7454 10.8091C13.3651 10.8091 13.9593 11.0552 14.3975 11.4934C14.8356 11.9315 15.0818 12.5258 15.0818 13.1454C15.0809 13.6062 14.9435 14.0564 14.6869 14.4392C14.4303 14.822 14.0661 15.1201 13.6402 15.2961C13.2143 15.472 12.7458 15.5178 12.2939 15.4277C11.842 15.3375 11.427 15.1156 11.1011 14.7897C10.7753 14.4639 10.5533 14.0488 10.4632 13.5969C10.3731 13.145 10.4189 12.6765 10.5948 12.2506C10.7707 11.8247 11.0689 11.4605 11.4517 11.204C11.8344 10.9474 12.2846 10.81 12.7454 10.8091V10.8091ZM8.21816 13.1454C8.21816 11.8545 7.17271 10.8091 5.8909 10.8091C5.27126 10.8091 4.677 11.0552 4.23884 11.4934C3.80069 11.9315 3.55454 12.5258 3.55454 13.1454C3.55454 13.7639 3.80021 14.357 4.23751 14.7943C4.67481 15.2316 5.26792 15.4772 5.88635 15.4772C6.50479 15.4772 7.09789 15.2316 7.53519 14.7943C7.97249 14.357 8.21816 13.7639 8.21816 13.1454ZM21.9999 16.2636C21.9995 16.0979 21.9488 15.9362 21.8545 15.8L19.8727 13.1454L21.8545 10.4818C21.9507 10.3569 22.002 10.2031 21.9999 10.0454C21.9999 9.79999 21.8999 9.56363 21.6909 9.40908C21.3545 9.15454 20.8727 9.21817 20.6363 9.55454L18.9 11.8454L17.1818 9.55454C17.055 9.39259 16.8698 9.2867 16.666 9.25952C16.4621 9.23234 16.2557 9.28602 16.0909 9.40908C15.9 9.56363 15.7909 9.7909 15.7909 10.0273C15.7909 10.1909 15.8363 10.3454 15.9363 10.4818L17.909 13.1454L15.9363 15.8C15.8454 15.9363 15.7909 16.1 15.7909 16.2545C15.7909 16.4909 15.9 16.7454 16.0909 16.8818C16.2454 16.9818 16.409 17.0363 16.5727 17.0363C16.8 17.0363 17.0272 16.9363 17.1818 16.7454L18.9 14.4454L20.6363 16.7454C20.7727 16.9363 20.9999 17.0363 21.2272 17.0363C21.3909 17.0363 21.5454 16.9818 21.6909 16.8818C21.7879 16.8108 21.8666 16.7177 21.9203 16.6102C21.9741 16.5026 22.0014 16.3838 21.9999 16.2636V16.2636Z" />
</svg>
