<svg aria-label="dribbble logo" viewBox="0 0 20 20" xmlns="http://www.w3.org/2000/svg">
<path fill-rule="evenodd" clip-rule="evenodd" d="M13 11.1701C13.5 11.1001 14 11.0601 14.58 11.0601H14.6C15.53 11.0601 16.55 11.1801 17.66 11.4301C17.28 13.5001 16.08 15.2701 14.42 16.4201C14 14.5001 13.5 12.7301 13 11.1701ZM5.35999 16.26C5.63999 15.81 6.22999 14.94 7.17999 14.04C8.13999 13.11 9.49998 12.15 11.23 11.58C11.82 13.25 12.36 15.15 12.77 17.29C11.91 17.62 11 17.8 9.99998 17.8C8.25998 17.8 6.65999 17.23 5.35999 16.26ZM2.19995 9.89001C2.41995 9.90001 2.70995 9.90001 3.04995 9.90001C4.61995 9.89001 7.35995 9.76001 10.14 8.89001C10.29 9.22001 10.44 9.56001 10.59 9.92001C8.72995 10.54 7.26995 11.53 6.18995 12.5C5.15995 13.46 4.44995 14.39 4.03995 15C2.89995 13.66 2.19995 11.91 2.19995 10C2.19995 9.96001 2.19995 9.93001 2.19995 9.89001ZM9.34005 7.25C7.00005 7.96 4.61005 8.12 3.18005 8.12C3.14005 8.12 3.10005 8.12 3.06005 8.12C2.81005 8.12 2.60005 8.12 2.43005 8.11C3.00005 5.87 4.50005 4 6.55005 3C7.10005 3.65 8.18005 5.06 9.34005 7.25ZM14.86 3.90995C13.84 5.13995 12.5 5.99995 11.03 6.64995C9.99997 4.66995 8.99997 3.24995 8.33997 2.37995C8.87997 2.26995 9.42997 2.19995 9.99997 2.19995C11.84 2.19995 13.53 2.83995 14.86 3.90995ZM17.7901 9.63005C16.6601 9.39005 15.6001 9.28005 14.6001 9.28005C13.7901 9.28005 13.0401 9.35005 12.3301 9.47005C12.1601 9.05005 12.0001 8.65005 11.8101 8.26005C13.3901 7.57005 14.9001 6.58005 16.1301 5.18005C17.1001 6.42005 17.7101 7.96005 17.7901 9.63005ZM0 10C0 12.6522 1.05357 15.1957 2.92893 17.0711C4.8043 18.9464 7.34784 20 10 20C12.6522 20 15.1957 18.9464 17.0711 17.0711C18.9464 15.1957 20 12.6522 20 10C20 7.34784 18.9464 4.8043 17.0711 2.92893C15.1957 1.05357 12.6522 0 10 0C4.47715 0 0 4.47715 0 10Z" />
</svg>
