<svg aria-label="integrated learning experience (ILX)" viewBox="0 0 18 19"  xmlns="http://www.w3.org/2000/svg">
<path d="M18 4C18 6.20914 16.2091 8 14 8C11.7909 8 10 6.20914 10 4C10 1.79086 11.7909 0 14 0C16.2091 0 18 1.79086 18 4Z" />
<path d="M15.4187 15.4846C15.4187 15.4846 17.0202 14.5752 17.7633 14.2036C17.8538 14.1583 17.9253 14.0824 17.9652 13.9893C18.0584 13.7719 17.9579 13.5204 17.7404 13.4272L11.0969 10.5799C10.9892 10.5338 10.8672 10.5338 10.7596 10.5799C10.5422 10.6731 10.4416 10.9246 10.5347 11.142L13.382 17.7858C13.4219 17.8788 13.4936 17.9547 13.584 18C13.7955 18.1057 14.0526 18.02 14.1584 17.8086C14.5278 17.0697 15.4187 15.4846 15.4187 15.4846Z" />
<path d="M0 0.80904C0 0.437349 0.391156 0.195601 0.723607 0.361826L7.10557 3.55281C7.4741 3.73707 7.4741 4.26297 7.10557 4.44724L0.723607 7.63822C0.391156 7.80445 0 7.5627 0 7.19101V0.80904Z" />
<path d="M1 11C0.447715 11 0 11.4477 0 12V17C0 17.5523 0.447715 18 1 18H6C6.55228 18 7 17.5523 7 17V12C7 11.4477 6.55229 11 6 11H1Z" />
</svg>
