<svg aria-label="integrated learning experience (ILX)" viewBox="0 0 24 24"  xmlns="http://www.w3.org/2000/svg">
<path d="M21 7C21 9.20914 19.2091 11 17 11C14.7909 11 13 9.20914 13 7C13 4.79086 14.7909 3 17 3C19.2091 3 21 4.79086 21 7Z" />
<path d="M18.4187 18.4846C18.4187 18.4846 20.0202 17.5752 20.7633 17.2036C20.8538 17.1583 20.9253 17.0824 20.9652 16.9893C21.0584 16.7719 20.9579 16.5204 20.7404 16.4272L14.0969 13.5799C13.9892 13.5338 13.8672 13.5338 13.7596 13.5799C13.5422 13.6731 13.4416 13.9246 13.5347 14.142L16.382 20.7858C16.4219 20.8788 16.4936 20.9547 16.584 21C16.7955 21.1057 17.0526 21.02 17.1584 20.8086C17.5278 20.0697 18.4187 18.4846 18.4187 18.4846Z" />
<path d="M3 3.80904C3 3.43735 3.39116 3.1956 3.72361 3.36183L10.1056 6.55281C10.4741 6.73707 10.4741 7.26297 10.1056 7.44724L3.72361 10.6382C3.39116 10.8044 3 10.5627 3 10.191V3.80904Z" />
<path d="M4 14C3.44772 14 3 14.4477 3 15V20C3 20.5523 3.44772 21 4 21H9C9.55228 21 10 20.5523 10 20V15C10 14.4477 9.55229 14 9 14H4Z" />
</svg>
