<svg aria-label="labs" viewBox="0 0 24 24"  xmlns="http://www.w3.org/2000/svg">
<path d="M11.9999 14.2222C13.2272 14.2222 14.2222 13.2272 14.2222 11.9999C14.2222 10.7726 13.2272 9.77772 11.9999 9.77772C10.7726 9.77772 9.77772 10.7726 9.77772 11.9999C9.77772 13.2272 10.7726 14.2222 11.9999 14.2222Z" />
<path fill-rule="evenodd" clip-rule="evenodd" d="M19.3773 17.9609C19.6914 17.5961 19.9501 16.837 19.6376 15.5525C20.2458 14.8656 20.789 14.1592 21.2605 13.4453C22.2711 15.7987 22.2844 17.9902 21.0614 19.4108C18.7285 22.1207 12.7804 20.9995 7.77589 16.9066C2.7714 12.8137 0.605676 7.29899 2.9386 4.58915C4.63354 2.62035 8.2368 2.67377 12 4.41986C15.7632 2.67377 19.3665 2.62035 21.0614 4.58914C22.5322 6.2976 22.2149 9.12095 20.5254 12C20.5254 12 20.5254 12 20.5254 12C20.1241 12.6838 19.6455 13.3707 19.095 14.0466C19.095 14.0466 19.095 14.0466 19.095 14.0466C18.287 15.0387 17.3241 16.0069 16.2241 16.9066C15.6579 17.3697 15.0795 17.7948 14.4957 18.1805C14.9573 18.3302 15.4047 18.4454 15.8321 18.526C17.9025 18.9162 18.9683 18.436 19.3773 17.9609ZM19.095 9.95342C19.1797 9.77209 19.2567 9.59308 19.3259 9.4169C20.066 7.53232 19.7635 6.48758 19.3773 6.03899C18.9683 5.56391 17.9025 5.08375 15.8321 5.474C15.4047 5.55457 14.9573 5.6697 14.4957 5.81941C15.0795 6.20518 15.6579 6.63025 16.2241 7.09336C17.3241 7.993 18.2869 8.96131 19.095 9.95342ZM12 6.90774C12.9364 7.41864 13.8884 8.05389 14.8173 8.81356C16.0606 9.83042 17.0822 10.9227 17.8685 12C17.0822 13.0773 16.0606 14.1695 14.8173 15.1864C13.8884 15.9461 12.9364 16.5813 12 17.0922C11.0636 16.5813 10.1116 15.9461 9.18274 15.1864C7.93942 14.1696 6.91789 13.0773 6.1316 12.0001C6.91789 10.9228 7.93945 9.8305 9.18282 8.81362C9.65313 8.42897 10.1294 8.07621 10.6065 7.75534C9.69655 7.32224 8.82992 7.02849 8.05621 6.8681C7.96249 6.94217 7.86905 7.01728 7.77597 7.09342C6.67597 7.99306 5.71311 8.96139 4.90504 9.95352C4.82033 9.77216 4.74335 9.59312 4.67414 9.4169C3.93404 7.53232 4.2365 6.48758 4.6227 6.03899C5.0317 5.56391 6.09749 5.08375 8.16791 5.474C8.59535 5.55457 9.04272 5.66971 9.50432 5.81941C9.50445 5.81933 9.50419 5.81949 9.50432 5.81941C10.3034 6.07852 11.1451 6.44136 12 6.90774C12.0001 6.90769 11.9999 6.90779 12 6.90774Z" />
<path d="M10.2773 20.2657C9.40357 19.7894 8.5359 19.2334 7.69166 18.6031C5.93172 18.8396 4.99908 18.3981 4.6227 17.9609C4.3086 17.596 4.04989 16.8369 4.36239 15.5523C3.75422 14.8654 3.21103 14.159 2.73956 13.4451C1.72893 15.7986 1.71555 17.9901 2.9386 19.4107C4.37222 21.076 7.17109 21.2945 10.2773 20.2657Z" />
</svg>
