<svg viewBox="0 0 20 18"  xmlns="http://www.w3.org/2000/svg">
<path d="M9.99994 11.2222C11.2272 11.2222 12.2222 10.2272 12.2222 8.99994C12.2222 7.77264 11.2272 6.77772 9.99994 6.77772C8.77264 6.77772 7.77772 7.77264 7.77772 8.99994C7.77772 10.2272 8.77264 11.2222 9.99994 11.2222Z" />
<path fill-rule="evenodd" clip-rule="evenodd" d="M17.3773 14.9609C17.6914 14.5961 17.9501 13.837 17.6376 12.5525C18.2458 11.8656 18.789 11.1592 19.2605 10.4453C20.2711 12.7987 20.2844 14.9902 19.0614 16.4108C16.7285 19.1207 10.7804 17.9995 5.77589 13.9066C0.771401 9.81369 -1.39432 4.29899 0.938596 1.58915C2.63354 -0.37965 6.2368 -0.326226 10 1.41986C13.7632 -0.326227 17.3665 -0.379647 19.0614 1.58914C20.5322 3.2976 20.2149 6.12095 18.5254 8.99998C18.5254 8.99999 18.5254 8.99996 18.5254 8.99998C18.1241 9.68375 17.6455 10.3707 17.095 11.0466C17.095 11.0466 17.095 11.0466 17.095 11.0466C16.287 12.0387 15.3241 13.0069 14.2241 13.9066C13.6579 14.3697 13.0795 14.7948 12.4957 15.1805C12.9573 15.3302 13.4047 15.4454 13.8321 15.526C15.9025 15.9162 16.9683 15.436 17.3773 14.9609ZM17.095 6.95342C17.1797 6.77209 17.2567 6.59308 17.3259 6.4169C18.066 4.53232 17.7635 3.48758 17.3773 3.03899C16.9683 2.56391 15.9025 2.08375 13.8321 2.474C13.4047 2.55457 12.9573 2.6697 12.4957 2.81941C13.0795 3.20518 13.6579 3.63025 14.2241 4.09336C15.3241 4.993 16.2869 5.96131 17.095 6.95342ZM10 3.90774C10.9364 4.41864 11.8884 5.05389 12.8173 5.81356C14.0606 6.83042 15.0822 7.92269 15.8685 8.99997C15.0822 10.0773 14.0606 11.1695 12.8173 12.1864C11.8884 12.9461 10.9364 13.5813 9.99999 14.0922C9.06364 13.5813 8.1116 12.9461 7.18274 12.1864C5.93942 11.1696 4.91789 10.0773 4.1316 9.00006C4.91789 7.92277 5.93945 6.8305 7.18282 5.81362C7.65313 5.42897 8.1294 5.07621 8.60654 4.75534C7.69655 4.32224 6.82992 4.02849 6.05621 3.8681C5.96249 3.94217 5.86905 4.01728 5.77597 4.09342C4.67597 4.99306 3.71311 5.96139 2.90504 6.95352C2.82033 6.77216 2.74335 6.59312 2.67414 6.4169C1.93404 4.53232 2.2365 3.48758 2.6227 3.03899C3.0317 2.56391 4.09749 2.08375 6.16791 2.474C6.59535 2.55457 7.04272 2.66971 7.50432 2.81941C7.50445 2.81933 7.50419 2.81949 7.50432 2.81941C8.30344 3.07852 9.14514 3.44136 10 3.90774C10.0001 3.90769 9.9999 3.90779 10 3.90774Z" />
<path d="M8.27725 17.2657C7.40357 16.7894 6.5359 16.2334 5.69166 15.6031C3.93172 15.8396 2.99908 15.3981 2.6227 14.9609C2.3086 14.596 2.04989 13.8369 2.36239 12.5523C1.75422 11.8654 1.21103 11.159 0.73956 10.4451C-0.271072 12.7986 -0.28445 14.9901 0.938596 16.4107C2.37222 18.076 5.17109 18.2945 8.27725 17.2657Z" />
</svg>
