<svg aria-label="linkedin logo" viewBox="0 0 20 20" xmlns="http://www.w3.org/2000/svg">
<path fill-rule="evenodd" clip-rule="evenodd" d="M19 0H1C0.447754 0 0 0.447754 0 1V19C0 19.5522 0.447754 20 1 20H19C19.5522 20 20 19.5522 20 19V1C20 0.447754 19.5522 0 19 0ZM14 17H17V11.4235C17 9.53235 15.332 7.99927 13.4408 7.99927C12.5505 7.99927 11.4841 8.54712 10.995 9.3689V8H8V17H10.995V11.8148C10.995 11.0043 11.652 10.3473 12.4625 10.3473C13.2729 10.3473 14 11.0043 14 11.8148V17ZM3 4.77075C3 3.79285 3.79285 3 4.77075 3C5.74915 3 6.54163 3.79248 6.54163 4.77075C6.54163 5.74878 5.74878 6.54163 4.77075 6.54163C3.79248 6.54163 3 5.74915 3 4.77075ZM3 17H6V8H3V17Z" />
</svg>
