<svg aria-label="medium logo" viewBox="0 0 20 20" xmlns="http://www.w3.org/2000/svg">
<path fill-rule="evenodd" clip-rule="evenodd" d="M20 0H0V20H20V0ZM6.51256 14.5434C9.00463 14.5434 11.025 12.5093 11.025 10.0001C11.025 7.49083 9.00478 5.45654 6.51256 5.45654C4.02033 5.45654 2 7.49083 2 10.0001C2 12.5093 4.02049 14.5434 6.51256 14.5434ZM15.9753 10C15.9753 12.3619 14.9651 14.2774 13.719 14.2774C12.4729 14.2774 11.4627 12.3619 11.4627 10C11.4627 7.63812 12.4727 5.72266 13.7188 5.72266C14.9649 5.72266 15.9753 7.63751 15.9753 10ZM17.2065 13.8319C17.6448 13.8319 18 12.1158 18 10.0001C18 7.88376 17.6446 6.16821 17.2065 6.16821C16.7683 6.16821 16.4131 7.88392 16.4131 10.0001C16.4131 12.1162 16.7682 13.8319 17.2065 13.8319Z" />
</svg>
