<svg aria-label="medium logo" viewBox="0 0 24 24" xmlns="http://www.w3.org/2000/svg">
<path d="M13.2812 12.0001C13.2812 15.1366 10.7558 17.6793 7.64069 17.6793C4.52561 17.6793 2 15.1366 2 12.0001C2 8.86353 4.52542 6.32068 7.64069 6.32068C10.756 6.32068 13.2812 8.86353 13.2812 12.0001Z" />
<path d="M19.4691 12C19.4691 14.9524 18.2064 17.3468 16.6487 17.3468C15.0911 17.3468 13.8284 14.9524 13.8284 12C13.8284 9.04765 15.0909 6.65332 16.6485 6.65332C18.2062 6.65332 19.4691 9.04689 19.4691 12Z" />
<path d="M22 12.0001C22 14.6447 21.556 16.7899 21.0081 16.7899C20.4602 16.7899 20.0163 14.6453 20.0163 12.0001C20.0163 9.3549 20.4604 7.21027 21.0081 7.21027C21.5558 7.21027 22 9.3547 22 12.0001Z" />
</svg>
