<svg aria-label="medium logo" viewBox="0 0 24 24" xmlns="http://www.w3.org/2000/svg">
<path fill-rule="evenodd" clip-rule="evenodd" d="M22 2H2V22H22V2ZM8.51256 16.5434C11.0046 16.5434 13.025 14.5093 13.025 12.0001C13.025 9.49083 11.0048 7.45654 8.51256 7.45654C6.02033 7.45654 4 9.49083 4 12.0001C4 14.5093 6.02049 16.5434 8.51256 16.5434ZM17.9753 12C17.9753 14.3619 16.9651 16.2774 15.719 16.2774C14.4729 16.2774 13.4627 14.3619 13.4627 12C13.4627 9.63812 14.4727 7.72266 15.7188 7.72266C16.9649 7.72266 17.9753 9.63751 17.9753 12ZM19.2065 15.8319C19.6448 15.8319 20 14.1158 20 12.0001C20 9.88376 19.6446 8.16821 19.2065 8.16821C18.7683 8.16821 18.4131 9.88392 18.4131 12.0001C18.4131 14.1162 18.7682 15.8319 19.2065 15.8319Z" />
</svg>
