<svg aria-label="pluralsight logo" viewBox="0 0 20 20" xmlns="http://www.w3.org/2000/svg">
<path fill-rule="evenodd" clip-rule="evenodd" d="M7.5 7.20294L5.3125 5.9375V14.0625L7.5 12.7971V15.2344L16.4733 10L7.5 4.76562V7.20294ZM7.5 8.28603L6.25 7.56291V12.4371L7.5 11.714V8.28603ZM8.4375 11.1717V8.82834L10.4628 10L8.4375 11.1717ZM8.4375 12.2547L12.3351 10L8.4375 7.74528V6.39784L14.6127 10L8.4375 13.6022V12.2547Z"/>
<path fill-rule="evenodd" clip-rule="evenodd" d="M10 20C15.5228 20 20 15.5228 20 10C20 4.47716 15.5228 0 10 0C4.47716 0 0 4.47716 0 10C0 15.5228 4.47716 20 10 20ZM10 19.0625C15.0051 19.0625 19.0625 15.0051 19.0625 10C19.0625 4.99491 15.0051 0.9375 10 0.9375C4.99491 0.9375 0.9375 4.99491 0.9375 10C0.9375 15.0051 4.99491 19.0625 10 19.0625Z"/>
</svg>
