<svg viewBox="0 0 64 64" aria-label="pluralsight logo" xmlns="http://www.w3.org/2000/svg">
<path fill-rule="evenodd" clip-rule="evenodd" d="M24 23.0494L17 19V45L24 40.9506V48.75L52.7145 32L24 15.25V23.0494ZM24 26.5153L20 24.2013V39.7987L24 37.4847V26.5153ZM27 35.7493V28.2507L33.4811 32L27 35.7493ZM27 39.2151L39.4722 32L27 24.7849V20.4731L46.7605 32L27 43.5269V39.2151Z" />
<path fill-rule="evenodd" clip-rule="evenodd" d="M32 64C49.6731 64 64 49.6731 64 32C64 14.3269 49.6731 0 32 0C14.3269 0 0 14.3269 0 32C0 49.6731 14.3269 64 32 64ZM32 61C48.0163 61 61 48.0163 61 32C61 15.9837 48.0163 3 32 3C15.9837 3 3 15.9837 3 32C3 48.0163 15.9837 61 32 61Z" />
</svg>
