<svg aria-label="pluralsight logo" viewBox="0 0 24 24" xmlns="http://www.w3.org/2000/svg">
<path fill-rule="evenodd" clip-rule="evenodd" d="M9.5 9.20294L7.3125 7.9375V16.0625L9.5 14.7971V17.2344L18.4733 12L9.5 6.76562V9.20294ZM9.5 10.286L8.25 9.56291V14.4371L9.5 13.714V10.286ZM10.4375 13.1717V10.8283L12.4628 12L10.4375 13.1717ZM10.4375 14.2547L14.3351 12L10.4375 9.74528V8.39784L16.6127 12L10.4375 15.6022V14.2547Z" />
<path fill-rule="evenodd" clip-rule="evenodd" d="M12 22C17.5228 22 22 17.5228 22 12C22 6.47716 17.5228 2 12 2C6.47716 2 2 6.47716 2 12C2 17.5228 6.47716 22 12 22ZM12 21.0625C17.0051 21.0625 21.0625 17.0051 21.0625 12C21.0625 6.99491 17.0051 2.9375 12 2.9375C6.99491 2.9375 2.9375 6.99491 2.9375 12C2.9375 17.0051 6.99491 21.0625 12 21.0625Z" />
</svg>
