<svg width="64" height="64" viewBox="0 0 64 64" fill="none" xmlns="http://www.w3.org/2000/svg">
<path d="M32 64C14.3261 64 0 49.6719 0 32.0014C0 14.328 14.3274 0 32 0C49.6739 0 64.0014 14.328 64 32.0014C64 49.6719 49.6739 64 32 64Z" fill="url(#paint0_linear_2_239)"/>
<path fill-rule="evenodd" clip-rule="evenodd" d="M24 15.25L52.7145 32L24 48.75V40.9506L17 45V19L24 23.0494V15.25ZM24 26.5153L20 24.2013V39.7987L24 37.4847V26.5153ZM27 35.7493V28.2507L33.4811 32L27 35.7493ZM27 39.2151L39.4722 32L27 24.7849V20.4731L46.7605 32L27 43.5269V39.2151Z" fill="white"/>
<defs>
<linearGradient id="paint0_linear_2_239" x1="31.5921" y1="63.9974" x2="32.4079" y2="0.00260098" gradientUnits="userSpaceOnUse">
<stop stop-color="#E80A89"/>
<stop offset="1" stop-color="#F05A28"/>
</linearGradient>
</defs>
</svg>
