<svg fill="none" viewBox="0 0 64 64" xmlns="http://www.w3.org/2000/svg">
  <style>
    g {
      fill: #000
    }
    @media (prefers-color-scheme: dark) {
      g {
        fill: #fff
      }
    }
  </style>
  <g clip-rule="evenodd" fill-rule="evenodd">
    <path d="m24 23.0494-7-4.0494v26l7-4.0494v7.7994l28.7145-16.75-28.7145-16.75zm0 3.4659-4-2.314v15.5974l4-2.314zm3 9.234v-7.4986l6.4811 3.7493zm0 3.4658 12.4722-7.2151-12.4722-7.2151v-4.3118l19.7605 11.5269-19.7605 11.5269z"/>
    <path d="m32 64c17.6731 0 32-14.3269 32-32s-14.3269-32-32-32-32 14.3269-32 32 14.3269 32 32 32zm0-3c16.0163 0 29-12.9837 29-29s-12.9837-29-29-29-29 12.9837-29 29 12.9837 29 29 29z"/>
  </g>
</svg>