<svg viewBox="0 0 16 20" xmlns="http://www.w3.org/2000/svg">
<path fill-rule="evenodd" clip-rule="evenodd" d="M16 3.95753C16 1.77593 14.7083 0 12.5012 0H4C1.79401 0 0 1.77593 0 3.95753V19.5053C0 19.7785 0.223877 20 0.5 20C0.640137 20 0.773865 19.9418 0.868591 19.8396L5.5 14.8407L10.1314 19.8396C10.318 20.041 10.6343 20.0546 10.8379 19.87C10.9412 19.7762 11 19.6439 11 19.5053V7.91506H15C15.552 7.91506 16 7.47279 16 6.92568V3.95753ZM11 5.9363H14V3.95753C14 2.86525 13.6033 1.97877 12.5012 1.97877C11.3983 1.97877 11 2.86525 11 3.95753V5.9363Z"/>
</svg>
