<svg aria-label="filled bookmark" viewBox="0 0 24 24" xmlns="http://www.w3.org/2000/svg">
<path fill-rule="evenodd" clip-rule="evenodd" d="M21 5.95753C21 3.77593 19.7083 2 17.5012 2H9C6.79401 2 5 3.77593 5 5.95753V21.5053C5 21.7785 5.22388 22 5.5 22C5.64014 22 5.77386 21.9418 5.86859 21.8396L10.5 16.8407L15.1314 21.8396C15.318 22.041 15.6343 22.0546 15.8379 21.87C15.9412 21.7762 16 21.6439 16 21.5053V9.91506H20C20.552 9.91506 21 9.47279 21 8.92568V5.95753ZM16 7.9363H19V5.95753C19 4.86525 18.6033 3.97877 17.5012 3.97877C16.3983 3.97877 16 4.86525 16 5.95753V7.9363Z" />
</svg>
