<svg viewBox="0 0 18 20" xmlns="http://www.w3.org/2000/svg">
<path fill-rule="evenodd" clip-rule="evenodd" d="M8 19V16.5C8 16.2239 8.22388 16 8.5 16H9.5C9.77612 16 10 16.2239 10 16.5V19C10 19.5523 10.4477 20 11 20H17C17.553 20 18 19.552 18 19V1C18 0.447998 17.553 0 17 0H1C0.447021 0 0 0.447998 0 1V19C0 19.552 0.447021 20 1 20H7C7.55231 20 8 19.5523 8 19ZM6.5 14C6.22388 14 6 14.2239 6 14.5V18H2V2H16V18H12V14.5C12 14.2239 11.7761 14 11.5 14H6.5ZM4.5 4.02502H7.5C7.77612 4.02502 8 4.2489 8 4.52502V6.52502C8 6.80115 7.77612 7.02502 7.5 7.02502H4.5C4.22388 7.02502 4 6.80115 4 6.52502V4.52502C4 4.2489 4.22388 4.02502 4.5 4.02502ZM13.5 4.02502H10.5C10.2239 4.02502 10 4.2489 10 4.52502V6.52502C10 6.80115 10.2239 7.02502 10.5 7.02502H13.5C13.7761 7.02502 14 6.80115 14 6.52502V4.52502C14 4.2489 13.7761 4.02502 13.5 4.02502ZM10.5 9.02502H13.5C13.7761 9.02502 14 9.2489 14 9.52502V11.525C14 11.8011 13.7761 12.025 13.5 12.025H10.5C10.2239 12.025 10 11.8011 10 11.525V9.52502C10 9.2489 10.2239 9.02502 10.5 9.02502ZM7.5 9.02502H4.5C4.22388 9.02502 4 9.2489 4 9.52502V11.525C4 11.8011 4.22388 12.025 4.5 12.025H7.5C7.77612 12.025 8 11.8011 8 11.525V9.52502C8 9.2489 7.77612 9.02502 7.5 9.02502Z"/>
</svg>
