<svg viewBox="0 0 24 24" xmlns="http://www.w3.org/2000/svg">
<path d="M8.5 10C8.77614 10 9 10.2239 9 10.5V11.5C9 11.7761 8.77614 12 8.5 12H7.5C7.22386 12 7 11.7761 7 11.5V10.5C7 10.2239 7.22386 10 7.5 10H8.5ZM12.5 10C12.7761 10 13 10.2239 13 10.5V11.5C13 11.7761 12.7761 12 12.5 12H11.5C11.2239 12 11 11.7761 11 11.5V10.5C11 10.2239 11.2239 10 11.5 10H12.5ZM16.5 10C16.7761 10 17 10.2239 17 10.5V11.5C17 11.7761 16.7761 12 16.5 12H15.5C15.2239 12 15 11.7761 15 11.5V10.5C15 10.2239 15.2239 10 15.5 10H16.5ZM20 3C20.5523 3 21 3.44382 21 3.9961C21 7.09985 21 16.5919 21 20.0035C21 20.5558 20.5523 21 20 21H4C3.44772 21 3 20.5525 3 20.0002C3 15.1175 3 8.88247 3 3.99978C3 3.4475 3.44766 3 3.99994 3C4.95637 3 6 3 6 3V1.5C6 1.22386 6.22386 1 6.5 1H7.5C7.77614 1 8 1.22386 8 1.5V3H16V1.5C16 1.22386 16.2239 1 16.5 1H17.5C17.7761 1 18 1.22386 18 1.5V3H20ZM19 19V8H5V19H19ZM8.5 14C8.77614 14 9 14.2239 9 14.5V15.5C9 15.7761 8.77614 16 8.5 16H7.5C7.22386 16 7 15.7761 7 15.5V14.5C7 14.2239 7.22386 14 7.5 14H8.5ZM12.5 14C12.7761 14 13 14.2239 13 14.5V15.5C13 15.7761 12.7761 16 12.5 16H11.5C11.2239 16 11 15.7761 11 15.5V14.5C11 14.2239 11.2239 14 11.5 14H12.5ZM16.5 14C16.7761 14 17 14.2239 17 14.5V15.5C17 15.7761 16.7761 16 16.5 16H15.5C15.2239 16 15 15.7761 15 15.5V14.5C15 14.2239 15.2239 14 15.5 14H16.5Z" />
</svg>
