<svg viewBox="0 0 18 20" xmlns="http://www.w3.org/2000/svg">
<path d="M5.5 9C5.77614 9 6 9.22386 6 9.5V10.5C6 10.7761 5.77614 11 5.5 11H4.5C4.22386 11 4 10.7761 4 10.5V9.5C4 9.22386 4.22386 9 4.5 9H5.5ZM9.5 9C9.77614 9 10 9.22386 10 9.5V10.5C10 10.7761 9.77614 11 9.5 11H8.5C8.22386 11 8 10.7761 8 10.5V9.5C8 9.22386 8.22386 9 8.5 9H9.5ZM13.5 9C13.7761 9 14 9.22386 14 9.5V10.5C14 10.7761 13.7761 11 13.5 11H12.5C12.2239 11 12 10.7761 12 10.5V9.5C12 9.22386 12.2239 9 12.5 9H13.5ZM17 2C17.5523 2 18 2.44382 18 2.9961C18 6.09985 18 15.5919 18 19.0035C18 19.5558 17.5523 20 17 20H1C0.447716 20 -9.68705e-10 19.5525 2.04987e-08 19.0002C2.1029e-07 14.1175 1.6248e-06 7.88247 3.14768e-07 2.99978C1.66589e-07 2.4475 0.447658 2 0.999943 2C1.95637 2 3 2 3 2V0.5C3 0.223858 3.22386 0 3.5 0H4.5C4.77614 0 5 0.223858 5 0.5V2H13V0.5C13 0.223858 13.2239 0 13.5 0H14.5C14.7761 0 15 0.223858 15 0.5V2H17ZM16 18V7H2V18H16ZM5.5 13C5.77614 13 6 13.2239 6 13.5V14.5C6 14.7761 5.77614 15 5.5 15H4.5C4.22386 15 4 14.7761 4 14.5V13.5C4 13.2239 4.22386 13 4.5 13H5.5ZM9.5 13C9.77614 13 10 13.2239 10 13.5V14.5C10 14.7761 9.77614 15 9.5 15H8.5C8.22386 15 8 14.7761 8 14.5V13.5C8 13.2239 8.22386 13 8.5 13H9.5ZM13.5 13C13.7761 13 14 13.2239 14 13.5V14.5C14 14.7761 13.7761 15 13.5 15H12.5C12.2239 15 12 14.7761 12 14.5V13.5C12 13.2239 12.2239 13 12.5 13H13.5Z"/>
</svg>
