<svg viewBox="0 0 20 20" xmlns="http://www.w3.org/2000/svg">
<path d="M19.9069 18.577L13.7539 8.02699V1.01399C13.7537 0.846382 13.7115 0.681503 13.6311 0.534416C13.5508 0.38733 13.4348 0.262725 13.2939 0.171987C13.148 0.0731602 12.9786 0.0146374 12.8028 0.00234491C12.627 -0.00994755 12.4511 0.0244269 12.2929 0.101987L7.06991 2.49699C6.89626 2.57749 6.74932 2.7061 6.64652 2.86756C6.54372 3.02902 6.48937 3.21658 6.48991 3.40799C6.48943 3.59951 6.54379 3.78718 6.64657 3.94879C6.74935 4.11041 6.89625 4.23921 7.06991 4.31999L11.7119 6.43399V7.98699L8.95092 12.747L7.35991 10.442C7.26747 10.3104 7.1447 10.2029 7.00198 10.1287C6.85925 10.0546 6.70076 10.0158 6.53992 10.0158C6.37907 10.0158 6.22058 10.0546 6.07785 10.1287C5.93513 10.2029 5.81236 10.3104 5.71991 10.442L0.165915 18.457C0.0687736 18.604 0.0120826 18.774 0.00154949 18.9499C-0.00898368 19.1258 0.0270128 19.3014 0.105915 19.459C0.189637 19.6206 0.315788 19.7563 0.470826 19.8516C0.625863 19.9469 0.803932 19.9982 0.985915 20H18.9959C19.1645 20.0009 19.3306 19.9591 19.4787 19.8786C19.6268 19.798 19.7521 19.6813 19.843 19.5392C19.9338 19.3972 19.9872 19.2344 19.9982 19.0662C20.0092 18.8979 19.9775 18.7297 19.9059 18.577H19.9069ZM11.7519 2.61699V4.27999L9.93192 3.44799L11.7519 2.61699ZM2.93792 18.077L6.57992 12.817L8.24992 15.221C8.34544 15.3585 8.47395 15.4698 8.62366 15.5447C8.77337 15.6196 8.93949 15.6557 9.10679 15.6497C9.27409 15.6437 9.43721 15.5959 9.5812 15.5105C9.72518 15.4251 9.84543 15.3049 9.93091 15.161L12.7529 10.301L17.2549 18.076L2.93792 18.077Z"/>
</svg>
