<svg viewBox="0 0 24 24" xmlns="http://www.w3.org/2000/svg">
<path d="M21.907 20.577L15.754 10.027V3.01399C15.7538 2.84638 15.7116 2.6815 15.6312 2.53442C15.5509 2.38733 15.4349 2.26272 15.294 2.17199C15.1481 2.07316 14.9787 2.01464 14.8029 2.00234C14.6271 1.99005 14.4512 2.02443 14.293 2.10199L9.07 4.49699C8.89634 4.57749 8.7494 4.7061 8.64661 4.86756C8.54381 5.02902 8.48946 5.21658 8.49 5.40799C8.48951 5.59951 8.54387 5.78718 8.64665 5.94879C8.74943 6.11041 8.89634 6.23921 9.07 6.31999L13.712 8.43399V9.98699L10.951 14.747L9.36 12.442C9.26756 12.3104 9.14479 12.2029 9.00206 12.1287C8.85934 12.0546 8.70085 12.0158 8.54 12.0158C8.37915 12.0158 8.22067 12.0546 8.07794 12.1287C7.93521 12.2029 7.81244 12.3104 7.72 12.442L2.166 20.457C2.06886 20.604 2.01217 20.774 2.00164 20.9499C1.9911 21.1258 2.0271 21.3014 2.106 21.459C2.18972 21.6206 2.31587 21.7563 2.47091 21.8516C2.62595 21.9469 2.80402 21.9982 2.986 22H20.996C21.1646 22.0009 21.3307 21.9591 21.4788 21.8786C21.6269 21.798 21.7522 21.6813 21.8431 21.5392C21.9339 21.3972 21.9873 21.2344 21.9983 21.0662C22.0093 20.8979 21.9776 20.7297 21.906 20.577H21.907ZM13.752 4.61699V6.27999L11.932 5.44799L13.752 4.61699ZM4.938 20.077L8.58 14.817L10.25 17.221C10.3455 17.3585 10.474 17.4698 10.6237 17.5447C10.7735 17.6196 10.9396 17.6557 11.1069 17.6497C11.2742 17.6437 11.4373 17.5959 11.5813 17.5105C11.7253 17.4251 11.8455 17.3049 11.931 17.161L14.753 12.301L19.255 20.076L4.938 20.077Z" />
</svg>
