<svg viewBox="0 0 20 20" xmlns="http://www.w3.org/2000/svg">
<path fill-rule="evenodd" clip-rule="evenodd" d="M17.703 7.837C17.897 8.525 18 9.251 18 10C18 14.411 14.411 18 10 18C5.589 18 2 14.411 2 10C2 5.589 5.589 2 10 2C10.75 2 11.475 2.103 12.163 2.297C12.3471 1.6325 12.6817 1.01932 13.141 0.505005C12.1278 0.169467 11.0673 -0.00104106 10 4.78197e-06C4.486 4.78197e-06 0 4.486 0 10C0 15.514 4.486 20 10 20C15.514 20 20 15.514 20 10C20.001 8.93271 19.8305 7.8722 19.495 6.859C18.9806 7.31822 18.3675 7.65286 17.703 7.837ZM16.5 7C16.9596 7 17.4148 6.90947 17.8394 6.73358C18.264 6.55769 18.6499 6.29988 18.9749 5.97488C19.2999 5.64987 19.5577 5.26404 19.7336 4.8394C19.9095 4.41476 20 3.95963 20 3.5C20 3.04038 19.9095 2.58525 19.7336 2.16061C19.5577 1.73597 19.2999 1.35014 18.9749 1.02513C18.6499 0.700126 18.264 0.442318 17.8394 0.266426C17.4148 0.0905349 16.9596 4.77512e-06 16.5 4.78197e-06C15.5717 4.7958e-06 14.6815 0.368754 14.0251 1.02513C13.3687 1.68151 13 2.57175 13 3.5C13 4.42826 13.3687 5.3185 14.0251 5.97488C14.6815 6.63126 15.5717 7 16.5 7ZM9.513 5H10.513C10.6456 5 10.7728 5.05268 10.8666 5.14645C10.9603 5.24022 11.013 5.3674 11.013 5.5V9.578L13.913 12.478C14.0064 12.5717 14.0589 12.6987 14.0589 12.831C14.0589 12.9633 14.0064 13.0903 13.913 13.184L13.206 13.892C13.1596 13.9386 13.1044 13.9755 13.0436 14.0007C12.9829 14.0259 12.9178 14.0389 12.852 14.0389C12.7862 14.0389 12.7211 14.0259 12.6604 14.0007C12.5996 13.9755 12.5444 13.9386 12.498 13.892L9.013 10.406V5.5C9.013 5.3674 9.06568 5.24022 9.15945 5.14645C9.25321 5.05268 9.38039 5 9.513 5ZM16 1.75C16 1.6837 16.0263 1.62011 16.0732 1.57323C16.1201 1.52634 16.1837 1.5 16.25 1.5H16.75C16.8163 1.5 16.8799 1.52634 16.9268 1.57323C16.9737 1.62011 17 1.6837 17 1.75V3.75C17 3.81631 16.9737 3.8799 16.9268 3.92678C16.8799 3.97367 16.8163 4 16.75 4H16.25C16.1837 4 16.1201 3.97367 16.0732 3.92678C16.0263 3.8799 16 3.81631 16 3.75V1.75ZM17.13 5.125C17.13 5.29077 17.0642 5.44974 16.9469 5.56695C16.8297 5.68416 16.6708 5.75 16.505 5.75C16.3392 5.75 16.1803 5.68416 16.0631 5.56695C15.9458 5.44974 15.88 5.29077 15.88 5.125C15.88 4.95924 15.9458 4.80027 16.0631 4.68306C16.1803 4.56585 16.3392 4.5 16.505 4.5C16.6708 4.5 16.8297 4.56585 16.9469 4.68306C17.0642 4.80027 17.13 4.95924 17.13 5.125Z"/>
</svg>
