<svg viewBox="0 0 24 24" xmlns="http://www.w3.org/2000/svg">
<path d="M11.513 6.99933H12.513C12.7891 6.99933 13.013 7.22319 13.013 7.49933V11.5777L15.9126 14.4774C16.1078 14.6726 16.1078 14.9892 15.9126 15.1844L15.2055 15.8916C15.0103 16.0868 14.6937 16.0868 14.4984 15.8916L11.013 12.4062V7.49933C11.013 7.22319 11.2369 6.99933 11.513 6.99933Z" />
<path fill-rule="evenodd" clip-rule="evenodd" d="M2 12C2 6.48608 6.48608 2 12 2C17.5139 2 22 6.48608 22 12C22 17.5139 17.5139 22 12 22C6.48608 22 2 17.5139 2 12ZM4 12C4 7.58887 7.58887 4 12 4C16.4111 4 20 7.58887 20 12C20 16.4111 16.4111 20 12 20C7.58887 20 4 16.4111 4 12Z" />
</svg>
