<svg viewBox="0 0 24 24" xmlns="http://www.w3.org/2000/svg">
<path fill-rule="evenodd" clip-rule="evenodd" d="M19.703 9.837C19.897 10.525 20 11.251 20 12C20 16.411 16.411 20 12 20C7.589 20 4 16.411 4 12C4 7.589 7.589 4 12 4C12.75 4 13.475 4.103 14.163 4.297C14.3471 3.6325 14.6817 3.01932 15.141 2.505C14.1278 2.16947 13.0673 1.99896 12 2C6.486 2 2 6.486 2 12C2 17.514 6.486 22 12 22C17.514 22 22 17.514 22 12C22.001 10.9327 21.8305 9.8722 21.495 8.859C20.9806 9.31822 20.3675 9.65286 19.703 9.837ZM18.5 9C18.9596 9 19.4148 8.90947 19.8394 8.73358C20.264 8.55769 20.6499 8.29988 20.9749 7.97488C21.2999 7.64987 21.5577 7.26404 21.7336 6.8394C21.9095 6.41476 22 5.95963 22 5.5C22 5.04038 21.9095 4.58525 21.7336 4.16061C21.5577 3.73597 21.2999 3.35014 20.9749 3.02513C20.6499 2.70013 20.264 2.44232 19.8394 2.26643C19.4148 2.09053 18.9596 2 18.5 2C17.5717 2 16.6815 2.36875 16.0251 3.02513C15.3687 3.68151 15 4.57175 15 5.5C15 6.42826 15.3687 7.3185 16.0251 7.97488C16.6815 8.63126 17.5717 9 18.5 9ZM11.513 7H12.513C12.6456 7 12.7728 7.05268 12.8666 7.14645C12.9603 7.24022 13.013 7.3674 13.013 7.5V11.578L15.913 14.478C16.0064 14.5717 16.0589 14.6987 16.0589 14.831C16.0589 14.9633 16.0064 15.0903 15.913 15.184L15.206 15.892C15.1596 15.9386 15.1044 15.9755 15.0436 16.0007C14.9829 16.0259 14.9178 16.0389 14.852 16.0389C14.7862 16.0389 14.7211 16.0259 14.6604 16.0007C14.5996 15.9755 14.5444 15.9386 14.498 15.892L11.013 12.406V7.5C11.013 7.3674 11.0657 7.24022 11.1594 7.14645C11.2532 7.05268 11.3804 7 11.513 7ZM18 3.75C18 3.6837 18.0263 3.62011 18.0732 3.57323C18.1201 3.52634 18.1837 3.5 18.25 3.5H18.75C18.8163 3.5 18.8799 3.52634 18.9268 3.57323C18.9737 3.62011 19 3.6837 19 3.75V5.75C19 5.81631 18.9737 5.8799 18.9268 5.92678C18.8799 5.97367 18.8163 6 18.75 6H18.25C18.1837 6 18.1201 5.97367 18.0732 5.92678C18.0263 5.8799 18 5.81631 18 5.75V3.75ZM19.13 7.125C19.13 7.29077 19.0642 7.44974 18.9469 7.56695C18.8297 7.68416 18.6708 7.75 18.505 7.75C18.3392 7.75 18.1803 7.68416 18.0631 7.56695C17.9458 7.44974 17.88 7.29077 17.88 7.125C17.88 6.95924 17.9458 6.80027 18.0631 6.68306C18.1803 6.56585 18.3392 6.5 18.505 6.5C18.6708 6.5 18.8297 6.56585 18.9469 6.68306C19.0642 6.80027 19.13 6.95924 19.13 7.125Z" />
</svg>
