<svg viewBox="0 0 24 24" xmlns="http://www.w3.org/2000/svg">
<path d="M18.7375 9.53667C18.1142 6.37417 15.3367 4 12 4C9.35083 4 7.05 5.50333 5.90417 7.70333C3.145 7.99667 1 10.3342 1 13.1667C1 16.2008 3.46583 18.6667 6.5 18.6667H18.4167C20.9467 18.6667 23 16.6133 23 14.0833C23 11.6633 21.1208 9.70167 18.7375 9.53667ZM18.4167 16.8333H6.5C4.47417 16.8333 2.83333 15.1925 2.83333 13.1667C2.83333 11.1408 4.47417 9.5 6.5 9.5H7.15083C7.75583 7.3825 9.69 5.83333 12 5.83333C14.7867 5.83333 17.0417 8.08833 17.0417 10.875V11.3333H18.4167C19.9383 11.3333 21.1667 12.5617 21.1667 14.0833C21.1667 15.605 19.9383 16.8333 18.4167 16.8333Z" />
</svg>
