<svg viewBox="0 0 22 17" xmlns="http://www.w3.org/2000/svg">
<path d="M17.7375 5.53667C17.1142 2.37417 14.3367 0 11 0C9.64333 0 8.3875 0.394167 7.32417 1.0725L8.6625 2.41083C9.35917 2.04417 10.1567 1.83333 11 1.83333C13.7867 1.83333 16.0417 4.08833 16.0417 6.875V7.33333H17.4167C18.9383 7.33333 20.1667 8.56167 20.1667 10.0833C20.1667 11.1192 19.58 12.0175 18.7367 12.485L20.0658 13.8142C21.23 12.98 22 11.6233 22 10.0833C22 7.66333 20.1208 5.70167 17.7375 5.53667ZM2.9271 0.987068C2.82934 1.08482 2.82949 1.24336 2.92742 1.34094L5.27083 3.67583C2.34667 3.80417 0 6.20583 0 9.16667C0 12.2008 2.46583 14.6667 5.5 14.6667H16.2525L17.9091 16.3232C18.0067 16.4209 18.165 16.4209 18.2626 16.3232L19.0732 15.5126C19.1709 15.415 19.1709 15.2567 19.0732 15.1591L4.09094 0.176776C3.99331 0.0791451 3.83502 0.0791456 3.73739 0.176777L2.9271 0.987068ZM7.08583 5.5L14.4192 12.8333H5.5C3.47417 12.8333 1.83333 11.1925 1.83333 9.16667C1.83333 7.14083 3.47417 5.5 5.5 5.5H7.08583Z"/>
</svg>
