<svg viewBox="0 0 24 24" xmlns="http://www.w3.org/2000/svg">
<path d="M18.7375 9.53667C18.1142 6.37417 15.3367 4 12 4C10.6433 4 9.3875 4.39417 8.32417 5.0725L9.6625 6.41083C10.3592 6.04417 11.1567 5.83333 12 5.83333C14.7867 5.83333 17.0417 8.08833 17.0417 10.875V11.3333H18.4167C19.9383 11.3333 21.1667 12.5617 21.1667 14.0833C21.1667 15.1192 20.58 16.0175 19.7367 16.485L21.0658 17.8142C22.23 16.98 23 15.6233 23 14.0833C23 11.6633 21.1208 9.70167 18.7375 9.53667ZM3.9271 4.98707C3.82934 5.08482 3.82949 5.24336 3.92742 5.34094L6.27083 7.67583C3.34667 7.80417 1 10.2058 1 13.1667C1 16.2008 3.46583 18.6667 6.5 18.6667H17.2525L18.9091 20.3232C19.0067 20.4209 19.165 20.4209 19.2626 20.3232L20.0732 19.5126C20.1709 19.415 20.1709 19.2567 20.0732 19.1591L5.09094 4.17678C4.99331 4.07915 4.83502 4.07915 4.73739 4.17678L3.9271 4.98707ZM8.08583 9.5L15.4192 16.8333H6.5C4.47417 16.8333 2.83333 15.1925 2.83333 13.1667C2.83333 11.1408 4.47417 9.5 6.5 9.5H8.08583Z" />
</svg>
