<svg viewBox="0 0 22 15" xmlns="http://www.w3.org/2000/svg">
<path d="M17.7375 5.53667C17.1142 2.37417 14.3367 0 11 0C8.35083 0 6.05 1.50333 4.90417 3.70333C2.145 3.99667 0 6.33417 0 9.16667C0 12.2008 2.46583 14.6667 5.5 14.6667H17.4167C19.9467 14.6667 22 12.6133 22 10.0833C22 7.66333 20.1208 5.70167 17.7375 5.53667ZM17.4167 12.8333H5.5C3.47417 12.8333 1.83333 11.1925 1.83333 9.16667C1.83333 7.14083 3.47417 5.5 5.5 5.5H6.15083C6.75583 3.3825 8.69 1.83333 11 1.83333C13.7867 1.83333 16.0417 4.08833 16.0417 6.875V7.33333H17.4167C18.9383 7.33333 20.1667 8.56167 20.1667 10.0833C20.1667 11.605 18.9383 12.8333 17.4167 12.8333Z"/>
</svg>
