<svg width="24" height="24" viewBox="0 0 24 24" fill="none" xmlns="http://www.w3.org/2000/svg">
<path fill-rule="evenodd" clip-rule="evenodd" d="M11.293 21.707C11.488 21.902 11.744 22 12 22C12.256 22 12.512 21.902 12.707 21.707L21.707 12.707C22.098 12.316 22.098 11.684 21.707 11.293L12.707 2.29301C12.316 1.90201 11.684 1.90201 11.293 2.29301L2.29301 11.293C1.90201 11.684 1.90201 12.316 2.29301 12.707L11.293 21.707ZM12.5 14C12.7761 14 13 13.7761 13 13.5V8.5C13 8.22386 12.7761 8 12.5 8H11.5C11.2239 8 11 8.22386 11 8.5V13.5C11 13.7761 11.2239 14 11.5 14H12.5ZM12.5 17C12.7761 17 13 16.7761 13 16.5V15.5C13 15.2239 12.7761 15 12.5 15H11.5C11.2239 15 11 15.2239 11 15.5V16.5C11 16.7761 11.2239 17 11.5 17H12.5Z" fill="white"/>
</svg>
