<svg width="24" height="24" viewBox="0 0 24 24" fill="none" xmlns="http://www.w3.org/2000/svg">
<path d="M12 22C11.744 22 11.488 21.902 11.293 21.707L2.29301 12.707C1.90201 12.316 1.90201 11.684 2.29301 11.293L11.293 2.29301C11.684 1.90201 12.316 1.90201 12.707 2.29301L21.707 11.293C22.098 11.684 22.098 12.316 21.707 12.707L12.707 21.707C12.512 21.902 12.256 22 12 22ZM4.41401 12L12 19.586L19.586 12C16.6235 9.03749 14.9625 7.37652 12 4.41401L4.41401 12Z" fill="white"/>
<path d="M13 13.5C13 13.7761 12.7761 14 12.5 14H11.5C11.2239 14 11 13.7761 11 13.5V8.5C11 8.22386 11.2239 8 11.5 8H12.5C12.7761 8 13 8.22386 13 8.5V13.5Z" fill="white"/>
<path d="M13 16.5C13 16.7761 12.7761 17 12.5 17H11.5C11.2239 17 11 16.7761 11 16.5V15.5C11 15.2239 11.2239 15 11.5 15H12.5C12.7761 15 13 15.2239 13 15.5V16.5Z" fill="white"/>
</svg>
