<svg viewBox="0 -2.5 22 22" xmlns="http://www.w3.org/2000/svg">
<path fill-rule="evenodd" clip-rule="evenodd" d="M18.6478 16.8679L2.63214 0.852235C2.43744 0.657533 2.12195 0.6568 1.92645 0.85077L1.35632 1.41644L1.35492 1.41791C1.15967 1.6131 1.15967 1.92975 1.35492 2.12494L3.19 3.96002C1.78998 5.19 0.690002 6.74005 0 8.50006C1.72998 12.8901 6 16.0001 11 16.0001C12.28 16.0001 13.5 15.8 14.65 15.42L17.3751 18.1451L17.3765 18.1464C17.5724 18.341 17.889 18.3397 18.0836 18.1437L18.6492 17.5735C18.8431 17.3781 18.8425 17.0626 18.6478 16.8679ZM13.83 9.50006C13.94 9.19 14 8.85004 14 8.50006C14 6.8432 12.6569 5.50006 11 5.50006C10.65 5.50006 10.31 5.56012 10 5.67011L13.83 9.50006ZM22 8.50006C21.18 10.58 19.79 12.3801 18 13.69L16.58 12.2601C17.94 11.32 19.06 10.0401 19.82 8.50006C18.17 5.14008 14.76 3.00006 11 3.00006C9.90997 3.00006 8.83997 3.18012 7.83997 3.50006L6.29999 1.97003C7.73999 1.35004 9.33002 1.00006 11 1.00006C16 1.00006 20.27 4.11005 22 8.50006ZM11 14.0001C7.23999 14.0001 3.83002 11.86 2.17999 8.50006C2.77997 7.28009 3.60999 6.22003 4.59998 5.37006L8 8.78009C8.14996 10.21 9.28998 11.35 10.72 11.5001L13 13.7901C12.37 13.9301 11.69 14.0001 11 14.0001Z"/>
</svg>
