<svg viewBox="0 0 24 24" xmlns="http://www.w3.org/2000/svg">
<path fill-rule="evenodd" clip-rule="evenodd" d="M19.6478 20.8679L3.63214 4.85224C3.43744 4.65753 3.12195 4.6568 2.92645 4.85077L2.35632 5.41644L2.35492 5.41791C2.15967 5.6131 2.15967 5.92975 2.35492 6.12494L4.19 7.96002C2.78998 9.19 1.69 10.7401 1 12.5001C2.72998 16.8901 7 20.0001 12 20.0001C13.28 20.0001 14.5 19.8 15.65 19.42L18.3751 22.1451L18.3765 22.1464C18.5724 22.341 18.889 22.3397 19.0836 22.1437L19.6492 21.5735C19.8431 21.3781 19.8425 21.0626 19.6478 20.8679ZM14.83 13.5001C14.94 13.19 15 12.85 15 12.5001C15 10.8432 13.6569 9.50006 12 9.50006C11.65 9.50006 11.31 9.56012 11 9.67011L14.83 13.5001ZM23 12.5001C22.18 14.58 20.79 16.3801 19 17.69L17.58 16.2601C18.94 15.32 20.06 14.0401 20.82 12.5001C19.17 9.14008 15.76 7.00006 12 7.00006C10.91 7.00006 9.83997 7.18012 8.83997 7.50006L7.29999 5.97003C8.73999 5.35004 10.33 5.00006 12 5.00006C17 5.00006 21.27 8.11005 23 12.5001ZM12 18.0001C8.23999 18.0001 4.83002 15.86 3.17999 12.5001C3.77997 11.2801 4.60999 10.22 5.59998 9.37006L9 12.7801C9.14996 14.21 10.29 15.35 11.72 15.5001L14 17.7901C13.37 17.9301 12.69 18.0001 12 18.0001Z" />
</svg>
