<svg viewBox="0 0 20 20" xmlns="http://www.w3.org/2000/svg">
<path fill-rule="evenodd" clip-rule="evenodd" d="M0 10C0 4.47717 4.47717 0 10 0C12.6522 0 15.1957 1.05359 17.071 2.92896C18.9464 4.80432 20 7.34778 20 10C20 12.6522 18.9464 15.1957 17.071 17.071C15.1957 18.9464 12.6522 20 10 20C7.34778 20 4.80432 18.9464 2.92896 17.071C1.05359 15.1957 0 12.6522 0 10ZM2 10C2 9.30945 2.08752 8.63928 2.25208 8H5.71631C5.6394 8.65613 5.59998 9.32373 5.59998 10.0005C5.59998 10.6721 5.63977 11.3397 5.7179 12H2.25403C2.08667 11.3522 2 10.6805 2 10ZM3.07178 14C3.41833 14.6003 3.84448 15.1582 4.34314 15.6569C5.20435 16.5181 6.2417 17.1626 7.37048 17.5555C6.80896 16.4236 6.37476 15.2311 6.0769 14H3.07178ZM8.14282 14C8.54785 15.4644 9.17371 16.8605 10 18.1395C10.8263 16.8605 11.452 15.4644 11.8572 14H8.14282ZM13.9229 14C13.6248 15.2311 13.1902 16.4237 12.6285 17.5558C13.7577 17.163 14.7954 16.5183 15.6569 15.6569C16.1555 15.1582 16.5817 14.6003 16.9282 14H13.9229ZM17.746 12H14.2821C14.3604 11.3397 14.4 10.6721 14.4 10.0005C14.4 9.32849 14.3602 8.66064 14.282 8H17.746C17.9133 8.64783 18 9.31946 18 10C18 10.6805 17.9133 11.3522 17.746 12ZM12.2662 12H7.73376C7.64514 11.3409 7.59998 10.6731 7.59998 10.0005C7.59998 9.32227 7.64502 8.65442 7.73218 8H12.2661C12.3549 8.65942 12.4 9.32764 12.4 10.0005C12.4 10.6731 12.3549 11.3409 12.2662 12ZM6.07312 6H3.07019C4.02258 4.35352 5.5448 3.078 7.36731 2.44324C6.81018 3.56421 6.37317 4.75537 6.07312 6ZM8.13916 6H11.8568C11.4514 4.53516 10.8253 3.13855 9.99902 1.8595C9.18176 3.12146 8.54907 4.51453 8.13916 6ZM13.9227 6H16.9282C16.5817 5.39966 16.1555 4.8418 15.6569 4.34314C14.7954 3.48169 13.7577 2.83691 12.6284 2.44409C13.1901 3.57617 13.6246 4.76892 13.9227 6Z"/>
</svg>
