<svg viewBox="0 0 24 24" xmlns="http://www.w3.org/2000/svg">
<path d="M22.9331 13.3655L22.163 12.5976C22.0611 12.4956 21.9228 12.4384 21.7785 12.4384C21.6343 12.4384 21.496 12.4956 21.394 12.5976L14.1684 19.8308C12.8424 21.1567 11.0441 21.9015 9.16895 21.9014C7.29383 21.9013 5.49555 21.1563 4.16971 19.8303C2.84387 18.5043 2.09908 16.7059 2.09918 14.8308C2.09928 12.9557 2.84427 11.1574 4.17025 9.83158C7.27891 6.72183 8.00332 4.97389 7.27021 1.2496C7.21474 0.972231 7.15418 0.695907 7.08856 0.420766L7.08639 0.412064C7.05145 0.272174 6.96239 0.151884 6.83878 0.0776402C6.71518 0.0033961 6.56715 -0.0187248 6.42724 0.0161405L5.37326 0.279365C5.23458 0.314131 5.11518 0.402101 5.04088 0.524239C4.96658 0.646376 4.94336 0.792858 4.97624 0.931987C5.04151 1.21479 5.09154 1.43451 5.12417 1.59005C5.75069 4.60734 5.24599 5.67872 2.63224 8.29356C0.931724 10.0342 -0.0140135 12.375 0.000156975 14.8084C0.0143275 17.2417 0.987263 19.5714 2.70794 21.2921C4.42861 23.0127 6.75828 23.9857 9.19164 23.9998C11.625 24.014 13.9658 23.0683 15.7064 21.3678L22.9331 14.1345C23.0351 14.0325 23.0924 13.8942 23.0924 13.75C23.0924 13.6058 23.0351 13.4675 22.9331 13.3655Z" />
<path d="M9.74909 17.0615C10.4395 15.8916 10.8028 14.5576 10.8009 13.1991C10.8029 11.8226 10.4299 10.4715 9.72189 9.29099L17.1716 1.84675C17.2735 1.74476 17.3308 1.60645 17.3308 1.46224C17.3308 1.31803 17.2735 1.17973 17.1716 1.07774L16.396 0.302206C16.2941 0.20025 16.1557 0.142974 16.0115 0.142974C15.8673 0.142974 15.729 0.20025 15.627 0.302206L6.76878 9.16699L7.53778 9.936C8.24524 10.8766 8.62706 12.0221 8.62549 13.1991C8.62549 14.2226 8.34268 15.1798 7.85104 15.9978C7.79408 16.0909 7.73386 16.1819 7.67048 16.2708C7.59895 16.3722 7.56427 16.495 7.57218 16.6189C7.5801 16.7428 7.63014 16.8602 7.71399 16.9517L8.46016 17.7642C8.51417 17.8232 8.58052 17.8695 8.65449 17.8999C8.72845 17.9303 8.80822 17.944 8.88809 17.9401C8.96797 17.9362 9.04599 17.9146 9.1166 17.8771C9.18721 17.8395 9.24867 17.7869 9.2966 17.7229C9.45918 17.5107 9.61023 17.2899 9.74909 17.0615ZM22.3784 6.28566L23.1529 7.06011C23.2548 7.16209 23.3121 7.3004 23.3121 7.44461C23.3121 7.58882 23.2548 7.72713 23.1529 7.82911L16.4646 14.512L14.9266 12.974L21.6083 6.28457C21.6588 6.23393 21.7188 6.19375 21.7849 6.16633C21.851 6.13891 21.9218 6.1248 21.9934 6.1248C22.0649 6.1248 22.1357 6.13891 22.2018 6.16633C22.2679 6.19375 22.3279 6.23502 22.3784 6.28566Z" />
<path d="M21.5213 2.70929L20.7469 1.93485C20.6449 1.83289 20.5066 1.77562 20.3624 1.77562C20.2181 1.77562 20.0798 1.83289 19.9778 1.93485L12.7511 9.16699L14.2892 10.705L21.5224 3.4783C21.6243 3.37631 21.6816 3.23801 21.6816 3.0938C21.6816 2.94959 21.6233 2.81128 21.5213 2.70929Z" />
</svg>
