<svg viewBox="0 0 24 24" xmlns="http://www.w3.org/2000/svg">
<path d="M21.1109 13.1379L20.4692 12.498C20.3842 12.413 20.269 12.3653 20.1488 12.3653C20.0286 12.3653 19.9134 12.413 19.8284 12.498L13.807 18.5257C12.702 19.6306 11.2034 20.2512 9.6408 20.2511C8.07819 20.2511 6.57963 19.6302 5.47476 18.5252C4.36989 17.4203 3.74923 15.9216 3.74932 14.359C3.7494 12.7964 4.37023 11.2978 5.47521 10.193C8.06576 7.60153 8.66943 6.14491 8.05851 3.04133C8.01228 2.81019 7.96182 2.57992 7.90714 2.35064L7.90532 2.34339C7.87621 2.22681 7.80199 2.12657 7.69898 2.0647C7.59598 2.00283 7.47262 1.9844 7.35603 2.01345L6.47771 2.2328C6.36215 2.26178 6.26265 2.33508 6.20073 2.43687C6.13882 2.53865 6.11947 2.66072 6.14687 2.77666C6.20125 3.01232 6.24295 3.19542 6.27014 3.32504C6.79224 5.83945 6.37166 6.73227 4.19354 8.9113C2.77644 10.3618 1.98832 12.3125 2.00013 14.3403C2.01194 16.3681 2.82272 18.3095 4.25661 19.7434C5.69051 21.1773 7.6319 21.9881 9.6597 21.9999C11.6875 22.0117 13.6382 21.2236 15.0887 19.8065L21.1109 13.7788C21.1959 13.6938 21.2436 13.5785 21.2436 13.4584C21.2436 13.3382 21.1959 13.2229 21.1109 13.1379Z" />
<path d="M10.1242 16.218C10.6996 15.243 11.0023 14.1313 11.0007 12.9993C11.0024 11.8521 10.6916 10.7262 10.1016 9.74249L16.3096 3.53895C16.3946 3.45396 16.4423 3.33871 16.4423 3.21854C16.4423 3.09836 16.3946 2.98311 16.3096 2.89812L15.6634 2.25184C15.5784 2.16688 15.4631 2.11915 15.3429 2.11915C15.2228 2.11915 15.1075 2.16688 15.0225 2.25184L7.64065 9.63916L8.28149 10.28C8.87103 11.0639 9.18922 12.0184 9.18791 12.9993C9.18791 13.8522 8.95224 14.6498 8.54254 15.3315C8.49507 15.4091 8.44488 15.4849 8.39207 15.559C8.33246 15.6435 8.30356 15.7459 8.31015 15.8491C8.31675 15.9523 8.35845 16.0502 8.42833 16.1264L9.05013 16.8035C9.09514 16.8526 9.15043 16.8913 9.21207 16.9166C9.27371 16.9419 9.34018 16.9534 9.40674 16.9501C9.47331 16.9468 9.53833 16.9289 9.59717 16.8976C9.65601 16.8663 9.70722 16.8224 9.74717 16.7691C9.88265 16.5922 10.0085 16.4083 10.1242 16.218ZM20.6487 7.23805L21.294 7.88342C21.379 7.96841 21.4267 8.08367 21.4267 8.20384C21.4267 8.32402 21.379 8.43927 21.294 8.52426L15.7205 14.0933L14.4388 12.8116L20.0069 7.23715C20.049 7.19494 20.099 7.16145 20.1541 7.13861C20.2092 7.11576 20.2682 7.104 20.3278 7.104C20.3874 7.104 20.4464 7.11576 20.5015 7.13861C20.5566 7.16145 20.6066 7.19585 20.6487 7.23805Z" />
<path d="M19.9344 4.25774L19.289 3.61237C19.2041 3.52741 19.0888 3.47968 18.9686 3.47968C18.8485 3.47968 18.7332 3.52741 18.6482 3.61237L12.626 9.63916L13.9076 10.9208L19.9353 4.89858C20.0203 4.81359 20.068 4.69834 20.068 4.57816C20.068 4.45799 20.0194 4.34273 19.9344 4.25774Z" />
</svg>
