<svg viewBox="0 0 22 23" xmlns="http://www.w3.org/2000/svg">
<path d="M21.1541 13.153L20.4461 12.447C20.3523 12.3533 20.2252 12.3006 20.0926 12.3006C19.96 12.3006 19.8328 12.3533 19.7391 12.447L13.0961 19.097C11.877 20.3159 10.2236 21.0007 8.49971 21.0006C6.77579 21.0005 5.1225 20.3156 3.90357 19.0965C2.68463 17.8774 1.9999 16.2241 1.99999 14.5002C2.00008 12.7762 2.685 11.1229 3.90407 9.90401C6.76207 7.04501 7.42807 5.43801 6.75407 2.01401C6.70307 1.75901 6.6474 1.50497 6.58707 1.25201L6.58507 1.24401C6.55295 1.1154 6.47106 1.00481 6.35743 0.936553C6.24379 0.868296 6.1077 0.847958 5.97907 0.880012L5.01007 1.12201C4.88258 1.15398 4.7728 1.23485 4.70449 1.34714C4.63618 1.45943 4.61484 1.5941 4.64507 1.72201C4.70507 1.98201 4.75107 2.18401 4.78107 2.32701C5.35707 5.10101 4.89307 6.08601 2.49007 8.49001C0.926666 10.0903 0.0571848 12.2424 0.0702127 14.4795C0.0832406 16.7167 0.977726 18.8585 2.55966 20.4404C4.14159 22.0224 6.28342 22.9168 8.52057 22.9299C10.7577 22.9429 12.9098 22.0734 14.5101 20.51L21.1541 13.86C21.2478 13.7662 21.3005 13.6391 21.3005 13.5065C21.3005 13.3739 21.2478 13.2468 21.1541 13.153Z"/>
<path d="M9.03307 16.551C9.66782 15.4754 10.0018 14.249 10.0001 13C10.0019 11.7345 9.65897 10.4923 9.00807 9.40701L15.8571 2.56301C15.9508 2.46925 16.0035 2.34209 16.0035 2.20951C16.0035 2.07693 15.9508 1.94978 15.8571 1.85601L15.1441 1.14301C15.0503 1.04928 14.9232 0.996619 14.7906 0.996619C14.658 0.996619 14.5308 1.04928 14.4371 1.14301L6.29307 9.29301L7.00007 10C7.65048 10.8648 8.00152 11.9179 8.00007 13C8.00007 13.941 7.74007 14.821 7.28807 15.573C7.2357 15.6586 7.18033 15.7423 7.12207 15.824C7.05631 15.9173 7.02442 16.0302 7.03169 16.1441C7.03897 16.2579 7.08497 16.3659 7.16207 16.45L7.84807 17.197C7.89772 17.2512 7.95872 17.2938 8.02673 17.3218C8.09473 17.3497 8.16806 17.3624 8.2415 17.3587C8.31493 17.3551 8.38667 17.3353 8.45158 17.3008C8.5165 17.2663 8.573 17.2179 8.61707 17.159C8.76654 16.964 8.90541 16.761 9.03307 16.551ZM20.6441 6.64401L21.3561 7.35601C21.4498 7.44978 21.5025 7.57693 21.5025 7.70951C21.5025 7.84209 21.4498 7.96925 21.3561 8.06301L15.2071 14.207L13.7931 12.793L19.9361 6.64301C19.9825 6.59645 20.0377 6.55951 20.0984 6.5343C20.1592 6.50909 20.2243 6.49612 20.2901 6.49612C20.3558 6.49612 20.421 6.50909 20.4817 6.5343C20.5424 6.55951 20.5976 6.59745 20.6441 6.64401Z"/>
<path d="M19.8561 3.35601L19.1441 2.64401C19.0503 2.55028 18.9232 2.49762 18.7906 2.49762C18.658 2.49762 18.5308 2.55028 18.4371 2.64401L11.7931 9.29301L13.2071 10.707L19.8571 4.06301C19.9508 3.96925 20.0035 3.84209 20.0035 3.70951C20.0035 3.57693 19.9498 3.44978 19.8561 3.35601Z"/>
</svg>
