<svg viewBox="0 0 20 20" xmlns="http://www.w3.org/2000/svg">
<path fill-rule="evenodd" clip-rule="evenodd" d="M0 10C0 4.48 4.48 0 10 0C15.52 0 20 4.48 20 10C20 15.52 15.52 20 10 20C4.48 20 0 15.52 0 10ZM7.42061 8.40925H8.34938C8.58692 8.40925 8.78816 8.23426 8.82114 7.99902C8.8343 7.90515 8.85217 7.81403 8.87473 7.72565C8.92888 7.51357 9.01236 7.32857 9.12516 7.17064C9.23797 7.01271 9.38236 6.88637 9.55834 6.79161C9.73432 6.69685 9.94413 6.64947 10.1878 6.64947C10.5488 6.64947 10.8308 6.74874 11.0338 6.94728C11.2369 7.14582 11.3384 7.45265 11.3384 7.86778C11.3474 8.11144 11.3046 8.31449 11.2098 8.47693C11.1151 8.63938 10.991 8.78828 10.8376 8.92365C10.6841 9.05902 10.5172 9.19438 10.3367 9.32975C10.1562 9.46512 9.98475 9.6253 9.82231 9.8103C9.65986 9.99531 9.51773 10.2187 9.3959 10.4804C9.37712 10.5207 9.35473 10.5633 9.33029 10.6098C9.22975 10.8011 9.09444 11.0586 9.03292 11.4961C8.9989 11.738 9.16742 11.9617 9.40933 11.9957C9.42973 11.9986 9.45032 12 9.47092 12L10.5653 12C10.8008 12 10.996 11.8176 11.012 11.5826C11.042 11.1417 11.1248 11.0419 11.2213 10.9255C11.2353 10.9087 11.2496 10.8915 11.264 10.8729C11.4038 10.6924 11.564 10.5323 11.7445 10.3924C11.925 10.2525 12.1168 10.1126 12.3198 9.97275C12.5229 9.83286 12.7079 9.66366 12.8748 9.46512C13.0418 9.26658 13.1817 9.02743 13.2945 8.74767C13.4073 8.46791 13.4637 8.11144 13.4637 7.67827C13.4637 7.41655 13.4073 7.13454 13.2945 6.83222C13.1817 6.5299 12.9944 6.24788 12.7327 5.98617C12.471 5.72446 12.1258 5.50562 11.6971 5.32964C11.2685 5.15366 10.7338 5.06567 10.093 5.06567C9.59669 5.06567 9.14773 5.14915 8.74613 5.3161C8.67993 5.34363 8.6271 5.36373 8.5818 5.38096C8.35237 5.46825 8.31638 5.48194 7.71734 6.01325C7.16072 6.50693 7.04144 7.38369 7.01172 7.97946C7.00046 8.20528 7.17439 8.39748 7.40021 8.40875C7.40701 8.40909 7.41381 8.40926 7.42061 8.40925ZM9.5 13H10.5C10.7761 13 11 13.2239 11 13.5V14.5C11 14.7762 10.7761 15 10.5 15H9.5C9.22386 15 9 14.7762 9 14.5V13.5C9 13.2239 9.22386 13 9.5 13Z"/>
</svg>
