<svg viewBox="0 0 24 24" xmlns="http://www.w3.org/2000/svg">
<path fill-rule="evenodd" clip-rule="evenodd" d="M12 2C6.47998 2 2 6.47998 2 12C2 17.52 6.47998 22 12 22C17.52 22 22 17.52 22 12C22 6.47998 17.52 2 12 2ZM10.3494 10.4093H9.42065C9.41382 10.4093 9.40698 10.4091 9.40027 10.4087C9.17444 10.3975 9.00049 10.2053 9.01172 9.97949C9.0415 9.38367 9.16077 8.50696 9.71741 8.01331C10.3165 7.48193 10.3524 7.46826 10.5819 7.38098C10.6272 7.36377 10.6801 7.34363 10.7462 7.31616C11.1477 7.14917 11.5967 7.06567 12.093 7.06567C12.7338 7.06567 13.2686 7.15369 13.6971 7.32959C14.1259 7.50562 14.4711 7.72449 14.7328 7.98621C14.9944 8.24792 15.1816 8.52991 15.2946 8.83228C15.4073 9.13452 15.4637 9.4165 15.4637 9.67822C15.4637 10.1115 15.4073 10.4679 15.2946 10.7477C15.1816 11.0275 15.0419 11.2666 14.8749 11.4651C14.7079 11.6637 14.5229 11.8329 14.3198 11.9728C14.1168 12.1127 13.925 12.2526 13.7445 12.3923C13.5641 12.5322 13.4039 12.6925 13.264 12.8729C13.2496 12.8915 13.2354 12.9087 13.2214 12.9254C13.1249 13.0419 13.042 13.1417 13.012 13.5826C12.9961 13.8176 12.8008 14 12.5653 14H11.4709C11.4503 14 11.4298 13.9985 11.4093 13.9957C11.1675 13.9617 10.9989 13.738 11.033 13.4961C11.0945 13.0587 11.2297 12.8011 11.3302 12.6099C11.3547 12.5634 11.3771 12.5206 11.3959 12.4803C11.5177 12.2186 11.6599 11.9954 11.8224 11.8103C11.9847 11.6252 12.1562 11.4651 12.3367 11.3297C12.5172 11.1943 12.6842 11.059 12.8376 10.9237C12.991 10.7883 13.1151 10.6394 13.2098 10.4769C13.3046 10.3145 13.3474 10.1115 13.3385 9.8678C13.3385 9.45264 13.2369 9.14587 13.0338 8.94727C12.8308 8.74878 12.5488 8.64941 12.1879 8.64941C11.9442 8.64941 11.7344 8.6969 11.5583 8.79163C11.3824 8.88635 11.238 9.0127 11.1252 9.17065C11.0123 9.32861 10.929 9.51355 10.8748 9.72559C10.8522 9.81409 10.8344 9.90515 10.8212 9.99902C10.7882 10.2343 10.5869 10.4093 10.3494 10.4093ZM11.5 15C11.2239 15 11 15.2239 11 15.5V16.5C11 16.7761 11.2239 17 11.5 17H12.5C12.7761 17 13 16.7761 13 16.5V15.5C13 15.2239 12.7761 15 12.5 15H11.5ZM4 12C4 16.41 7.58997 20 12 20C16.41 20 20 16.41 20 12C20 7.58997 16.41 4 12 4C7.58997 4 4 7.58997 4 12Z" />
</svg>
