<svg viewBox="0 0 20 20" xmlns="http://www.w3.org/2000/svg">
<path fill-rule="evenodd" clip-rule="evenodd" d="M10 0C4.47998 0 0 4.47998 0 10C0 15.52 4.47998 20 10 20C15.52 20 20 15.52 20 10C20 4.47998 15.52 0 10 0ZM8.34937 8.4093H7.42065C7.41382 8.4093 7.40698 8.40906 7.40027 8.40869C7.17444 8.39746 7.00049 8.20532 7.01172 7.97949C7.0415 7.38367 7.16077 6.50696 7.71741 6.01331C8.31653 5.48193 8.35242 5.46826 8.58191 5.38098C8.6272 5.36377 8.68005 5.34363 8.74622 5.31616C9.14771 5.14917 9.59668 5.06567 10.093 5.06567C10.7338 5.06567 11.2686 5.15369 11.6971 5.32959C12.1259 5.50562 12.4711 5.72449 12.7328 5.98621C12.9944 6.24792 13.1816 6.52991 13.2946 6.83228C13.4073 7.13452 13.4637 7.4165 13.4637 7.67822C13.4637 8.11145 13.4073 8.4679 13.2946 8.74768C13.1816 9.02747 13.0419 9.2666 12.8749 9.46509C12.7079 9.6637 12.5229 9.83289 12.3198 9.97278C12.1168 10.1127 11.925 10.2526 11.7445 10.3923C11.5641 10.5322 11.4039 10.6925 11.264 10.8729C11.2496 10.8915 11.2354 10.9087 11.2214 10.9254C11.1249 11.0419 11.042 11.1417 11.012 11.5826C10.9961 11.8176 10.8008 12 10.5653 12H9.47095C9.45032 12 9.42981 11.9985 9.4093 11.9957C9.16748 11.9617 8.9989 11.738 9.03296 11.4961C9.09448 11.0587 9.22974 10.8011 9.3302 10.6099C9.35474 10.5634 9.37708 10.5206 9.39587 10.4803C9.5177 10.2186 9.65991 9.99536 9.82239 9.8103C9.98474 9.62524 10.1562 9.46509 10.3367 9.32971C10.5172 9.19434 10.6842 9.05896 10.8376 8.92371C10.991 8.78833 11.1151 8.6394 11.2098 8.47693C11.3046 8.31445 11.3474 8.11145 11.3385 7.8678C11.3385 7.45264 11.2369 7.14587 11.0338 6.94727C10.8308 6.74878 10.5488 6.64941 10.1879 6.64941C9.94421 6.64941 9.73438 6.6969 9.55835 6.79163C9.38245 6.88635 9.23804 7.0127 9.12524 7.17065C9.01233 7.32861 8.92896 7.51355 8.87476 7.72559C8.85217 7.81409 8.83435 7.90515 8.82117 7.99902C8.78821 8.23425 8.58691 8.4093 8.34937 8.4093ZM9.5 13C9.22388 13 9 13.2239 9 13.5V14.5C9 14.7761 9.22388 15 9.5 15H10.5C10.7761 15 11 14.7761 11 14.5V13.5C11 13.2239 10.7761 13 10.5 13H9.5ZM2 10C2 14.41 5.58997 18 10 18C14.41 18 18 14.41 18 10C18 5.58997 14.41 2 10 2C5.58997 2 2 5.58997 2 10Z"/>
</svg>
