<svg viewBox="0 0 20 20" xmlns="http://www.w3.org/2000/svg">
<path fill-rule="evenodd" clip-rule="evenodd" d="M0 10C0 4.48001 4.47998 0 10 0C15.52 0 20 4.48001 20 10C20 15.52 15.52 20 10 20C4.47998 20 0 15.52 0 10ZM11 14.5C11 14.7762 10.7761 15 10.5 15H9.5C9.22388 15 9 14.7762 9 14.5V9.5C9 9.22385 9.22388 9 9.5 9H10.5C10.7761 9 11 9.22385 11 9.5V14.5ZM10 18C5.58997 18 2 14.41 2 10C2 5.59 5.58997 2 10 2C14.41 2 18 5.59 18 10C18 14.41 14.41 18 10 18ZM10.5 7H9.5C9.22388 7 9 6.77615 9 6.5V5.5C9 5.22385 9.22388 5 9.5 5H10.5C10.7761 5 11 5.22385 11 5.5V6.5C11 6.77615 10.7761 7 10.5 7Z"/>
</svg>
