<svg viewBox="0 0 24 24" xmlns="http://www.w3.org/2000/svg">
<path fill-rule="evenodd" clip-rule="evenodd" d="M2 12C2 6.48001 6.47998 2 12 2C17.52 2 22 6.48001 22 12C22 17.52 17.52 22 12 22C6.47998 22 2 17.52 2 12ZM13 16.5C13 16.7762 12.7761 17 12.5 17H11.5C11.2239 17 11 16.7762 11 16.5V11.5C11 11.2238 11.2239 11 11.5 11H12.5C12.7761 11 13 11.2238 13 11.5V16.5ZM12 20C7.58997 20 4 16.41 4 12C4 7.59 7.58997 4 12 4C16.41 4 20 7.59 20 12C20 16.41 16.41 20 12 20ZM12.5 9H11.5C11.2239 9 11 8.77615 11 8.5V7.5C11 7.22385 11.2239 7 11.5 7H12.5C12.7761 7 13 7.22385 13 7.5V8.5C13 8.77615 12.7761 9 12.5 9Z" />
</svg>
