<svg viewBox="0 0 20 16" xmlns="http://www.w3.org/2000/svg">
<path d="M17.9749 6.05402H20V1C20 0.447723 19.5522 0 19 0H1C0.447754 0 0 0.447723 0 1V15C0 15.5523 0.447754 16 1 16H10.0485V13.9804H1.99719V1.99719H17.9741L17.9749 6.05402Z"/>
<path d="M18.5281 10.2953L16.6541 11.2323L19.8528 14.431C20.0491 14.6273 20.0491 14.9456 19.8528 15.1418L19.142 15.8527C18.9457 16.049 18.6274 16.049 18.4312 15.8527L15.2324 12.6539L14.2954 14.528C14.1713 14.7762 13.8694 14.8768 13.6211 14.7527C13.5148 14.6995 13.4307 14.6104 13.3838 14.5012L10.0408 6.70062C9.9314 6.44547 10.0496 6.14999 10.3048 6.04065C10.4312 5.98645 10.5743 5.98645 10.7008 6.04065L18.5012 9.38373C18.7565 9.49307 18.8746 9.78854 18.7653 10.0437C18.7184 10.153 18.6344 10.2421 18.5281 10.2953Z"/>
</svg>
