<svg viewBox="0 0 24 24" xmlns="http://www.w3.org/2000/svg">
<path d="M19.9749 10.054H22V5C22 4.44772 21.5522 4 21 4H3C2.44775 4 2 4.44772 2 5V19C2 19.5523 2.44775 20 3 20H12.0485V17.9804H3.99719V5.99719H19.9741L19.9749 10.054Z" />
<path d="M20.5281 14.2953L18.6541 15.2323L21.8528 18.431C22.0491 18.6273 22.0491 18.9456 21.8528 19.1418L21.142 19.8527C20.9457 20.049 20.6274 20.049 20.4312 19.8527L17.2324 16.6539L16.2954 18.528C16.1713 18.7762 15.8694 18.8768 15.6211 18.7527C15.5148 18.6995 15.4307 18.6104 15.3838 18.5012L12.0408 10.7006C11.9314 10.4455 12.0496 10.15 12.3048 10.0406C12.4312 9.98645 12.5743 9.98645 12.7008 10.0406L20.5012 13.3837C20.7565 13.4931 20.8746 13.7885 20.7653 14.0437C20.7184 14.153 20.6344 14.2421 20.5281 14.2953Z" />
</svg>
