<svg viewBox="0 0 14 21" xmlns="http://www.w3.org/2000/svg">
<path fill-rule="evenodd" clip-rule="evenodd" d="M7 10C5.34595 10 4 8.65503 4 7C4 5.34601 5.34595 4 7 4C8.65405 4 10 5.34601 10 7C10 8.65503 8.65405 10 7 10ZM6 7C6 6.44897 6.44897 6 7 6C7.55103 6 8 6.44897 8 7C8 7.552 7.55103 8 7 8C6.44897 8 6 7.552 6 7Z"/>
<path fill-rule="evenodd" clip-rule="evenodd" d="M0 7C0 9.54645 2.19751 13.9121 6.59241 20.0969C6.62488 20.1426 6.66467 20.1825 6.71033 20.2149C6.93555 20.3749 7.24768 20.3221 7.40771 20.0969C11.8025 13.9121 14 9.54645 14 7C14 3.14001 10.859 0 7 0C3.14099 0 0 3.14001 0 7ZM2 7C2 4.24298 4.24304 2 7 2C9.75696 2 12 4.24298 12 7C12 9.58899 8.89294 14.582 7 17.291C5.10706 14.583 2 9.591 2 7Z"/>
</svg>
