<svg aria-label="lock icon" viewBox="0 0 24 24" xmlns="http://www.w3.org/2000/svg">
<path d="M12 17.0005C12.828 17.0005 13.5 16.3285 13.5 15.5005C13.5 14.6725 12.828 14.0005 12 14.0005C11.172 14.0005 10.5 14.6725 10.5 15.5005C10.5 16.3285 11.172 17.0005 12 17.0005Z" />
<path fill-rule="evenodd" clip-rule="evenodd" d="M17 10.0005V8.00049C17 5.24353 14.757 3.00049 12 3.00049C9.24304 3.00049 7 5.24353 7 8.00049V10.0005H6C5.44775 10.0005 5 10.4482 5 11.0005V20C5 20.5522 5.44775 21 6 21L18 21.0005C18.5522 21.0005 19 20.5529 19 20.0005V11.0005C19 10.4482 18.5522 10.0005 18 10.0005H17ZM7 12.0005V19.0005H17.001L17 12.0005H7ZM9 8.00049C9 6.34644 10.3459 5.00049 12 5.00049C13.6541 5.00049 15 6.34644 15 8.00049V10.0005H9V8.00049Z" />
</svg>