<svg viewBox="0 0 14 18" xmlns="http://www.w3.org/2000/svg">
<path fill-rule="evenodd" clip-rule="evenodd" d="M12 5.00049V7.00049H13C13.5522 7.00049 14 7.44824 14 8.00049V17.0005C14 17.5529 13.5522 18.0005 13 18.0005L1 18C0.447754 18 0 17.5522 0 17V8.00049C0 7.44824 0.447754 7.00049 1 7.00049H2V5.00049C2 2.24353 4.24304 0.000488281 7 0.000488281C9.75696 0.000488281 12 2.24353 12 5.00049ZM7 2.00049C5.34595 2.00049 4 3.34644 4 5.00049V7.00049H10V5.00049C10 3.34644 8.65405 2.00049 7 2.00049ZM7 14C7.82843 14 8.5 13.3284 8.5 12.5C8.5 11.6716 7.82843 11 7 11C6.17157 11 5.5 11.6716 5.5 12.5C5.5 13.3284 6.17157 14 7 14Z"/>
</svg>
