<svg viewBox="0 0 14 18" xmlns="http://www.w3.org/2000/svg">
<path d="M7 14.0005C7.828 14.0005 8.5 13.3285 8.5 12.5005C8.5 11.6725 7.828 11.0005 7 11.0005C6.172 11.0005 5.5 11.6725 5.5 12.5005C5.5 13.3285 6.172 14.0005 7 14.0005Z"/>
<path fill-rule="evenodd" clip-rule="evenodd" d="M12 7.00049V5.00049C12 2.24353 9.75696 0.000488281 7 0.000488281C4.24304 0.000488281 2 2.24353 2 5.00049V7.00049H1C0.447754 7.00049 0 7.44824 0 8.00049V17C0 17.5522 0.447754 18 1 18L13 18.0005C13.5522 18.0005 14 17.5529 14 17.0005V8.00049C14 7.44824 13.5522 7.00049 13 7.00049H12ZM2 9.00049V16.0005H12.001L12 9.00049H2ZM4 5.00049C4 3.34644 5.34595 2.00049 7 2.00049C8.65405 2.00049 10 3.34644 10 5.00049V7.00049H4V5.00049Z"/>
</svg>
