<svg viewBox="0 0 24 24" xmlns="http://www.w3.org/2000/svg">
<path fill-rule="evenodd" clip-rule="evenodd" d="M11 21.4999V20.4099L5.15001 14.5599C5.10197 14.5152 5.06381 14.461 5.03797 14.4008C5.01214 14.3405 4.99921 14.2755 5.00001 14.2099V12.8199C4.33279 12.584 3.77045 12.1198 3.41237 11.5094C3.0543 10.899 2.92354 10.1816 3.04321 9.48415C3.16288 8.78665 3.52528 8.15392 4.06635 7.69778C4.60741 7.24164 5.29232 6.99146 6.00001 6.99146C6.70769 6.99146 7.3926 7.24164 7.93367 7.69778C8.47473 8.15392 8.83713 8.78665 8.9568 9.48415C9.07647 10.1816 8.94571 10.899 8.58764 11.5094C8.22956 12.1198 7.66722 12.584 7.00001 12.8199V13.5899L11 17.5899V7.81988C10.3328 7.58399 9.77045 7.11981 9.41237 6.5094C9.0543 5.89899 8.92354 5.18164 9.04321 4.48415C9.16288 3.78665 9.52528 3.15392 10.0663 2.69778C10.6074 2.24163 11.2923 1.99146 12 1.99146C12.7077 1.99146 13.3926 2.24163 13.9337 2.69778C14.4747 3.15392 14.8371 3.78665 14.9568 4.48415C15.0765 5.18164 14.9457 5.89899 14.5876 6.5094C14.2296 7.11981 13.6672 7.58399 13 7.81988V21.4999C13 21.6325 12.9473 21.7597 12.8536 21.8534C12.7598 21.9472 12.6326 21.9999 12.5 21.9999H11.5C11.3674 21.9999 11.2402 21.9472 11.1465 21.8534C11.0527 21.7597 11 21.6325 11 21.4999ZM11.1906 5.58713C11.0707 5.42221 11 5.21924 11 4.99976C11 4.44747 11.4477 3.99976 12 3.99976C12.5523 3.99976 13 4.44747 13 4.99976C13 5.00989 12.9999 5.02004 12.9995 5.03019C12.9934 5.23483 12.9258 5.42403 12.8146 5.57995C12.7825 5.62501 12.7466 5.66752 12.7071 5.70699C12.6596 5.75452 12.6076 5.79689 12.5521 5.83364C12.4315 5.9137 12.2924 5.96827 12.1427 5.98966C12.0487 6.0032 11.9536 6.00324 11.8602 5.99007C11.7069 5.96862 11.5647 5.91241 11.4419 5.82965C11.3449 5.76441 11.2597 5.68242 11.1906 5.58713ZM6.00001 8.99988C6.19779 8.99988 6.39113 9.05853 6.55558 9.16841C6.72003 9.27829 6.8482 9.43447 6.92389 9.6172C6.99957 9.79992 7.01938 10.001 6.98079 10.195C6.94221 10.389 6.84696 10.5671 6.70711 10.707C6.56726 10.8468 6.38908 10.9421 6.1951 10.9807C6.00112 11.0193 5.80005 10.9994 5.61732 10.9238C5.4346 10.8481 5.27842 10.7199 5.16854 10.5555C5.05866 10.391 5.00001 10.1977 5.00001 9.99988C5.00001 9.73467 5.10536 9.48031 5.2929 9.29278C5.48044 9.10524 5.73479 8.99988 6.00001 8.99988Z" />
<path fill-rule="evenodd" clip-rule="evenodd" d="M20.5668 8.43848C20.8517 8.90936 21.0015 9.44953 21 9.99988C20.9982 10.6188 20.8051 11.2221 20.4471 11.7269C20.089 12.2318 19.5835 12.6136 19 12.8199V15.4199C19.0008 15.4855 18.9879 15.5505 18.962 15.6108C18.9362 15.671 18.898 15.7252 18.85 15.7699L17.18 17.4499V21.4999C17.18 21.6325 17.1273 21.7597 17.0335 21.8534C16.9398 21.9472 16.8126 21.9999 16.68 21.9999H15.68C15.5474 21.9999 15.4202 21.9472 15.3264 21.8534C15.2327 21.7597 15.18 21.6325 15.18 21.4999V16.8499C15.1787 16.7164 15.2288 16.5875 15.32 16.4899L17 14.8199V12.8199C16.4811 12.6364 16.0227 12.3138 15.6749 11.8872C15.3271 11.4607 15.1034 10.9467 15.0282 10.4015C14.9529 9.85633 15.0291 9.30095 15.2484 8.79617C15.4677 8.29139 15.8216 7.85665 16.2714 7.53953C16.7212 7.22242 17.2496 7.03515 17.7987 6.99822C18.3478 6.96129 18.8965 7.07612 19.3847 7.33015C19.8729 7.58417 20.2819 7.96761 20.5668 8.43848ZM17.4444 10.8313C17.6089 10.9412 17.8022 10.9999 18 10.9999C18.2652 10.9999 18.5196 10.8945 18.7071 10.707C18.8946 10.5194 19 10.2651 19 9.99988C19 9.8021 18.9413 9.60876 18.8315 9.44431C18.7216 9.27986 18.5654 9.15169 18.3827 9.076C18.1999 9.00031 17.9989 8.98051 17.8049 9.01909C17.6109 9.05768 17.4327 9.15292 17.2929 9.29277C17.153 9.43263 17.0578 9.61081 17.0192 9.80479C16.9806 9.99877 17.0004 10.1998 17.0761 10.3826C17.1518 10.5653 17.28 10.7215 17.4444 10.8313Z" />
</svg>
