<svg viewBox="0 0 21 18" xmlns="http://www.w3.org/2000/svg">
<path fill-rule="evenodd" clip-rule="evenodd" d="M16 1.45106C16 0.462291 14.9221 -0.115914 14.0998 0.379139C10.3666 2.62661 6.03151 3.95478 1.11572 3.99918C0.504512 4.0047 0 4.50053 0 5.12441V10.8756C0 11.5025 0.508614 11.997 1.11917 12.0007C2.16357 12.0069 3.15076 12.0293 4.08965 12.0828L4.93477 17.576C4.9723 17.8199 5.18217 18 5.42896 18H7.41719C7.72364 18 7.95798 17.7269 7.91138 17.424L7.14006 12.4104C9.67342 12.8436 11.8604 13.7116 13.9459 15.4177C14.7371 16.0651 16 15.5434 16 14.4491V1.45106ZM4 5.83337C7.65754 5.43873 10.9977 4.35822 14 2.73801V12.9666C10.9588 10.9149 7.70553 10.2666 4 10.0742V5.83337Z"/>
<path d="M18.5 7C18.2239 7 18 7.22386 18 7.5V8.5C18 8.77614 18.2239 9 18.5 9H20.5C20.7761 9 21 8.77614 21 8.5V7.5C21 7.22386 20.7761 7 20.5 7H18.5Z"/>
<path d="M17.2025 4.31363C17.0644 4.07448 17.1464 3.76869 17.3855 3.63062L19.1176 2.63062C19.3567 2.49254 19.6625 2.57448 19.8006 2.81363L20.3006 3.67965C20.4387 3.9188 20.3567 4.2246 20.1176 4.36267L18.3855 5.36267C18.1464 5.50074 17.8406 5.4188 17.7025 5.17965L17.2025 4.31363Z"/>
<path d="M20.1145 11.6306C20.3536 11.7687 20.4356 12.0745 20.2975 12.3136L19.7975 13.1797C19.6594 13.4188 19.3536 13.5007 19.1145 13.3627L17.3824 12.3627C17.1433 12.2246 17.0613 11.9188 17.1994 11.6797L17.6994 10.8136C17.8375 10.5745 18.1433 10.4925 18.3824 10.6306L20.1145 11.6306Z"/>
</svg>
