<svg viewBox="0 0 24 24" xmlns="http://www.w3.org/2000/svg">
<path fill-rule="evenodd" clip-rule="evenodd" d="M18 4.45106C18 3.46229 16.9221 2.88409 16.0998 3.37914C12.3666 5.62661 8.03151 6.95478 3.11572 6.99918C2.50451 7.0047 2 7.50053 2 8.12441V13.8756C2 14.5025 2.50861 14.997 3.11917 15.0007C4.16357 15.0069 5.15076 15.0293 6.08965 15.0828L6.93477 20.576C6.9723 20.8199 7.18217 21 7.42896 21H9.41719C9.72364 21 9.95798 20.7269 9.91138 20.424L9.14006 15.4104C11.6734 15.8436 13.8604 16.7116 15.9459 18.4177C16.7371 19.0651 18 18.5434 18 17.4491V4.45106ZM6 8.83337C9.65754 8.43873 12.9977 7.35822 16 5.73801V15.9666C12.9588 13.9149 9.70553 13.2666 6 13.0742V8.83337Z" />
<path d="M20.5 10C20.2239 10 20 10.2239 20 10.5V11.5C20 11.7761 20.2239 12 20.5 12H22.5C22.7761 12 23 11.7761 23 11.5V10.5C23 10.2239 22.7761 10 22.5 10H20.5Z" />
<path d="M19.2025 7.31363C19.0644 7.07448 19.1464 6.76869 19.3855 6.63062L21.1176 5.63062C21.3567 5.49254 21.6625 5.57448 21.8006 5.81363L22.3006 6.67965C22.4387 6.9188 22.3567 7.2246 22.1176 7.36267L20.3855 8.36267C20.1464 8.50074 19.8406 8.4188 19.7025 8.17965L19.2025 7.31363Z" />
<path d="M22.1145 14.6306C22.3536 14.7687 22.4356 15.0745 22.2975 15.3136L21.7975 16.1797C21.6594 16.4188 21.3536 16.5007 21.1145 16.3627L19.3824 15.3627C19.1433 15.2246 19.0613 14.9188 19.1994 14.6797L19.6994 13.8136C19.8375 13.5745 20.1433 13.4925 20.3824 13.6306L22.1145 14.6306Z" />
</svg>
