<svg viewBox="0 0 20 19" xmlns="http://www.w3.org/2000/svg">
<path fill-rule="evenodd" clip-rule="evenodd" d="M18.9978 0H1.00024C0.447998 0 0.000244141 0.447693 0.000244141 1V14C0.000244141 14.5523 0.447998 15 1.00024 15H9V17H5.49988C5.22375 17 4.99988 17.2239 4.99988 17.5V18.5C4.99988 18.7761 5.22375 19 5.49988 19H14.4982C14.7743 19 14.9982 18.7761 14.9982 18.5V17.5C14.9982 17.2239 14.7743 17 14.4982 17H11V15H18.9978C19.55 15 19.9978 14.5523 19.9978 14V1C19.9978 0.447693 19.55 0 18.9978 0ZM2 2V13H18L17.998 2H2Z"/>
</svg>
