<svg viewBox="0 0 24 24" xmlns="http://www.w3.org/2000/svg">
<g>
<path d="M10 1.97501C9.471 1.97501 8.924 2.02401 8.328 2.12501C7.932 2.19101 7.613 2.48901 7.521 2.88001C7.428 3.27001 7.578 3.67901 7.902 3.91701C10.506 5.82701 12 8.76601 12 11.975C12 15.185 10.506 18.123 7.902 20.034C7.578 20.271 7.427 20.68 7.521 21.071C7.613 21.462 7.931 21.759 8.328 21.826C8.924 21.927 9.47 21.975 10 21.975C15.514 21.975 20 17.49 20 11.975C20 6.46101 15.514 1.97501 10 1.97501ZM10.979 19.915C12.9 17.739 14 14.911 14 11.975C14 9.03901 12.9 6.21001 10.979 4.03501C14.93 4.51901 18 7.89601 18 11.975C18 16.055 14.93 19.431 10.979 19.915Z" />
</g>
</svg>
