<svg viewBox="0 0 20 20" xmlns="http://www.w3.org/2000/svg">
<path fill-rule="evenodd" clip-rule="evenodd" d="M10 0C4.486 0 0 4.486 0 10C0 15.514 4.486 20 10 20C15.514 20 20 15.514 20 10C20 4.486 15.514 0 10 0ZM10 2C5.589 2 2 5.589 2 10C2 14.411 5.589 18 10 18C14.411 18 18 14.411 18 10C18 5.589 14.411 2 10 2ZM12.237 10.06L13.176 11H9.5C9.36739 11 9.24021 11.0527 9.14645 11.1464C9.05268 11.2402 9 11.3674 9 11.5V12.5C9 12.6326 9.05268 12.7598 9.14645 12.8536C9.24021 12.9473 9.36739 13 9.5 13H13.176L12.236 13.939C12.1423 14.0328 12.0896 14.1599 12.0896 14.2925C12.0896 14.4251 12.1423 14.5522 12.236 14.646L12.944 15.353C13.0378 15.4467 13.1649 15.4994 13.2975 15.4994C13.4301 15.4994 13.5572 15.4467 13.651 15.353L16.651 12.353C16.7447 12.2592 16.7974 12.1321 16.7974 11.9995C16.7974 11.8669 16.7447 11.7398 16.651 11.646L13.651 8.646C13.6046 8.59944 13.5494 8.56249 13.4886 8.53729C13.4279 8.51208 13.3628 8.49911 13.297 8.49911C13.2312 8.49911 13.1661 8.51208 13.1054 8.53729C13.0446 8.56249 12.9894 8.59944 12.943 8.646L12.236 9.353C12.1423 9.44676 12.0896 9.57392 12.0896 9.7065C12.0896 9.83908 12.1423 9.96624 12.236 10.06H12.237ZM6.828 9L7.768 9.939C7.86174 10.0328 7.91439 10.1599 7.91439 10.2925C7.91439 10.4251 7.86174 10.5522 7.768 10.646L7.061 11.353C7.01455 11.3996 6.95938 11.4365 6.89863 11.4617C6.83789 11.4869 6.77277 11.4999 6.707 11.4999C6.64123 11.4999 6.57611 11.4869 6.51537 11.4617C6.45462 11.4365 6.39945 11.3996 6.353 11.353L3.353 8.353C3.25926 8.25924 3.20661 8.13208 3.20661 7.9995C3.20661 7.86692 3.25926 7.73976 3.353 7.646L6.353 4.646C6.44676 4.55226 6.57392 4.49961 6.7065 4.49961C6.83908 4.49961 6.96624 4.55226 7.06 4.646L7.767 5.353C7.81356 5.39945 7.85051 5.45462 7.87571 5.51537C7.90092 5.57611 7.91389 5.64123 7.91389 5.707C7.91389 5.77277 7.90092 5.83789 7.87571 5.89863C7.85051 5.95938 7.81356 6.01455 7.767 6.061L6.828 7H10.5C10.6326 7 10.7598 7.05268 10.8536 7.14645C10.9473 7.24021 11 7.36739 11 7.5V8.5C11 8.63261 10.9473 8.75979 10.8536 8.85355C10.7598 8.94732 10.6326 9 10.5 9H6.828Z"/>
</svg>
