<svg viewBox="0 0 24 24" xmlns="http://www.w3.org/2000/svg">
<path fill-rule="evenodd" clip-rule="evenodd" d="M12 2C6.486 2 2 6.486 2 12C2 17.514 6.486 22 12 22C17.514 22 22 17.514 22 12C22 6.486 17.514 2 12 2ZM12 4C7.589 4 4 7.589 4 12C4 16.411 7.589 20 12 20C16.411 20 20 16.411 20 12C20 7.589 16.411 4 12 4ZM14.237 12.06L15.176 13H11.5C11.3674 13 11.2402 13.0527 11.1464 13.1464C11.0527 13.2402 11 13.3674 11 13.5V14.5C11 14.6326 11.0527 14.7598 11.1464 14.8536C11.2402 14.9473 11.3674 15 11.5 15H15.176L14.236 15.939C14.1423 16.0328 14.0896 16.1599 14.0896 16.2925C14.0896 16.4251 14.1423 16.5522 14.236 16.646L14.944 17.353C15.0378 17.4467 15.1649 17.4994 15.2975 17.4994C15.4301 17.4994 15.5572 17.4467 15.651 17.353L18.651 14.353C18.7447 14.2592 18.7974 14.1321 18.7974 13.9995C18.7974 13.8669 18.7447 13.7398 18.651 13.646L15.651 10.646C15.6046 10.5994 15.5494 10.5625 15.4886 10.5373C15.4279 10.5121 15.3628 10.4991 15.297 10.4991C15.2312 10.4991 15.1661 10.5121 15.1054 10.5373C15.0446 10.5625 14.9894 10.5994 14.943 10.646L14.236 11.353C14.1423 11.4468 14.0896 11.5739 14.0896 11.7065C14.0896 11.8391 14.1423 11.9662 14.236 12.06H14.237ZM8.828 11L9.768 11.939C9.86174 12.0328 9.91439 12.1599 9.91439 12.2925C9.91439 12.4251 9.86174 12.5522 9.768 12.646L9.061 13.353C9.01455 13.3996 8.95938 13.4365 8.89863 13.4617C8.83789 13.4869 8.77277 13.4999 8.707 13.4999C8.64123 13.4999 8.57611 13.4869 8.51537 13.4617C8.45462 13.4365 8.39945 13.3996 8.353 13.353L5.353 10.353C5.25926 10.2592 5.20661 10.1321 5.20661 9.9995C5.20661 9.86692 5.25926 9.73976 5.353 9.646L8.353 6.646C8.44676 6.55226 8.57392 6.49961 8.7065 6.49961C8.83908 6.49961 8.96624 6.55226 9.06 6.646L9.767 7.353C9.81356 7.39945 9.85051 7.45462 9.87571 7.51537C9.90092 7.57611 9.91389 7.64123 9.91389 7.707C9.91389 7.77277 9.90092 7.83789 9.87571 7.89863C9.85051 7.95938 9.81356 8.01455 9.767 8.061L8.828 9H12.5C12.6326 9 12.7598 9.05268 12.8536 9.14645C12.9473 9.24021 13 9.36739 13 9.5V10.5C13 10.6326 12.9473 10.7598 12.8536 10.8536C12.7598 10.9473 12.6326 11 12.5 11H8.828Z" />
</svg>
