<svg viewBox="0 0 24 24" xmlns="http://www.w3.org/2000/svg">
<path fill-rule="evenodd" clip-rule="evenodd" d="M21 21V3C21 2.44775 20.5522 2 20 2H6C5.44775 2 5 2.44775 5 3V6H3.5C3.22388 6 3 6.22388 3 6.5V7.5C3 7.77612 3.22388 8 3.5 8H5V11H3.5C3.22388 11 3 11.2239 3 11.5V12.5C3 12.7761 3.22388 13 3.5 13H5V16H3.5C3.22388 16 3 16.2239 3 16.5V17.5C3 17.7761 3.22388 18 3.5 18H5V21C5 21.5522 5.44775 22 6 22H20C20.5522 22 21 21.5522 21 21ZM19.002 20H7V18H7.5C7.77612 18 8 17.7761 8 17.5V16.5C8 16.2239 7.77612 16 7.5 16H7V13H7.5C7.77612 13 8 12.7761 8 12.5V11.5C8 11.2239 7.77612 11 7.5 11H7V8H7.5C7.77612 8 8 7.77612 8 7.5V6.5C8 6.22388 7.77612 6 7.5 6H7V4H19L19.002 20ZM10.5 7H16.5C16.7761 7 17 7.22388 17 7.5V12.5C17 12.7761 16.7761 13 16.5 13H10.5C10.2239 13 10 12.7761 10 12.5V7.5C10 7.22388 10.2239 7 10.5 7ZM12 11V9H15V11H12Z" />
</svg>
