<svg viewBox="0 0 18 20" xmlns="http://www.w3.org/2000/svg">
<path fill-rule="evenodd" clip-rule="evenodd" d="M18 19V1C18 0.447754 17.5522 0 17 0H3C2.44775 0 2 0.447754 2 1V4H0.5C0.223877 4 0 4.22388 0 4.5V5.5C0 5.77612 0.223877 6 0.5 6H2V9H0.5C0.223877 9 0 9.22388 0 9.5V10.5C0 10.7761 0.223877 11 0.5 11H2V14H0.5C0.223877 14 0 14.2239 0 14.5V15.5C0 15.7761 0.223877 16 0.5 16H2V19C2 19.5522 2.44775 20 3 20H17C17.5522 20 18 19.5522 18 19ZM16.002 18H4V16H4.5C4.77612 16 5 15.7761 5 15.5V14.5C5 14.2239 4.77612 14 4.5 14H4V11H4.5C4.77612 11 5 10.7761 5 10.5V9.5C5 9.22388 4.77612 9 4.5 9H4V6H4.5C4.77612 6 5 5.77612 5 5.5V4.5C5 4.22388 4.77612 4 4.5 4H4V2H16L16.002 18ZM7.5 5H13.5C13.7761 5 14 5.22388 14 5.5V10.5C14 10.7761 13.7761 11 13.5 11H7.5C7.22388 11 7 10.7761 7 10.5V5.5C7 5.22388 7.22388 5 7.5 5ZM9 9V7H12V9H9Z"/>
</svg>
