<svg viewBox="0 0 24 24" xmlns="http://www.w3.org/2000/svg">
<path d="M23.2306 1.82715C23.3312 1.92768 23.3312 2.09333 23.2306 2.19386L19.207 6.21751L21.5604 8.57095C21.7209 8.73142 21.6101 9.0105 21.3858 9.0105H15.25C15.1119 9.0105 15 8.8958 15 8.75431V2.61847C15 2.39173 15.2662 2.27675 15.4246 2.43511L17.793 4.80351L21.8254 0.771107C21.9225 0.673995 22.0775 0.673994 22.1746 0.771107L23.2306 1.82715Z" />
<path d="M12 13.0103C11.447 13.0103 11 12.5613 11 12.0103C11 11.4573 11.447 11.0103 12 11.0103C12.553 11.0103 13 11.4573 13 12.0103C13 12.5613 12.553 13.0103 12 13.0103Z" />
<path d="M9 12.0103C9 10.3563 10.346 9.01033 12 9.01033V7.01033C9.243 7.01033 7 9.25333 7 12.0103C7 14.7673 9.243 17.0103 12 17.0103C14.757 17.0103 17 14.7673 17 12.0103H15C15 13.6643 13.654 15.0103 12 15.0103C10.346 15.0103 9 13.6643 9 12.0103Z" />
<path d="M5 12.0103C5 15.8703 8.14 19.0103 12 19.0103C15.86 19.0103 19 15.8703 19 12.0103H21C21 16.9733 16.963 21.0103 12 21.0103C7.037 21.0103 3 16.9733 3 12.0103C3 7.04733 7.037 3.01033 12 3.01033V5.01033C8.14 5.01033 5 8.15033 5 12.0103Z" />
</svg>
