<svg viewBox="0 0 21 22" xmlns="http://www.w3.org/2000/svg">
<path d="M20.2306 1.82712C20.3312 1.92765 20.3312 2.0933 20.2306 2.19383L16.207 6.21748L18.5604 8.57092C18.7209 8.73139 18.6101 9.01047 18.3858 9.01047H12.25C12.1119 9.01047 12 8.89577 12 8.75428V2.61843C12 2.3917 12.2662 2.27672 12.4246 2.43508L14.793 4.80348L18.8254 0.771077C18.9225 0.673964 19.0775 0.673964 19.1746 0.771077L20.2306 1.82712Z"/>
<path d="M9 13.0103C8.447 13.0103 8 12.5613 8 12.0103C8 11.4573 8.447 11.0103 9 11.0103C9.553 11.0103 10 11.4573 10 12.0103C10 12.5613 9.553 13.0103 9 13.0103Z"/>
<path d="M6 12.0103C6 10.3563 7.346 9.0103 9 9.0103V7.0103C6.243 7.0103 4 9.2533 4 12.0103C4 14.7673 6.243 17.0103 9 17.0103C11.757 17.0103 14 14.7673 14 12.0103H12C12 13.6643 10.654 15.0103 9 15.0103C7.346 15.0103 6 13.6643 6 12.0103Z"/>
<path d="M2 12.0103C2 15.8703 5.14 19.0103 9 19.0103C12.86 19.0103 16 15.8703 16 12.0103H18C18 16.9733 13.963 21.0103 9 21.0103C4.037 21.0103 0 16.9733 0 12.0103C0 7.0473 4.037 3.0103 9 3.0103V5.0103C5.14 5.0103 2 8.1503 2 12.0103Z"/>
</svg>
