<svg viewBox="0 0 24 24" xmlns="http://www.w3.org/2000/svg">
<path fill-rule="evenodd" clip-rule="evenodd" d="M21 16.1589V13.9751C21 12.321 19.6541 10.9751 18 10.9751H13V7.9751H19C19.5522 7.9751 20 7.52735 20 6.9751V2.99854C20 2.44678 19.5532 1.99927 19.0016 1.99854L5.00159 1.97656C4.44922 1.97559 4.00085 2.42261 4 2.97656V6.9751C4 7.52735 4.44775 7.9751 5 7.9751H11V10.9751H6C4.34595 10.9751 3 12.321 3 13.9751V16.1589C1.83899 16.573 1 17.6731 1 18.9751C1 20.6289 2.34595 21.9751 4 21.9751C5.65405 21.9751 7 20.6289 7 18.9751C7 17.6731 6.16199 16.574 5 16.1589V13.9751C5 13.4241 5.44897 12.9751 6 12.9751H11V16.1589C9.83899 16.573 9 17.6731 9 18.9751C9 20.6289 10.3459 21.9751 12 21.9751C13.6541 21.9751 15 20.6289 15 18.9751C15 17.6731 14.162 16.574 13 16.1589V12.9751H18C18.552 12.9751 19 13.4241 19 13.9751V16.1589C17.839 16.573 17 17.6731 17 18.9751C17 20.6289 18.3459 21.9751 20 21.9751C21.6541 21.9751 23 20.6289 23 18.9751C23 17.6731 22.162 16.573 21 16.1589ZM6 3.9751H18V5.9751H6V3.9751ZM3 18.9751C3 19.5271 3.44897 19.9751 4 19.9751C4.552 19.9751 5 19.5261 5 18.9751C5 18.4241 4.552 17.9751 4 17.9751C3.44897 17.9751 3 18.4241 3 18.9751ZM12 19.9751C11.449 19.9751 11 19.5271 11 18.9751C11 18.4241 11.449 17.9751 12 17.9751C12.552 17.9751 13 18.4241 13 18.9751C13 19.5261 12.552 19.9751 12 19.9751ZM19 18.9751C19 19.5271 19.448 19.9751 20 19.9751C20.552 19.9751 21 19.5261 21 18.9751C21 18.4241 20.552 17.9751 20 17.9751C19.448 17.9751 19 18.4241 19 18.9751Z" />
</svg>
