<svg viewBox="0 0 22 21" xmlns="http://www.w3.org/2000/svg">
<path fill-rule="evenodd" clip-rule="evenodd" d="M20 15.1589V12.9751C20 11.321 18.6541 9.9751 17 9.9751H12V6.9751H18C18.5522 6.9751 19 6.52735 19 5.9751V1.99854C19 1.44678 18.5532 0.999269 18.0016 0.998537L4.00159 0.976564C3.44922 0.975588 3.00085 1.42261 3 1.97656V5.9751C3 6.52735 3.44775 6.9751 4 6.9751H10V9.9751H5C3.34595 9.9751 2 11.321 2 12.9751V15.1589C0.838989 15.573 0 16.6731 0 17.9751C0 19.6289 1.34595 20.9751 3 20.9751C4.65405 20.9751 6 19.6289 6 17.9751C6 16.6731 5.16199 15.574 4 15.1589V12.9751C4 12.4241 4.44897 11.9751 5 11.9751H10V15.1589C8.83899 15.573 8 16.6731 8 17.9751C8 19.6289 9.34595 20.9751 11 20.9751C12.6541 20.9751 14 19.6289 14 17.9751C14 16.6731 13.162 15.574 12 15.1589V11.9751H17C17.552 11.9751 18 12.4241 18 12.9751V15.1589C16.839 15.573 16 16.6731 16 17.9751C16 19.6289 17.3459 20.9751 19 20.9751C20.6541 20.9751 22 19.6289 22 17.9751C22 16.6731 21.162 15.573 20 15.1589ZM5 2.9751H17V4.9751H5V2.9751ZM2 17.9751C2 18.5271 2.44897 18.9751 3 18.9751C3.552 18.9751 4 18.5261 4 17.9751C4 17.4241 3.552 16.9751 3 16.9751C2.44897 16.9751 2 17.4241 2 17.9751ZM11 18.9751C10.449 18.9751 10 18.5271 10 17.9751C10 17.4241 10.449 16.9751 11 16.9751C11.552 16.9751 12 17.4241 12 17.9751C12 18.5261 11.552 18.9751 11 18.9751ZM18 17.9751C18 18.5271 18.448 18.9751 19 18.9751C19.552 18.9751 20 18.5261 20 17.9751C20 17.4241 19.552 16.9751 19 16.9751C18.448 16.9751 18 17.4241 18 17.9751Z"/>
</svg>
