<svg viewBox="0 0 20 20" xmlns="http://www.w3.org/2000/svg">
<path fill-rule="evenodd" clip-rule="evenodd" d="M7.5 11.002C7.63261 11.002 7.75979 11.0547 7.85355 11.1484C7.94732 11.2422 8 11.3694 8 11.502V18.5C8 18.6326 7.94732 18.7598 7.85355 18.8536C7.75979 18.9473 7.63261 19 7.5 19H0.5C0.367392 19 0.240215 18.9473 0.146447 18.8536C0.0526785 18.7598 0 18.6326 0 18.5V12C0 5.383 5.383 0 12 0H18.5C18.6326 0 18.7598 0.0526785 18.8536 0.146447C18.9473 0.240215 19 0.367392 19 0.5V7.5C19 7.63261 18.9473 7.75979 18.8536 7.85355C18.7598 7.94732 18.6326 8 18.5 8H11.502C11.3694 8 11.2422 7.94732 11.1484 7.85355C11.0547 7.75979 11.002 7.63261 11.002 7.5V6.092C8.418 6.529 6.482 8.459 6.078 11.002H7.5ZM2 12V17.002L6 17V13H4V12C4 7.512 7.433 4.072 11.984 4C12.252 3.996 13 4 13 4V6H17V2H12C6.485 2 2 6.486 2 12ZM19.5 12C19.6326 12 19.7598 12.0527 19.8536 12.1464C19.9473 12.2402 20 12.3674 20 12.5V19.5C20 19.6326 19.9473 19.7598 19.8536 19.8536C19.7598 19.9473 19.6326 20 19.5 20H12.5C12.3674 20 12.2402 19.9473 12.1464 19.8536C12.0527 19.7598 12 19.6326 12 19.5V18.5C12 18.3674 12.0527 18.2402 12.1464 18.1464C12.2402 18.0527 12.3674 18 12.5 18H16.586L10.646 12.06C10.5523 11.9662 10.4996 11.8391 10.4996 11.7065C10.4996 11.5739 10.5523 11.4468 10.646 11.353L11.353 10.646C11.4468 10.5523 11.5739 10.4996 11.7065 10.4996C11.8391 10.4996 11.9662 10.5523 12.06 10.646L18 16.586V12.5C18 12.3674 18.0527 12.2402 18.1464 12.1464C18.2402 12.0527 18.3674 12 18.5 12H19.5Z"/>
</svg>
