<svg viewBox="0 0 24 24" xmlns="http://www.w3.org/2000/svg">
<path fill-rule="evenodd" clip-rule="evenodd" d="M9.5 13.002C9.63261 13.002 9.75979 13.0547 9.85355 13.1484C9.94732 13.2422 10 13.3694 10 13.502V20.5C10 20.6326 9.94732 20.7598 9.85355 20.8536C9.75979 20.9473 9.63261 21 9.5 21H2.5C2.36739 21 2.24021 20.9473 2.14645 20.8536C2.05268 20.7598 2 20.6326 2 20.5V14C2 7.383 7.383 2 14 2H20.5C20.6326 2 20.7598 2.05268 20.8536 2.14645C20.9473 2.24021 21 2.36739 21 2.5V9.5C21 9.63261 20.9473 9.75979 20.8536 9.85355C20.7598 9.94732 20.6326 10 20.5 10H13.502C13.3694 10 13.2422 9.94732 13.1484 9.85355C13.0547 9.75979 13.002 9.63261 13.002 9.5V8.092C10.418 8.529 8.482 10.459 8.078 13.002H9.5ZM4 14V19.002L8 19V15H6V14C6 9.512 9.433 6.072 13.984 6C14.252 5.996 15 6 15 6V8H19V4H14C8.485 4 4 8.486 4 14ZM21.5 14C21.6326 14 21.7598 14.0527 21.8536 14.1464C21.9473 14.2402 22 14.3674 22 14.5V21.5C22 21.6326 21.9473 21.7598 21.8536 21.8536C21.7598 21.9473 21.6326 22 21.5 22H14.5C14.3674 22 14.2402 21.9473 14.1464 21.8536C14.0527 21.7598 14 21.6326 14 21.5V20.5C14 20.3674 14.0527 20.2402 14.1464 20.1464C14.2402 20.0527 14.3674 20 14.5 20H18.586L12.646 14.06C12.5523 13.9662 12.4996 13.8391 12.4996 13.7065C12.4996 13.5739 12.5523 13.4468 12.646 13.353L13.353 12.646C13.4468 12.5523 13.5739 12.4996 13.7065 12.4996C13.8391 12.4996 13.9662 12.5523 14.06 12.646L20 18.586V14.5C20 14.3674 20.0527 14.2402 20.1464 14.1464C20.2402 14.0527 20.3674 14 20.5 14H21.5Z" />
</svg>
