<svg viewBox="0 0 14 22" xmlns="http://www.w3.org/2000/svg">
<path fill-rule="evenodd" clip-rule="evenodd" d="M2 0C0.895431 0 0 0.89543 0 2V20C0 21.1046 0.89543 22 2 22H12C13.1046 22 14 21.1046 14 20V2C14 0.895431 13.1046 0 12 0H2ZM2.5 3C2.22386 3 2 3.22386 2 3.5V17.5C2 17.7761 2.22386 18 2.5 18H11.5C11.7761 18 12 17.7761 12 17.5V3.5C12 3.22386 11.7761 3 11.5 3H2.5ZM6 1.75C6 1.61193 6.11193 1.5 6.25 1.5H7.75C7.88807 1.5 8 1.61193 8 1.75C8 1.88807 7.88807 2 7.75 2H6.25C6.11193 2 6 1.88807 6 1.75ZM7 19C6.44772 19 6 19.4477 6 20C6 20.5523 6.44772 21 7 21C7.55228 21 8 20.5523 8 20C8 19.4477 7.55228 19 7 19Z"/>
</svg>
