<svg aria-label="placeholder icon" viewBox="0 0 24 24" xmlns="http://www.w3.org/2000/svg">
<path d="M14 12C14 13.1046 13.1046 14 12 14C10.8954 14 10 13.1046 10 12C10 10.8954 10.8954 10 12 10C13.1046 10 14 10.8954 14 12Z" />
<path d="M8 3H4C3.44772 3 3 3.44772 3 4V8H5V5H8V3Z" />
<path d="M10 5V3H14V5H10Z" />
<path d="M19 8V5H16V3H20C20.5523 3 21 3.44772 21 4V8H19Z" />
<path d="M19 14V10H21V14H19Z" />
<path d="M16 19H19V16H21V20C21 20.5523 20.5523 21 20 21H16V19Z" />
<path d="M10 19H14V21H10V19Z" />
<path d="M5 16V19H8V21H4C3.44772 21 3 20.5523 3 20V16H5Z" />
<path d="M5 10V14H3V10H5Z" />
</svg>
