<svg viewBox="0 0 24 24" xmlns="http://www.w3.org/2000/svg">
<path d="M17 3H15V5H17V3ZM13 3V5H11V3H13ZM9 3V5H7V3H9ZM5 3V5H3V3.9C3 3.66131 3.09482 3.43239 3.2636 3.2636C3.43239 3.09482 3.66131 3 3.9 3H5ZM3 9V7H5V9H3ZM3 11V13H5V11H3ZM3 17V15H5V17H3ZM3 19V20.1C3 20.3387 3.09482 20.5676 3.2636 20.7364C3.43239 20.9052 3.66131 21 3.9 21H5V19H3ZM7 19V21H9V19H7ZM11 19V21H13V19H11ZM15 19V21H17V19H15ZM19 19V21H20.1C20.3387 21 20.5676 20.9052 20.7364 20.7364C20.9052 20.5676 21 20.3387 21 20.1V19H19ZM21 15H19V17H21V15ZM21 11V13H19V11H21ZM21 9V7H19V9H21ZM21 3.9V5H19V3H20.1C20.3387 3 20.5676 3.09482 20.7364 3.2636C20.9052 3.43239 21 3.66131 21 3.9ZM11 8.5C11 8.36739 11.0527 8.24021 11.1464 8.14645C11.2402 8.05268 11.3674 8 11.5 8H12.5C12.6326 8 12.7598 8.05268 12.8536 8.14645C12.9473 8.24021 13 8.36739 13 8.5V11H15.5C15.6326 11 15.7598 11.0527 15.8536 11.1464C15.9473 11.2402 16 11.3674 16 11.5V12.5C16 12.6326 15.9473 12.7598 15.8536 12.8536C15.7598 12.9473 15.6326 13 15.5 13H13V15.5C13 15.6326 12.9473 15.7598 12.8536 15.8536C12.7598 15.9473 12.6326 16 12.5 16H11.5C11.3674 16 11.2402 15.9473 11.1464 15.8536C11.0527 15.7598 11 15.6326 11 15.5V13H8.5C8.36739 13 8.24021 12.9473 8.14645 12.8536C8.05268 12.7598 8 12.6326 8 12.5V11.5C8 11.3674 8.05268 11.2402 8.14645 11.1464C8.24021 11.0527 8.36739 11 8.5 11H11V8.5Z" />
</svg>
