<svg viewBox="0 0 18 18" xmlns="http://www.w3.org/2000/svg">
<path d="M14 0H12V2H14V0ZM10 0V2H8V0H10ZM6 0V2H4V0H6ZM2 0V2H0V0.9C0 0.661305 0.0948212 0.432387 0.263604 0.263604C0.432387 0.0948212 0.661305 0 0.9 0H2ZM0 6V4H2V6H0ZM0 8V10H2V8H0ZM0 14V12H2V14H0ZM0 16V17.1C0 17.3387 0.0948212 17.5676 0.263604 17.7364C0.432387 17.9052 0.661305 18 0.9 18H2V16H0ZM4 16V18H6V16H4ZM8 16V18H10V16H8ZM12 16V18H14V16H12ZM16 16V18H17.1C17.3387 18 17.5676 17.9052 17.7364 17.7364C17.9052 17.5676 18 17.3387 18 17.1V16H16ZM18 12H16V14H18V12ZM18 8V10H16V8H18ZM18 6V4H16V6H18ZM18 0.9V2H16V0H17.1C17.3387 0 17.5676 0.0948212 17.7364 0.263604C17.9052 0.432387 18 0.661305 18 0.9V0.9ZM8 5.5C8 5.36739 8.05268 5.24021 8.14645 5.14645C8.24021 5.05268 8.36739 5 8.5 5H9.5C9.63261 5 9.75979 5.05268 9.85355 5.14645C9.94732 5.24021 10 5.36739 10 5.5V8H12.5C12.6326 8 12.7598 8.05268 12.8536 8.14645C12.9473 8.24021 13 8.36739 13 8.5V9.5C13 9.63261 12.9473 9.75979 12.8536 9.85355C12.7598 9.94732 12.6326 10 12.5 10H10V12.5C10 12.6326 9.94732 12.7598 9.85355 12.8536C9.75979 12.9473 9.63261 13 9.5 13H8.5C8.36739 13 8.24021 12.9473 8.14645 12.8536C8.05268 12.7598 8 12.6326 8 12.5V10H5.5C5.36739 10 5.24021 9.94732 5.14645 9.85355C5.05268 9.75979 5 9.63261 5 9.5V8.5C5 8.36739 5.05268 8.24021 5.14645 8.14645C5.24021 8.05268 5.36739 8 5.5 8H8V5.5Z"/>
</svg>
