<svg aria-label="placeholder icon" viewBox="0 0 24 24" xmlns="http://www.w3.org/2000/svg">
<path d="M5.67126 4.25707C7.15284 3.04465 8.98877 2.24906 11 2.04938V4.0619C9.53929 4.24404 8.20087 4.82 7.09434 5.68016L5.67126 4.25707Z" />
<path d="M13 2.04938V4.0619C14.4607 4.24405 15.7992 4.82001 16.9057 5.68018L18.3288 4.25709C16.8472 3.04465 15.0112 2.24907 13 2.04938Z" />
<path d="M18.3199 7.0944C19.18 8.20092 19.756 9.53933 19.9381 11H21.9506C21.751 8.98881 20.9554 7.15289 19.743 5.67131L18.3199 7.0944Z" />
<path d="M19.9381 13C19.756 14.4607 19.18 15.7991 18.3198 16.9057L19.7429 18.3288C20.9554 16.8472 21.7509 15.0113 21.9506 13H19.9381Z" />
<path d="M16.9056 18.3199C15.7991 19.18 14.4607 19.756 13 19.9381V21.9506C15.0112 21.7509 16.8471 20.9554 18.3287 19.743L16.9056 18.3199Z" />
<path d="M11 19.9381C9.53931 19.756 8.20092 19.18 7.0944 18.3199L5.67131 19.743C7.15289 20.9554 8.9888 21.7509 11 21.9506V19.9381Z" />
<path d="M5.68018 16.9057C4.82001 15.7992 4.24406 14.4607 4.0619 13H2.04938C2.24908 15.0113 3.04466 16.8472 4.25709 18.3288L5.68018 16.9057Z" />
<path d="M4.0619 11C4.24404 9.53932 4.81998 8.2009 5.68013 7.09438L4.25705 5.67129C3.04463 7.15287 2.24906 8.9888 2.04938 11H4.0619Z" />
<path d="M12 14C13.1046 14 14 13.1046 14 12C14 10.8954 13.1046 10 12 10C10.8954 10 10 10.8954 10 12C10 13.1046 10.8954 14 12 14Z" />
</svg>
