<svg viewBox="0 0 24 24" xmlns="http://www.w3.org/2000/svg">
<path fill-rule="evenodd" clip-rule="evenodd" d="M2 12C2 17.5228 6.47717 22 12 22C17.5228 22 22 17.5228 22 12C22 6.47717 17.5228 2 12 2C6.47717 2 2 6.47717 2 12ZM12 7C9.23853 7 7 9.23853 7 12C7 12.6449 7.12207 13.2612 7.34436 13.8271L5.10767 16.064C4.40381 14.8729 4 13.4836 4 12C4 7.58167 7.58167 4 12 4C16.4183 4 20 7.58167 20 12C20 16.4183 16.4183 20 12 20C10.5164 20 9.12708 19.5962 7.93604 18.8923L10.1729 16.6556C10.7388 16.8779 11.3551 17 12 17C14.7615 17 17 14.7615 17 12C17 11.4858 16.9224 10.9899 16.7783 10.5231C16.7279 10.3599 16.5199 10.3157 16.399 10.4365L13.4185 13.4172L10.59 10.5887L13.5803 7.59851C13.6982 7.48047 13.6555 7.27759 13.4962 7.22778C13.0238 7.07971 12.5212 7 12 7Z" />
</svg>
