<svg viewBox="0 0 20 20" xmlns="http://www.w3.org/2000/svg">
<path fill-rule="evenodd" clip-rule="evenodd" d="M0 10C0 15.5228 4.47717 20 10 20C15.5228 20 20 15.5228 20 10C20 4.47717 15.5228 0 10 0C4.47717 0 0 4.47717 0 10ZM10 5C7.23853 5 5 7.23853 5 10C5 10.6449 5.12207 11.2612 5.34436 11.8271L3.10767 14.064C2.40381 12.8729 2 11.4836 2 10C2 5.58167 5.58167 2 10 2C14.4183 2 18 5.58167 18 10C18 14.4183 14.4183 18 10 18C8.51636 18 7.12708 17.5962 5.93604 16.8923L8.17285 14.6556C8.73877 14.8779 9.3551 15 10 15C12.7615 15 15 12.7615 15 10C15 9.48584 14.9224 8.98987 14.7783 8.52307C14.7279 8.35986 14.5199 8.31567 14.399 8.43652L11.4185 11.4172L8.58997 8.58875L11.5803 5.59851C11.6982 5.48047 11.6555 5.27759 11.4962 5.22778C11.0238 5.07971 10.5212 5 10 5Z"/>
</svg>
