<svg aria-label="Q and A" viewBox="0 0 24 24" xmlns="http://www.w3.org/2000/svg">
<path d="M10.091 11.057C10.1343 11.0214 10.1897 11 10.25 11H18.75C18.888 11 19 11.1119 19 11.25V12.75C19 12.8881 18.888 13 18.75 13H10.25C10.1119 13 9.99998 12.8881 9.99998 12.75V11.25C9.99998 11.1722 10.0354 11.1028 10.091 11.057Z" />
<path d="M10.25 14C10.1119 14 9.99998 14.1119 9.99998 14.25V15.75C9.99998 15.8225 10.0307 15.8877 10.0801 15.9333C10.1247 15.9747 10.1844 16 10.25 16H16.75C16.888 16 17 15.8881 17 15.75V14.25C17 14.1746 16.9665 14.1069 16.9137 14.0612C16.8699 14.0231 16.8126 14 16.75 14H10.25Z" />
<path fill-rule="evenodd" clip-rule="evenodd" d="M20 7H22C22.5523 7 23 7.44772 23 8V22.1169C23 22.5055 22.576 22.7456 22.2428 22.5457L18 20H6.99995C6.44766 20 5.99995 19.5523 5.99995 19L5.99998 17H1.99994C1.44766 17 0.99994 16.5523 0.999942 16L0.999977 3C0.999978 2.44771 1.44769 2 1.99998 2H19C19.5523 2 20 2.44772 20 3V7ZM17.9997 7L17.9996 6.1178C17.9995 5.41187 17.9994 4.70593 18 4H2.99998V15.0033H5.99998L5.99994 8.00001C5.99994 7.44772 6.44766 7 6.99994 7H17.9997ZM7.99998 9V18H18.5L21 19.5V9H7.99998Z" />
</svg>
