<svg aria-label="Q and A" viewBox="0 0 22 21" xmlns="http://www.w3.org/2000/svg">
<path d="M9.09107 9.05701C9.13428 9.02136 9.1897 9 9.25 9H17.75C17.8881 9 18 9.11194 18 9.25V10.75C18 10.8881 17.8881 11 17.75 11H9.25C9.11194 11 9 10.8881 9 10.75V9.25C9 9.17224 9.0354 9.10278 9.09107 9.05701Z"/>
<path d="M9.25 12C9.11194 12 9 12.1119 9 12.25V13.75C9 13.8225 9.03076 13.8877 9.08008 13.9333C9.12476 13.9747 9.18445 14 9.25 14H15.75C15.8881 14 16 13.8881 16 13.75V12.25C16 12.1746 15.9666 12.1069 15.9137 12.0612C15.8699 12.0231 15.8126 12 15.75 12H9.25Z"/>
<path fill-rule="evenodd" clip-rule="evenodd" d="M19 5H21C21.5523 5 22 5.44772 22 6V20.1169C22 20.5055 21.576 20.7456 21.2428 20.5457L17 18H5.99997C5.44768 18 4.99997 17.5523 4.99997 17L5 15H0.999963C0.447677 15 -3.88399e-05 14.5523 -3.73418e-05 14L-2.0792e-06 0.999997C-5.81127e-07 0.447714 0.447715 0 0.999999 0H18C18.5523 0 19 0.447715 19 1V5ZM16.9998 5L16.9996 4.1178C16.9995 3.41187 16.9994 2.70593 17 2H2V13.0033H5L4.99997 6.00001C4.99996 5.44772 5.44768 5 5.99997 5H16.9998ZM7 7V16H17.5L20 17.5V7H7Z"/>
</svg>
