<svg aria-label="bar and line chart" viewBox="0 0 24 21" xmlns="http://www.w3.org/2000/svg">
<path fill-rule="evenodd" clip-rule="evenodd" d="M5.99902 6.724C5.70398 6.896 5.36499 7 5 7C3.896 7 3 6.104 3 5C3 3.896 3.896 3 5 3C6.10205 3 6.99402 3.89099 6.99902 4.99194L11.001 7.27795C11.296 7.10596 11.635 7 12 7C12.178 7 12.347 7.03101 12.511 7.07397L17.074 2.51196C17.031 2.349 17 2.17896 17 2C17 0.895996 17.896 0 19 0C20.104 0 21 0.895996 21 2C21 3.104 20.104 4 19 4C18.822 4 18.652 3.97095 18.488 3.927L13.926 8.48901C13.969 8.65405 14 8.82202 14 9C14 10.104 13.104 11 12 11C10.8979 11 10.006 10.11 10.001 9.01001L5.99902 6.724ZM22 9V19H24V21H0V19H2V11C2 10.449 2.448 10 3 10H7C7.552 10 8 10.449 8 11V19H9V14C9 13.449 9.448 13 10 13H14C14.552 13 15 13.449 15 14V19H16V9C16 8.44897 16.448 8 17 8H21C21.552 8 22 8.44897 22 9ZM4 19H6V12H4V19ZM13 19V15H11V19H13ZM18 19H20V10H18V19Z"/>
</svg>
