<svg viewBox="0 0 24 24" xmlns="http://www.w3.org/2000/svg">
<path d="M12.839 11.456C13.066 11.3952 13.3073 11.4162 13.5203 11.5155C13.7333 11.6148 13.9046 11.786 14.004 11.999L17.808 20.156C17.8635 20.275 17.895 20.4038 17.9007 20.5351C17.9064 20.6663 17.8862 20.7973 17.8412 20.9207C17.7963 21.0441 17.7275 21.1575 17.6387 21.2543C17.55 21.3511 17.443 21.4295 17.324 21.485C17.205 21.5405 17.0762 21.572 16.9449 21.5777C16.8137 21.5834 16.6827 21.5632 16.5593 21.5182C16.4359 21.4733 16.3225 21.4045 16.2257 21.3157C16.1289 21.227 16.0505 21.12 15.995 21.001L13 14.577V21C13 21.2652 12.8946 21.5196 12.7071 21.7071C12.5196 21.8946 12.2652 22 12 22C11.7348 22 11.4804 21.8946 11.2929 21.7071C11.1054 21.5196 11 21.2652 11 21V14.577L8.005 21.001C7.89295 21.2414 7.68998 21.4275 7.44074 21.5182C7.1915 21.609 6.91642 21.5971 6.676 21.485C6.43558 21.3729 6.24952 21.17 6.15876 20.9207C6.06799 20.6715 6.07995 20.3964 6.192 20.156L9.995 11.999C10.0944 11.7858 10.2659 11.6145 10.4791 11.5152C10.6924 11.4158 10.9338 11.3949 11.161 11.456C11.2516 11.3159 11.3758 11.2006 11.5224 11.1209C11.6689 11.0411 11.8331 10.9993 12 10.9993C12.1669 10.9993 12.3311 11.0411 12.4776 11.1209C12.6242 11.2006 12.7484 11.3159 12.839 11.456ZM11 10H19V6H11V10ZM10 4H20C20.2652 4 20.5196 4.10536 20.7071 4.29289C20.8946 4.48043 21 4.73478 21 5V11C21 11.2652 20.8946 11.5196 20.7071 11.7071C20.5196 11.8946 20.2652 12 20 12H10C9.73478 12 9.48043 11.8946 9.29289 11.7071C9.10536 11.5196 9 11.2652 9 11V5C9 4.73478 9.10536 4.48043 9.29289 4.29289C9.48043 4.10536 9.73478 4 10 4ZM8 9H9V7H8V9ZM7 5H10C10.2652 5 10.5196 5.10536 10.7071 5.29289C10.8946 5.48043 11 5.73478 11 6V10C11 10.2652 10.8946 10.5196 10.7071 10.7071C10.5196 10.8946 10.2652 11 10 11H7C6.73478 11 6.48043 10.8946 6.29289 10.7071C6.10536 10.5196 6 10.2652 6 10V6C6 5.73478 6.10536 5.48043 6.29289 5.29289C6.48043 5.10536 6.73478 5 7 5ZM5 6H6C6.26522 6 6.51957 6.10536 6.70711 6.29289C6.89464 6.48043 7 6.73478 7 7V9C7 9.26522 6.89464 9.51957 6.70711 9.70711C6.51957 9.89464 6.26522 10 6 10H5C4.73478 10 4.48043 9.89464 4.29289 9.70711C4.10536 9.51957 4 9.26522 4 9V7C4 6.73478 4.10536 6.48043 4.29289 6.29289C4.48043 6.10536 4.73478 6 5 6Z" />
</svg>
