<svg viewBox="0 0 17 18" xmlns="http://www.w3.org/2000/svg">
<path d="M8.839 7.456C9.06604 7.39516 9.30725 7.41624 9.52029 7.51554C9.73334 7.61484 9.90459 7.78601 10.004 7.999L13.808 16.156C13.8635 16.275 13.895 16.4038 13.9007 16.5351C13.9064 16.6663 13.8862 16.7973 13.8412 16.9207C13.7963 17.0441 13.7275 17.1575 13.6387 17.2543C13.55 17.3511 13.443 17.4295 13.324 17.485C13.205 17.5405 13.0762 17.572 12.9449 17.5777C12.8137 17.5834 12.6827 17.5632 12.5593 17.5182C12.4359 17.4733 12.3225 17.4045 12.2257 17.3157C12.1289 17.227 12.0505 17.12 11.995 17.001L9 10.577V17C9 17.2652 8.89464 17.5196 8.70711 17.7071C8.51957 17.8946 8.26522 18 8 18C7.73478 18 7.48043 17.8946 7.29289 17.7071C7.10536 17.5196 7 17.2652 7 17V10.577L4.005 17.001C3.89295 17.2414 3.68998 17.4275 3.44074 17.5182C3.1915 17.609 2.91642 17.5971 2.676 17.485C2.43558 17.3729 2.24952 17.17 2.15876 16.9207C2.06799 16.6715 2.07995 16.3964 2.192 16.156L5.995 7.999C6.09444 7.7858 6.26586 7.61448 6.47912 7.51516C6.69238 7.41585 6.93382 7.3949 7.161 7.456C7.25158 7.31586 7.37582 7.20064 7.52238 7.12087C7.66893 7.04109 7.83314 6.99929 8 6.99929C8.16686 6.99929 8.33107 7.04109 8.47762 7.12087C8.62418 7.20064 8.74842 7.31586 8.839 7.456V7.456ZM7 6H15V2H7V6ZM6 0H16C16.2652 0 16.5196 0.105357 16.7071 0.292893C16.8946 0.48043 17 0.734784 17 1V7C17 7.26522 16.8946 7.51957 16.7071 7.70711C16.5196 7.89464 16.2652 8 16 8H6C5.73478 8 5.48043 7.89464 5.29289 7.70711C5.10536 7.51957 5 7.26522 5 7V1C5 0.734784 5.10536 0.48043 5.29289 0.292893C5.48043 0.105357 5.73478 0 6 0V0ZM4 5H5V3H4V5ZM3 1H6C6.26522 1 6.51957 1.10536 6.70711 1.29289C6.89464 1.48043 7 1.73478 7 2V6C7 6.26522 6.89464 6.51957 6.70711 6.70711C6.51957 6.89464 6.26522 7 6 7H3C2.73478 7 2.48043 6.89464 2.29289 6.70711C2.10536 6.51957 2 6.26522 2 6V2C2 1.73478 2.10536 1.48043 2.29289 1.29289C2.48043 1.10536 2.73478 1 3 1V1ZM1 2H2C2.26522 2 2.51957 2.10536 2.70711 2.29289C2.89464 2.48043 3 2.73478 3 3V5C3 5.26522 2.89464 5.51957 2.70711 5.70711C2.51957 5.89464 2.26522 6 2 6H1C0.734784 6 0.48043 5.89464 0.292893 5.70711C0.105357 5.51957 0 5.26522 0 5V3C0 2.73478 0.105357 2.48043 0.292893 2.29289C0.48043 2.10536 0.734784 2 1 2V2Z"/>
</svg>
