<svg viewBox="0 0 24 24" xmlns="http://www.w3.org/2000/svg">
<path d="M9.14956 12.7299L11.2696 14.8499C11.3148 14.9018 11.3705 14.9436 11.433 14.9726C11.4955 15.0016 11.5634 15.017 11.6323 15.018C11.7012 15.0189 11.7695 15.0053 11.8328 14.9781C11.8961 14.9508 11.9529 14.9105 11.9996 14.8599L15.5096 11.3299C15.5564 11.2834 15.5936 11.2281 15.619 11.1671C15.6444 11.1062 15.6575 11.0409 15.6575 10.9749C15.6575 10.9088 15.6444 10.8435 15.619 10.7826C15.5936 10.7216 15.5564 10.6663 15.5096 10.6199L14.8096 9.89985C14.7631 9.85299 14.7078 9.81579 14.6469 9.79041C14.5859 9.76502 14.5206 9.75195 14.4546 9.75195C14.3886 9.75195 14.3232 9.76502 14.2623 9.79041C14.2013 9.81579 14.146 9.85299 14.0996 9.89985L11.5596 12.3199L10.5596 11.3199C10.5131 11.273 10.4578 11.2358 10.3969 11.2104C10.3359 11.185 10.2706 11.172 10.2046 11.172C10.1386 11.172 10.0732 11.185 10.0123 11.2104C9.95135 11.2358 9.89605 11.273 9.84957 11.3199L9.14956 12.0299C9.10173 12.0747 9.06361 12.129 9.03755 12.1892C9.01149 12.2494 8.99805 12.3143 8.99805 12.3799C8.99805 12.4454 9.01149 12.5103 9.03755 12.5705C9.06361 12.6307 9.10173 12.685 9.14956 12.7299Z" />
<path fill-rule="evenodd" clip-rule="evenodd" d="M16 5C17.3517 4.93409 18.6293 4.36308 19.58 3.4C19.6155 3.36711 19.6597 3.3452 19.7074 3.33695C19.755 3.3287 19.804 3.33444 19.8485 3.3535C19.893 3.37255 19.9309 3.40409 19.9578 3.44429C19.9847 3.4845 19.9994 3.53164 20 3.58V11C19.55 16.86 16.36 19.6 12 21C7.64 19.6 4.45 16.86 4 11V3.58C4.00064 3.53164 4.01529 3.4845 4.04218 3.44429C4.06907 3.40409 4.10704 3.37255 4.1515 3.3535C4.19596 3.33444 4.24498 3.3287 4.29264 3.33695C4.3403 3.3452 4.38454 3.36711 4.42 3.4C5.37069 4.36308 6.64834 4.93409 8 5C8.76616 4.94904 9.51448 4.74593 10.2013 4.40253C10.8881 4.05914 11.4995 3.58235 12 3C12.5005 3.58235 13.1119 4.05914 13.7987 4.40253C14.4855 4.74593 15.2338 4.94904 16 5ZM12 18.92C15.85 17.47 17.66 15.06 18 10.92V6.66C17.3575 6.88603 16.6811 7.00101 16 7C14.5541 6.97572 13.1533 6.49245 12 5.62C10.8467 6.49245 9.44592 6.97572 8 7C7.31887 7.00101 6.64254 6.88603 6 6.66V10.92C6.34 15.09 8.15 17.5 12 18.92Z" />
</svg>
