<svg viewBox="0 0 24 24" xmlns="http://www.w3.org/2000/svg">
<path fill-rule="evenodd" clip-rule="evenodd" d="M14 5V9H16V4C16 3.44772 15.5522 3 15 3H5C4.44775 3 4 3.44772 4 4V20C4 20.5523 4.44775 21 5 21H15C15.5522 21 16 20.5523 16 20V15H14V19H6V5H14ZM18.0314 7.65755L17.3459 8.35709C17.1555 8.55148 17.1555 8.86252 17.3459 9.05692L19.2496 11H10.5C10.2239 11 10 11.2239 10 11.5V12.5C10 12.7761 10.2239 13 10.5 13H19.2496L17.3459 14.9431C17.1555 15.1375 17.1555 15.4485 17.3459 15.6429L18.0386 16.3497C18.2358 16.5429 18.5524 16.5397 18.7456 16.3425L22.6572 12.3499C22.8477 12.1555 22.8477 11.8445 22.6572 11.6501L18.7384 7.6503C18.5411 7.45705 18.2246 7.4603 18.0314 7.65755Z" />
</svg>
