<svg viewBox="0 0 19 18" xmlns="http://www.w3.org/2000/svg">
<path fill-rule="evenodd" clip-rule="evenodd" d="M10 2V6H12V1C12 0.447716 11.5522 0 11 0H1C0.447754 0 0 0.447716 0 1V17C0 17.5523 0.447754 18 1 18H11C11.5522 18 12 17.5523 12 17V12H10V16H2V2H10ZM14.0314 4.65755L13.3459 5.35709C13.1555 5.55148 13.1555 5.86252 13.3459 6.05692L15.2496 8H6.5C6.22388 8 6 8.22386 6 8.5V9.5C6 9.77614 6.22388 10 6.5 10H15.2496L13.3459 11.9431C13.1555 12.1375 13.1555 12.4485 13.3459 12.6429L14.0386 13.3497C14.2358 13.5429 14.5524 13.5397 14.7456 13.3425L18.6572 9.34991C18.8477 9.15552 18.8477 8.84448 18.6572 8.65009L14.7384 4.6503C14.5411 4.45705 14.2246 4.4603 14.0314 4.65755Z"/>
</svg>
