<svg viewBox="0 0 24 24" xmlns="http://www.w3.org/2000/svg">
<g>
<path d="M12 6.97501C9.243 6.97501 7 9.21801 7 11.975C7 14.732 9.243 16.975 12 16.975C14.757 16.975 17 14.732 17 11.975C17 9.21801 14.757 6.97501 12 6.97501ZM12 14.975C10.346 14.975 9 13.629 9 11.975C9 10.321 10.346 8.97501 12 8.97501C13.654 8.97501 15 10.321 15 11.975C15 13.629 13.654 14.975 12 14.975Z" fill="black"/>
<path d="M13 1.97501H11V4.97501H13V1.97501Z" />
<path d="M19.7783 5.61089L18.3641 4.19669L16.2414 6.3194L17.6556 7.7336L19.7783 5.61089Z" />
<path d="M22 10.975H19V12.975H22V10.975Z" />
<path d="M16.242 17.6291L18.3653 19.7515L19.7793 18.3369L17.656 16.2145L16.242 17.6291Z" />
<path d="M13 18.975H11V21.975H13V18.975Z" />
<path d="M4.22212 18.3383L5.63632 19.7525L7.75762 17.6312L6.34342 16.217L4.22212 18.3383Z" />
<path d="M5 10.975H2V12.975H5V10.975Z" />
<path d="M7.75738 6.31914L5.63638 4.19724L4.22178 5.61124L6.34278 7.73314L7.75738 6.31914Z" />
</g>
</svg>
