<svg viewBox="0 0 20 20" xmlns="http://www.w3.org/2000/svg">
<path d="M3.43167 14.5683L5.14645 12.8536C5.46143 12.5386 5.23835 12 4.79289 12H0.5C0.223858 12 0 12.2239 0 12.5V16.7929C0 17.2383 0.538571 17.4614 0.853553 17.1464L1.99953 16.0005C3.82396 18.4291 6.72848 20 9.9999 20C13.6087 20 16.7711 18.0883 18.5295 15.2224C18.674 14.9869 18.5838 14.6821 18.3412 14.5498L17.463 14.0708C17.2207 13.9386 16.9185 14.0287 16.7712 14.2621C15.3546 16.508 12.8515 18 9.9999 18C7.27998 18 4.87709 16.6426 3.43167 14.5683Z"/>
<path d="M1.4703 4.77753C1.32579 5.01305 1.41608 5.31786 1.65866 5.45018L2.53688 5.92921C2.77915 6.06136 3.08138 5.97123 3.22861 5.73782C4.64524 3.49194 7.14834 2 9.9999 2C12.7199 2 15.1228 3.35742 16.5682 5.43179L14.8536 7.14645C14.5386 7.46143 14.7617 8 15.2071 8H19.5C19.7761 8 20 7.77614 20 7.5V3.20711C20 2.76165 19.4614 2.53857 19.1464 2.85355L18.0004 3.99964C16.1759 1.57095 13.2714 0 9.9999 0C6.39109 0 3.22876 1.91164 1.4703 4.77753Z"/>
</svg>
