<svg viewBox="0 0 21 18" xmlns="http://www.w3.org/2000/svg">
<path fill-rule="evenodd" clip-rule="evenodd" d="M13.405 16.112C13.4987 16.0182 13.5514 15.8911 13.5514 15.7585C13.5514 15.6259 13.4987 15.4988 13.405 15.405L12.604 14.604C12.5576 14.5574 12.5024 14.5205 12.4416 14.4953C12.3809 14.4701 12.3158 14.4571 12.25 14.4571C12.1842 14.4571 12.1191 14.4701 12.0584 14.4953C11.9976 14.5205 11.9424 14.5574 11.896 14.604L11 15.5L2.004 6.603L2 2H6.602L11.915 7.374C11.9613 7.42084 12.0165 7.45807 12.0772 7.48354C12.138 7.509 12.2032 7.52221 12.2691 7.5224C12.335 7.52258 12.4002 7.50974 12.4612 7.48462C12.5221 7.4595 12.5774 7.42258 12.624 7.376L13.319 6.681C13.4127 6.58724 13.4654 6.46008 13.4654 6.3275C13.4654 6.19492 13.4127 6.06776 13.319 5.974L7.652 0.304C7.55561 0.207614 7.44118 0.131158 7.31524 0.0789979C7.1893 0.0268374 7.05431 -6.08215e-06 6.918 1.03364e-09H1.038C0.762522 0.000529768 0.498507 0.110335 0.303902 0.305315C0.109296 0.500296 -5.0939e-07 0.764521 0 1.04L0.00600004 6.92C0.00600004 7.195 0.116 7.459 0.31 7.653L10.353 17.696C10.5478 17.8907 10.812 18.0001 11.0875 18.0001C11.363 18.0001 11.6272 17.8907 11.822 17.696L13.405 16.112Z"/>
<path fill-rule="evenodd" clip-rule="evenodd" d="M4.615 6.115C5.01282 6.115 5.39436 5.95696 5.67566 5.67566C5.95696 5.39436 6.115 5.01282 6.115 4.615C6.115 4.21718 5.95696 3.83564 5.67566 3.55434C5.39436 3.27304 5.01282 3.115 4.615 3.115C4.21718 3.115 3.83564 3.27304 3.55434 3.55434C3.27304 3.83564 3.115 4.21718 3.115 4.615C3.115 5.01282 3.27304 5.39436 3.55434 5.67566C3.83564 5.95696 4.21718 6.115 4.615 6.115ZM15 6.5C15 6.36739 15.0527 6.24021 15.1464 6.14645C15.2402 6.05268 15.3674 6 15.5 6H16.5C16.6326 6 16.7598 6.05268 16.8536 6.14645C16.9473 6.24021 17 6.36739 17 6.5V10H20.5C20.6326 10 20.7598 10.0527 20.8536 10.1464C20.9473 10.2402 21 10.3674 21 10.5V11.5C21 11.6326 20.9473 11.7598 20.8536 11.8536C20.7598 11.9473 20.6326 12 20.5 12H17V15.5C17 15.6326 16.9473 15.7598 16.8536 15.8536C16.7598 15.9473 16.6326 16 16.5 16H15.5C15.3674 16 15.2402 15.9473 15.1464 15.8536C15.0527 15.7598 15 15.6326 15 15.5V12H11.5C11.3674 12 11.2402 11.9473 11.1464 11.8536C11.0527 11.7598 11 11.6326 11 11.5V10.5C11 10.3674 11.0527 10.2402 11.1464 10.1464C11.2402 10.0527 11.3674 10 11.5 10H15V6.5Z"/>
</svg>
