<svg viewBox="0 0 24 24" xmlns="http://www.w3.org/2000/svg">
<path fill-rule="evenodd" clip-rule="evenodd" d="M14.405 19.112C14.4987 19.0182 14.5514 18.8911 14.5514 18.7585C14.5514 18.6259 14.4987 18.4988 14.405 18.405L13.604 17.604C13.5576 17.5574 13.5024 17.5205 13.4416 17.4953C13.3809 17.4701 13.3158 17.4571 13.25 17.4571C13.1842 17.4571 13.1191 17.4701 13.0584 17.4953C12.9976 17.5205 12.9424 17.5574 12.896 17.604L12 18.5L3.004 9.603L3 5H7.602L12.915 10.374C12.9613 10.4208 13.0165 10.4581 13.0772 10.4835C13.138 10.509 13.2032 10.5222 13.2691 10.5224C13.335 10.5226 13.4002 10.5097 13.4612 10.4846C13.5221 10.4595 13.5774 10.4226 13.624 10.376L14.319 9.681C14.4127 9.58724 14.4654 9.46008 14.4654 9.3275C14.4654 9.19492 14.4127 9.06776 14.319 8.974L8.652 3.304C8.55561 3.20761 8.44117 3.13116 8.31524 3.079C8.1893 3.02684 8.05431 2.99999 7.918 3H2.038C1.76252 3.00053 1.49851 3.11033 1.3039 3.30532C1.1093 3.5003 0.999999 3.76452 1 4.04L1.006 9.92C1.006 10.195 1.116 10.459 1.31 10.653L11.353 20.696C11.5478 20.8907 11.812 21.0001 12.0875 21.0001C12.363 21.0001 12.6272 20.8907 12.822 20.696L14.405 19.112Z" />
<path fill-rule="evenodd" clip-rule="evenodd" d="M5.615 9.115C6.01282 9.115 6.39436 8.95696 6.67566 8.67566C6.95696 8.39436 7.115 8.01282 7.115 7.615C7.115 7.21718 6.95696 6.83564 6.67566 6.55434C6.39436 6.27304 6.01282 6.115 5.615 6.115C5.21718 6.115 4.83564 6.27304 4.55434 6.55434C4.27304 6.83564 4.115 7.21718 4.115 7.615C4.115 8.01282 4.27304 8.39436 4.55434 8.67566C4.83564 8.95696 5.21718 9.115 5.615 9.115ZM16 9.5C16 9.36739 16.0527 9.24021 16.1464 9.14645C16.2402 9.05268 16.3674 9 16.5 9H17.5C17.6326 9 17.7598 9.05268 17.8536 9.14645C17.9473 9.24021 18 9.36739 18 9.5V13H21.5C21.6326 13 21.7598 13.0527 21.8536 13.1464C21.9473 13.2402 22 13.3674 22 13.5V14.5C22 14.6326 21.9473 14.7598 21.8536 14.8536C21.7598 14.9473 21.6326 15 21.5 15H18V18.5C18 18.6326 17.9473 18.7598 17.8536 18.8536C17.7598 18.9473 17.6326 19 17.5 19H16.5C16.3674 19 16.2402 18.9473 16.1464 18.8536C16.0527 18.7598 16 18.6326 16 18.5V15H12.5C12.3674 15 12.2402 14.9473 12.1464 14.8536C12.0527 14.7598 12 14.6326 12 14.5V13.5C12 13.3674 12.0527 13.2402 12.1464 13.1464C12.2402 13.0527 12.3674 13 12.5 13H16V9.5Z" />
</svg>
