<svg viewBox="0 0 24 24" xmlns="http://www.w3.org/2000/svg">
<path d="M9.11539 7.61538C9.11539 8.44381 8.44381 9.11538 7.61539 9.11538C6.78696 9.11538 6.11539 8.44381 6.11539 7.61538C6.11539 6.78696 6.78696 6.11538 7.61539 6.11538C8.44381 6.11538 9.11539 6.78696 9.11539 7.61538Z" />
<path fill-rule="evenodd" clip-rule="evenodd" d="M20.6958 14.8223L14.8215 20.6958C14.416 21.1013 13.7585 21.1013 13.353 20.6958L3.30969 10.6533C3.11524 10.4587 3.00574 10.1951 3.00549 9.91992L3 4.03955C2.99951 3.46558 3.4646 3 4.03845 3H9.91748C10.1931 3 10.4573 3.10938 10.6521 3.30444L20.696 13.354C21.1014 13.7595 21.1013 14.417 20.6958 14.8223ZM9.60156 5H5L5.0044 9.60352L14 18.5L18.5 14L9.60156 5Z" />
</svg>
