<svg viewBox="0 0 18 18" xmlns="http://www.w3.org/2000/svg">
<path d="M6.11539 4.61538C6.11539 5.44381 5.44381 6.11538 4.61539 6.11538C3.78696 6.11538 3.11539 5.44381 3.11539 4.61538C3.11539 3.78696 3.78696 3.11538 4.61539 3.11538C5.44381 3.11538 6.11539 3.78696 6.11539 4.61538Z"/>
<path fill-rule="evenodd" clip-rule="evenodd" d="M17.6958 11.8223L11.8215 17.6958C11.416 18.1013 10.7585 18.1013 10.353 17.6958L0.309693 7.65332C0.115235 7.45874 0.00573807 7.19507 0.00549393 6.91992L3.83518e-07 1.03955C-0.000487514 0.465576 0.4646 0 1.03845 0H6.91748C7.19312 0 7.45728 0.109375 7.6521 0.304443L17.696 10.354C18.1014 10.7595 18.1013 11.417 17.6958 11.8223ZM6.60156 2H2L2.0044 6.60352L11 15.5L15.5 11L6.60156 2Z"/>
</svg>
