<svg viewBox="0 0 24 24" xmlns="http://www.w3.org/2000/svg">
<path d="M13 6.41398V15.5C13 15.7761 12.7762 16 12.5 16H11.5C11.2239 16 11 15.7761 11 15.5V6.41398L9.06057 8.35343C8.86531 8.54869 8.54872 8.54869 8.35346 8.35343L7.64657 7.64654C7.45131 7.45127 7.45131 7.13469 7.64657 6.93943L11.6465 2.93954C11.8417 2.74428 12.1583 2.74428 12.3536 2.93954L16.3535 6.93943C16.5487 7.13469 16.5487 7.45127 16.3535 7.64654L15.6466 8.35343C15.4513 8.54869 15.1347 8.54869 14.9395 8.35343L13 6.41398Z" />
<path d="M3 15.5C3 15.2238 3.22386 15 3.5 15H4.5C4.77614 15 5 15.2238 5 15.5V19H19V15.5C19 15.2238 19.2239 15 19.5 15H20.5C20.7761 15 21 15.2238 21 15.5V20C21 20.5523 20.5523 21 20 21H4C3.44772 21 3 20.5523 3 20V15.5Z" />
</svg>
