<svg viewBox="0 0 18 19" xmlns="http://www.w3.org/2000/svg">
<path d="M10 4.41398V13.5C10 13.7761 9.77616 14 9.50002 14H8.50002C8.22387 14 8.00002 13.7761 8.00002 13.5V4.41398L6.06057 6.35343C5.86531 6.54869 5.54872 6.54869 5.35346 6.35343L4.64657 5.64654C4.45131 5.45127 4.45131 5.13469 4.64657 4.93943L8.64646 0.939537C8.84172 0.744275 9.15831 0.744275 9.35357 0.939538L13.3535 4.93943C13.5487 5.13469 13.5487 5.45127 13.3535 5.64654L12.6466 6.35343C12.4513 6.54869 12.1347 6.54869 11.9395 6.35343L10 4.41398Z"/>
<path d="M0 13.5C0 13.2238 0.223858 13 0.5 13H1.5C1.77614 13 2 13.2238 2 13.5V17H16V13.5C16 13.2238 16.2239 13 16.5 13H17.5C17.7761 13 18 13.2238 18 13.5V18C18 18.5523 17.5523 19 17 19H1C0.447715 19 0 18.5523 0 18V13.5Z"/>
</svg>
