<svg viewBox="0 0 24 24" xmlns="http://www.w3.org/2000/svg">
<path fill-rule="evenodd" clip-rule="evenodd" d="M2 12C2 6.486 6.486 2 12 2C17.514 2 22 6.486 22 12C22 17.514 17.514 22 12 22C6.486 22 2 17.514 2 12ZM12.5 18H11.5C11.3674 18 11.2402 17.9473 11.1464 17.8536C11.0527 17.7598 11 17.6326 11 17.5V16.5C11 16.3674 11.0527 16.2402 11.1464 16.1464C11.2402 16.0527 11.3674 16 11.5 16H12.5C12.6326 16 12.7598 16.0527 12.8536 16.1464C12.9473 16.2402 13 16.3674 13 16.5V17.5C13 17.6326 12.9473 17.7598 12.8536 17.8536C12.7598 17.9473 12.6326 18 12.5 18ZM12.5 14H11.5C11.3674 14 11.2402 13.9473 11.1464 13.8536C11.0527 13.7598 11 13.6326 11 13.5V7C11 6.86739 11.0527 6.74021 11.1464 6.64645C11.2402 6.55268 11.3674 6.5 11.5 6.5H12.5C12.6326 6.5 12.7598 6.55268 12.8536 6.64645C12.9473 6.74021 13 6.86739 13 7V13.5C13 13.6326 12.9473 13.7598 12.8536 13.8536C12.7598 13.9473 12.6326 14 12.5 14Z" />
</svg>
