<svg viewBox="0 0 24 24" xmlns="http://www.w3.org/2000/svg">
<path d="M13 14.5C13 14.7761 12.7761 15 12.5 15H11.5C11.2239 15 11 14.7761 11 14.5V9.5C11 9.22386 11.2239 9 11.5 9H12.5C12.7761 9 13 9.22386 13 9.5V14.5Z" />
<path d="M13 17.5C13 17.7761 12.7761 18 12.5 18H11.5C11.2239 18 11 17.7761 11 17.5V16.5C11 16.2239 11.2239 16 11.5 16H12.5C12.7761 16 13 16.2239 13 16.5V17.5Z" />
<path fill-rule="evenodd" clip-rule="evenodd" d="M1.8672 21C1.48204 21 1.24151 20.5828 1.43449 20.2495L11.5673 2.74741C11.7598 2.41476 12.2401 2.41476 12.4327 2.74741L22.5655 20.2495C22.7585 20.5828 22.5179 21 22.1328 21H1.8672ZM4.46887 19L12 5.99172L19.5311 19H4.46887Z" />
</svg>
