<svg viewBox="0 0 22 19" xmlns="http://www.w3.org/2000/svg">
<path d="M12 12.5C12 12.7761 11.7761 13 11.5 13H10.5C10.2239 13 10 12.7761 10 12.5V7.5C10 7.22386 10.2239 7 10.5 7H11.5C11.7761 7 12 7.22386 12 7.5V12.5Z"/>
<path d="M12 15.5C12 15.7761 11.7761 16 11.5 16H10.5C10.2239 16 10 15.7761 10 15.5V14.5C10 14.2239 10.2239 14 10.5 14H11.5C11.7761 14 12 14.2239 12 14.5V15.5Z"/>
<path fill-rule="evenodd" clip-rule="evenodd" d="M0.867203 19C0.482037 19 0.241507 18.5828 0.43449 18.2495L10.5673 0.747407C10.7598 0.414765 11.2401 0.414764 11.4327 0.747406L21.5655 18.2495C21.7585 18.5828 21.5179 19 21.1328 19H0.867203ZM3.46887 17L11 3.99172L18.5311 17H3.46887Z"/>
</svg>
