<svg viewBox="0 0 24 24" xmlns="http://www.w3.org/2000/svg">
<path d="M13 14.5C13 14.7761 12.7761 15 12.5 15H11.5C11.2238 15 11 14.7761 11 14.5V9.49999C11 9.22385 11.2238 8.99999 11.5 8.99999H12.5C12.7761 8.99999 13 9.22385 13 9.49999V14.5ZM13 17.5C13 17.7761 12.7761 18 12.5 18H11.5C11.2238 18 11 17.7761 11 17.5V16.5C11 16.2239 11.2238 16 11.5 16H12.5C12.7761 16 13 16.2239 13 16.5V17.5ZM1.43449 20.2495C1.24151 20.5828 1.48204 21 1.8672 21H22.1328C22.5179 21 22.7585 20.5828 22.5655 20.2495L12.4327 2.74741C12.2401 2.41476 11.7598 2.41476 11.5673 2.74741L1.43449 20.2495Z" />
</svg>
