<svg viewBox="0 0 20 20" xmlns="http://www.w3.org/2000/svg">
<path fill-rule="evenodd" clip-rule="evenodd" d="M0 10C0 4.486 4.486 0 10 0C15.514 0 20 4.486 20 10C20 15.514 15.514 20 10 20C4.486 20 0 15.514 0 10ZM10.5 16H9.5C9.36739 16 9.24021 15.9473 9.14645 15.8536C9.05268 15.7598 9 15.6326 9 15.5V14.5C9 14.3674 9.05268 14.2402 9.14645 14.1464C9.24021 14.0527 9.36739 14 9.5 14H10.5C10.6326 14 10.7598 14.0527 10.8536 14.1464C10.9473 14.2402 11 14.3674 11 14.5V15.5C11 15.6326 10.9473 15.7598 10.8536 15.8536C10.7598 15.9473 10.6326 16 10.5 16ZM10.5 12H9.5C9.36739 12 9.24021 11.9473 9.14645 11.8536C9.05268 11.7598 9 11.6326 9 11.5V5C9 4.86739 9.05268 4.74021 9.14645 4.64645C9.24021 4.55268 9.36739 4.5 9.5 4.5H10.5C10.6326 4.5 10.7598 4.55268 10.8536 4.64645C10.9473 4.74021 11 4.86739 11 5V11.5C11 11.6326 10.9473 11.7598 10.8536 11.8536C10.7598 11.9473 10.6326 12 10.5 12Z"/>
</svg>
