<svg viewBox="0 0 22 19" xmlns="http://www.w3.org/2000/svg">
<path d="M12 12.5C12 12.7761 11.7761 13 11.5 13H10.5C10.2238 13 9.99998 12.7761 9.99998 12.5V7.49999C9.99998 7.22385 10.2238 6.99999 10.5 6.99999H11.5C11.7761 6.99999 12 7.22385 12 7.49999V12.5ZM12 15.5C12 15.7761 11.7761 16 11.5 16H10.5C10.2238 16 9.99998 15.7761 9.99998 15.5V14.5C9.99998 14.2239 10.2238 14 10.5 14H11.5C11.7761 14 12 14.2239 12 14.5V15.5ZM0.43449 18.2495C0.241507 18.5828 0.482037 19 0.867203 19H21.1328C21.5179 19 21.7585 18.5828 21.5655 18.2495L11.4327 0.747406C11.2401 0.414764 10.7598 0.414765 10.5673 0.747407L0.43449 18.2495Z"/>
</svg>
