<svg viewBox="0 0 22 19" xmlns="http://www.w3.org/2000/svg">
<path fill-rule="evenodd" clip-rule="evenodd" d="M16.5 0.916667C16.5 0.410441 16.0896 0 15.5833 0H0.916667C0.410441 0 0 0.410441 0 0.916667V11.9167C0 12.4229 0.410441 12.8333 0.916667 12.8333H15.5833C16.0896 12.8333 16.5 12.4229 16.5 11.9167V0.916667ZM14.6667 3.66667H9.16667V1.83333H14.6667V3.66667ZM5.5 1.83333V3.66667H7.33333V1.83333H5.5ZM3.66667 3.66667H1.83333V1.83333H3.66667V3.66667ZM1.83333 5.5V11H14.6639L14.6658 5.5H1.83333Z"/>
<path d="M17.4167 7.33333V5.5H21.0833C21.5896 5.5 22 5.91044 22 6.41667V17.4167C22 17.9229 21.5896 18.3333 21.0833 18.3333H6.41667C5.91044 18.3333 5.5 17.9229 5.5 17.4167V13.75H7.33333V16.5H20.1639L20.1658 11H17.4167V9.16667H20.1667V7.33333H17.4167Z"/>
</svg>
