<svg viewBox="0 0 24 24" xmlns="http://www.w3.org/2000/svg">
<path fill-rule="evenodd" clip-rule="evenodd" d="M17.5 3.91667C17.5 3.41044 17.0896 3 16.5833 3H1.91667C1.41044 3 1 3.41044 1 3.91667V14.9167C1 15.4229 1.41044 15.8333 1.91667 15.8333H16.5833C17.0896 15.8333 17.5 15.4229 17.5 14.9167V3.91667ZM15.6667 6.66667H10.1667V4.83333H15.6667V6.66667ZM6.5 4.83333V6.66667H8.33333V4.83333H6.5ZM4.66667 6.66667H2.83333V4.83333H4.66667V6.66667ZM2.83333 8.5V14H15.6639L15.6658 8.5H2.83333Z" />
<path d="M18.4167 10.3333V8.5H22.0833C22.5896 8.5 23 8.91044 23 9.41667V20.4167C23 20.9229 22.5896 21.3333 22.0833 21.3333H7.41667C6.91044 21.3333 6.5 20.9229 6.5 20.4167V16.75H8.33333V19.5H21.1639L21.1658 14H18.4167V12.1667H21.1667V10.3333H18.4167Z" />
</svg>
