<svg aria-label="connection warning" viewBox="0 0 24 24" xmlns="http://www.w3.org/2000/svg">
<path fill-rule="evenodd" clip-rule="evenodd" d="M21.9999 5.5C21.9999 6.42826 21.6311 7.3185 20.9748 7.97487C20.3184 8.63125 19.4281 9 18.4999 9C17.5716 9 16.6814 8.63125 16.025 7.97487C15.3686 7.3185 14.9999 6.42826 14.9999 5.5C14.9999 4.57174 15.3686 3.6815 16.025 3.02513C16.6814 2.36875 17.5716 2 18.4999 2C19.4281 2 20.3184 2.36875 20.9748 3.02513C21.6311 3.6815 21.9999 4.57174 21.9999 5.5ZM18.4999 10C19.1869 10 19.8379 9.846 20.4199 9.57C20.6369 9.763 20.8169 9.934 20.9579 10.075C21.0062 10.1237 21.0431 10.1825 21.066 10.2472C21.0888 10.3118 21.0971 10.3807 21.0903 10.449C21.0834 10.5172 21.0615 10.5831 21.0261 10.6419C20.9908 10.7007 20.9429 10.7509 20.8859 10.789L20.0559 11.373C19.9556 11.4417 19.8349 11.474 19.7137 11.4646C19.5925 11.4551 19.4783 11.4044 19.3899 11.321C19.0399 10.996 18.4039 10.451 17.5399 9.898C17.8499 9.965 18.1699 10 18.4999 10ZM14.0679 6.281C14.2409 7.271 14.7379 8.151 15.4459 8.805C14.3179 8.346 13.0089 8.018 11.5759 8.018C7.66388 8.018 4.63888 10.465 3.68988 11.332C3.60097 11.4149 3.48629 11.4647 3.36504 11.473C3.24378 11.4814 3.12334 11.4479 3.02388 11.378L2.19888 10.784C2.14234 10.7453 2.09503 10.6947 2.06035 10.6356C2.02567 10.5765 2.00446 10.5105 1.99825 10.4423C1.99204 10.3741 2.00098 10.3053 2.02443 10.241C2.04787 10.1766 2.08525 10.1182 2.13388 10.07C3.24388 8.983 6.71388 6.018 11.5749 6.018C12.4549 6.018 13.2869 6.115 14.0679 6.281ZM7.09288 14.968C7.00202 15.0456 6.88803 15.0911 6.76866 15.0972C6.6493 15.1034 6.53125 15.0699 6.43288 15.002L5.60688 14.408C5.54972 14.3695 5.50199 14.3185 5.46726 14.2589C5.43254 14.1994 5.4117 14.1328 5.40632 14.064C5.40094 13.9953 5.41114 13.9262 5.43617 13.862C5.4612 13.7977 5.50041 13.74 5.55088 13.693C6.42088 12.898 8.65088 11.163 11.5629 11.163C14.4709 11.163 16.6789 12.899 17.5409 13.698C17.591 13.7455 17.6297 13.8036 17.6542 13.8682C17.6787 13.9327 17.6882 14.002 17.6822 14.0707C17.6761 14.1395 17.6546 14.206 17.6192 14.2653C17.5838 14.3245 17.5355 14.375 17.4779 14.413L16.6479 14.998C16.5486 15.065 16.43 15.0974 16.3104 15.0899C16.1909 15.0825 16.0771 15.0358 15.9869 14.957C15.3169 14.387 13.6369 13.163 11.5629 13.163C9.48488 13.163 7.77288 14.397 7.09288 14.968ZM9.66788 18.388C9.87188 18.535 10.1549 18.509 10.3659 18.374C10.6319 18.203 11.0409 18.014 11.5499 18.014C12.0539 18.014 12.4529 18.195 12.7129 18.362C12.9229 18.498 13.2079 18.527 13.4129 18.383L14.2589 17.788C14.4929 17.623 14.5359 17.299 14.3229 17.108C13.8349 16.672 12.8779 16.014 11.5499 16.014C10.2209 16.014 9.25988 16.67 8.76888 17.103C8.55488 17.293 8.59488 17.615 8.82688 17.783L9.66788 18.389V18.388ZM12.5749 20.785C12.5749 21.0502 12.4695 21.3046 12.282 21.4921C12.0945 21.6796 11.8401 21.785 11.5749 21.785C11.3097 21.785 11.0553 21.6796 10.8678 21.4921C10.6802 21.3046 10.5749 21.0502 10.5749 20.785C10.5749 20.5198 10.6802 20.2654 10.8678 20.0779C11.0553 19.8904 11.3097 19.785 11.5749 19.785C11.8401 19.785 12.0945 19.8904 12.282 20.0779C12.4695 20.2654 12.5749 20.5198 12.5749 20.785ZM17.9999 3.75C17.9999 3.6837 18.0262 3.62011 18.0731 3.57322C18.12 3.52634 18.1836 3.5 18.2499 3.5H18.7499C18.8162 3.5 18.8798 3.52634 18.9267 3.57322C18.9735 3.62011 18.9999 3.6837 18.9999 3.75V5.75C18.9999 5.8163 18.9735 5.87989 18.9267 5.92678C18.8798 5.97366 18.8162 6 18.7499 6H18.2499C18.1836 6 18.12 5.97366 18.0731 5.92678C18.0262 5.87989 17.9999 5.8163 17.9999 5.75V3.75ZM19.1299 7.125C19.1299 7.29076 19.064 7.44973 18.9468 7.56694C18.8296 7.68415 18.6706 7.75 18.5049 7.75C18.3391 7.75 18.1802 7.68415 18.0629 7.56694C17.9457 7.44973 17.8799 7.29076 17.8799 7.125C17.8799 6.95924 17.9457 6.80027 18.0629 6.68306C18.1802 6.56585 18.3391 6.5 18.5049 6.5C18.6706 6.5 18.8296 6.56585 18.9468 6.68306C19.064 6.80027 19.1299 6.95924 19.1299 7.125Z" />
</svg>
