<svg aria-label="connection warning" viewBox="0 0 21 20" xmlns="http://www.w3.org/2000/svg">
<path fill-rule="evenodd" clip-rule="evenodd" d="M20.9999 3.5C20.9999 4.42826 20.6311 5.3185 19.9748 5.97487C19.3184 6.63125 18.4281 7 17.4999 7C16.5716 7 15.6814 6.63125 15.025 5.97487C14.3686 5.3185 13.9999 4.42826 13.9999 3.5C13.9999 2.57174 14.3686 1.6815 15.025 1.02513C15.6814 0.368749 16.5716 0 17.4999 0C18.4281 0 19.3184 0.368749 19.9748 1.02513C20.6311 1.6815 20.9999 2.57174 20.9999 3.5V3.5ZM17.4999 8C18.1869 8 18.8379 7.846 19.4199 7.57C19.6369 7.763 19.8169 7.934 19.9579 8.075C20.0062 8.12372 20.0431 8.18251 20.066 8.24716C20.0888 8.31182 20.0971 8.38074 20.0903 8.44898C20.0834 8.51722 20.0615 8.58309 20.0261 8.64188C19.9908 8.70066 19.9429 8.7509 19.8859 8.789L19.0559 9.373C18.9556 9.44171 18.8349 9.47403 18.7137 9.46457C18.5925 9.45511 18.4783 9.40444 18.3899 9.321C18.0399 8.996 17.4039 8.451 16.5399 7.898C16.8499 7.965 17.1699 8 17.4999 8V8ZM13.0679 4.281C13.2409 5.271 13.7379 6.151 14.4459 6.805C13.3179 6.346 12.0089 6.018 10.5759 6.018C6.66388 6.018 3.63888 8.465 2.68988 9.332C2.60097 9.41487 2.48629 9.46466 2.36504 9.47304C2.24378 9.48141 2.12334 9.44786 2.02388 9.378L1.19888 8.784C1.14234 8.74534 1.09503 8.69466 1.06035 8.63559C1.02567 8.57652 1.00446 8.51052 0.998253 8.44231C0.992043 8.37409 1.00098 8.30534 1.02443 8.24098C1.04787 8.17662 1.08525 8.11824 1.13388 8.07C2.24388 6.983 5.71388 4.018 10.5749 4.018C11.4549 4.018 12.2869 4.115 13.0679 4.281V4.281ZM6.09288 12.968C6.00202 13.0456 5.88803 13.0911 5.76866 13.0972C5.6493 13.1034 5.53125 13.0699 5.43288 13.002L4.60688 12.408C4.54972 12.3695 4.50199 12.3185 4.46726 12.2589C4.43254 12.1994 4.4117 12.1328 4.40632 12.064C4.40094 11.9953 4.41114 11.9262 4.43617 11.862C4.4612 11.7977 4.50041 11.74 4.55088 11.693C5.42088 10.898 7.65088 9.163 10.5629 9.163C13.4709 9.163 15.6789 10.899 16.5409 11.698C16.591 11.7455 16.6297 11.8036 16.6542 11.8682C16.6787 11.9327 16.6882 12.002 16.6822 12.0707C16.6761 12.1395 16.6546 12.206 16.6192 12.2653C16.5838 12.3245 16.5355 12.375 16.4779 12.413L15.6479 12.998C15.5486 13.065 15.43 13.0974 15.3104 13.0899C15.1909 13.0825 15.0771 13.0358 14.9869 12.957C14.3169 12.387 12.6369 11.163 10.5629 11.163C8.48488 11.163 6.77288 12.397 6.09288 12.968V12.968ZM8.66788 16.388C8.87188 16.535 9.15488 16.509 9.36588 16.374C9.63188 16.203 10.0409 16.014 10.5499 16.014C11.0539 16.014 11.4529 16.195 11.7129 16.362C11.9229 16.498 12.2079 16.527 12.4129 16.383L13.2589 15.788C13.4929 15.623 13.5359 15.299 13.3229 15.108C12.8349 14.672 11.8779 14.014 10.5499 14.014C9.22088 14.014 8.25988 14.67 7.76888 15.103C7.55488 15.293 7.59488 15.615 7.82688 15.783L8.66788 16.389V16.388ZM11.5749 18.785C11.5749 19.0502 11.4695 19.3046 11.282 19.4921C11.0945 19.6796 10.8401 19.785 10.5749 19.785C10.3097 19.785 10.0553 19.6796 9.86778 19.4921C9.68024 19.3046 9.57488 19.0502 9.57488 18.785C9.57488 18.5198 9.68024 18.2654 9.86778 18.0779C10.0553 17.8904 10.3097 17.785 10.5749 17.785C10.8401 17.785 11.0945 17.8904 11.282 18.0779C11.4695 18.2654 11.5749 18.5198 11.5749 18.785ZM16.9999 1.75C16.9999 1.6837 17.0262 1.62011 17.0731 1.57322C17.12 1.52634 17.1836 1.5 17.2499 1.5H17.7499C17.8162 1.5 17.8798 1.52634 17.9267 1.57322C17.9735 1.62011 17.9999 1.6837 17.9999 1.75V3.75C17.9999 3.8163 17.9735 3.87989 17.9267 3.92678C17.8798 3.97366 17.8162 4 17.7499 4H17.2499C17.1836 4 17.12 3.97366 17.0731 3.92678C17.0262 3.87989 16.9999 3.8163 16.9999 3.75V1.75ZM18.1299 5.125C18.1299 5.29076 18.064 5.44973 17.9468 5.56694C17.8296 5.68415 17.6706 5.75 17.5049 5.75C17.3391 5.75 17.1802 5.68415 17.0629 5.56694C16.9457 5.44973 16.8799 5.29076 16.8799 5.125C16.8799 4.95924 16.9457 4.80027 17.0629 4.68306C17.1802 4.56585 17.3391 4.5 17.5049 4.5C17.6706 4.5 17.8296 4.56585 17.9468 4.68306C18.064 4.80027 18.1299 4.95924 18.1299 5.125Z" />
</svg>
