<svg aria-label="envelope with arrow" viewBox="0 0 24 24" xmlns="http://www.w3.org/2000/svg">
<path fill-rule="evenodd" clip-rule="evenodd" d="M3 4H21C21.2652 4 21.5196 4.10536 21.7071 4.29289C21.8946 4.48043 22 4.73478 22 5V16.5L20 14.5V7.414L12.354 15.061C12.2602 15.1547 12.1331 15.2074 12.0005 15.2074C11.8679 15.2074 11.7408 15.1547 11.647 15.061L4 7.414V18H14V20H3C2.73478 20 2.48043 19.8946 2.29289 19.7071C2.10536 19.5196 2 19.2652 2 19V5C2 4.73478 2.10536 4.48043 2.29289 4.29289C2.48043 4.10536 2.73478 4 3 4ZM5.414 6L12 12.586L18.586 6H5.414ZM19.176 18L18.236 17.06C18.1423 16.9662 18.0896 16.8391 18.0896 16.7065C18.0896 16.5739 18.1423 16.4468 18.236 16.353L18.943 15.645C19.0368 15.5513 19.1639 15.4986 19.2965 15.4986C19.4291 15.4986 19.5562 15.5513 19.65 15.645L22.65 18.646C22.7437 18.7398 22.7964 18.8669 22.7964 18.9995C22.7964 19.1321 22.7437 19.2592 22.65 19.353L19.65 22.353C19.5563 22.4464 19.4293 22.4989 19.297 22.4989C19.1647 22.4989 19.0377 22.4464 18.944 22.353L18.237 21.646C18.1433 21.5522 18.0906 21.4251 18.0906 21.2925C18.0906 21.1599 18.1433 21.0328 18.237 20.939L19.176 20H15.5C15.3674 20 15.2402 19.9473 15.1464 19.8536C15.0527 19.7598 15 19.6326 15 19.5V18.5C15 18.3674 15.0527 18.2402 15.1464 18.1464C15.2402 18.0527 15.3674 18 15.5 18H19.176Z" />
</svg>
