<svg aria-label="envelope with arrow" viewBox="0 0 21 19" xmlns="http://www.w3.org/2000/svg">
<path fill-rule="evenodd" clip-rule="evenodd" d="M1 0H19C19.2652 0 19.5196 0.105357 19.7071 0.292893C19.8946 0.48043 20 0.734784 20 1V12.5L18 10.5V3.414L10.354 11.061C10.2602 11.1547 10.1331 11.2074 10.0005 11.2074C9.86792 11.2074 9.74076 11.1547 9.647 11.061L2 3.414V14H12V16H1C0.734784 16 0.48043 15.8946 0.292893 15.7071C0.105357 15.5196 0 15.2652 0 15V1C0 0.734784 0.105357 0.48043 0.292893 0.292893C0.48043 0.105357 0.734784 0 1 0V0ZM3.414 2L10 8.586L16.586 2H3.414ZM17.176 14L16.236 13.06C16.1423 12.9662 16.0896 12.8391 16.0896 12.7065C16.0896 12.5739 16.1423 12.4468 16.236 12.353L16.943 11.645C17.0368 11.5513 17.1639 11.4986 17.2965 11.4986C17.4291 11.4986 17.5562 11.5513 17.65 11.645L20.65 14.646C20.7437 14.7398 20.7964 14.8669 20.7964 14.9995C20.7964 15.1321 20.7437 15.2592 20.65 15.353L17.65 18.353C17.5563 18.4464 17.4293 18.4989 17.297 18.4989C17.1647 18.4989 17.0377 18.4464 16.944 18.353L16.237 17.646C16.1433 17.5522 16.0906 17.4251 16.0906 17.2925C16.0906 17.1599 16.1433 17.0328 16.237 16.939L17.176 16H13.5C13.3674 16 13.2402 15.9473 13.1464 15.8536C13.0527 15.7598 13 15.6326 13 15.5V14.5C13 14.3674 13.0527 14.2402 13.1464 14.1464C13.2402 14.0527 13.3674 14 13.5 14H17.176V14Z" />
</svg>
