<svg aria-label="notifications (active)" viewBox="0 0 24 24" xmlns="http://www.w3.org/2000/svg">
<path fill-rule="evenodd" clip-rule="evenodd" d="M8.20023 2.19997C7.23991 2.58412 6.6486 3.61379 6.95731 4.66921C4.84599 6.33193 3.93461 9.24538 4.89994 11.9L5.60001 13.9C5.89994 14.9 6.39994 16.9 5.79997 18.1001C5.60001 18.4 5.60001 18.7001 5.69999 19C5.89994 19.4 6.29997 19.7001 6.69999 19.7001C6.79997 19.7001 6.89994 19.7001 7.10001 19.6001L20.1 14.9C20.7 14.7001 20.8999 14.1001 20.7 13.5C20.6 13.2001 20.3 13 20.1 12.9C18.8 12.3001 18 10.5 17.6 9.50002L16.8999 7.50002C16 4.90004 13.5 3.30007 10.8999 3.30007C10.8528 3.30007 10.8053 3.30043 10.7575 3.30141C10.3202 2.36745 9.16679 1.91005 8.20023 2.19997ZM14.9999 8.20009C14.3999 6.50002 12.7 5.30007 10.8999 5.30007C10.3999 5.30007 9.89994 5.30007 9.39994 5.50002C8.29997 5.90004 7.39994 6.70009 6.89994 7.80007C6.39994 8.90004 6.39994 10.1001 6.79997 11.2001L7.49992 13.2001C7.89994 14.3001 8.19999 15.7001 8.09989 17.1001L17.8 13.6001C16.8 12.6001 16.0999 11.3001 15.7 10.2001L14.9999 8.20009Z" />
<path d="M13.2002 21.7001C14.8002 21.2001 15.6001 19.5 15.0002 17.9L9.40018 19.9C9.90018 21.5 11.6001 22.3001 13.2002 21.7001Z" />
</svg>
