<svg aria-label="notifications (inactive)" viewBox="0 0 17 20" xmlns="http://www.w3.org/2000/svg">
<path fill-rule="evenodd" clip-rule="evenodd" d="M15.6 14.1C14.6 13.1 14.4 11.1 14.4 10V7.90002C14.4 5.09998 12.5 2.69995 10 1.80005C9.90002 0.800049 9 0 8 0C7 0 6.09998 0.800049 6 1.80005C3.5 2.69995 1.59998 5.09998 1.59998 7.90002V10.1C1.59998 11.2 1.40002 13.2 0.400024 14.2C0.0999756 14.3 0 14.6 0 14.9C0 15.5 0.5 16 1.09998 16H15C15.6 16 16.1 15.5 16.1 14.9C16 14.6 15.9 14.3 15.6 14.1ZM3.58655 10.2646L3.6001 10.1V7.90002C3.6001 5.5 5.6001 3.5 8 3.5C10.4 3.5 12.4 5.5 12.4 7.90002V10.1C12.4 11.3 12.6001 12.7 13.2001 14H2.80005C3.37292 12.8544 3.48999 11.4352 3.58655 10.2646Z" />
<path d="M11 17C11 18.7 9.69995 20 8 20C6.30005 20 5 18.7 5 17H11Z" />
</svg>
