<svg aria-label="account or settings" viewBox="0 0 24 24"  xmlns="http://www.w3.org/2000/svg">
<path fill-rule="evenodd" clip-rule="evenodd" d="M21 22C21.5523 22 22 21.5523 22 21V3C22 2.44772 21.5523 2 21 2H3C2.44769 2 2 2.44772 2 3V21C2 21.5523 2.44769 22 3 22H21ZM20.001 20H16V12H14V20H10V17H8V20H4V4H8V12H10V4H14V7H16V4H20L20.001 20ZM6.5 13H11.5C11.7761 13 12 13.2239 12 13.5V15.5C12 15.7761 11.7761 16 11.5 16H6.5C6.22388 16 6 15.7761 6 15.5V13.5C6 13.2239 6.22388 13 6.5 13ZM17.5 8H12.5C12.2239 8 12 8.22386 12 8.5V10.5C12 10.7761 12.2239 11 12.5 11H17.5C17.7761 11 18 10.7761 18 10.5V8.5C18 8.22386 17.7761 8 17.5 8Z" />
</svg>
