<svg aria-label="account or settings" viewBox="0 0 20 20"  xmlns="http://www.w3.org/2000/svg">
<path fill-rule="evenodd" clip-rule="evenodd" d="M19 20C19.5523 20 20 19.5523 20 19V1C20 0.447715 19.5523 0 19 0H1C0.447693 0 0 0.447715 0 1V19C0 19.5523 0.447693 20 1 20H19ZM18.001 18H14V10H12V18H8V15H6V18H2V2H6V10H8V2H12V5H14V2H18L18.001 18ZM4.5 11H9.5C9.77612 11 10 11.2239 10 11.5V13.5C10 13.7761 9.77612 14 9.5 14H4.5C4.22388 14 4 13.7761 4 13.5V11.5C4 11.2239 4.22388 11 4.5 11ZM15.5 6H10.5C10.2239 6 10 6.22386 10 6.5V8.5C10 8.77614 10.2239 9 10.5 9H15.5C15.7761 9 16 8.77614 16 8.5V6.5C16 6.22386 15.7761 6 15.5 6Z" />
</svg>
