<svg aria-label="channel" viewBox="0 0 24 24"  xmlns="http://www.w3.org/2000/svg">
<path d="M2.5 10.5C2.5 7.52177 3.87045 4.86365 6.01513 3.12183C6.14524 3.01616 6.16802 2.8263 6.0666 2.69286L5.20788 1.56301L5.20371 1.55767C5.10985 1.44035 4.93866 1.42133 4.82133 1.51519C2.18719 3.62257 0.5 6.86424 0.5 10.5C0.5 13.9024 1.97762 16.9598 4.32618 19.0653C4.40639 19.1372 4.5098 19.2254 4.63641 19.3298C4.64152 19.334 4.6467 19.3381 4.65197 19.3421C4.87186 19.5092 5.18559 19.4664 5.35271 19.2466L5.95838 18.4495C6.12028 18.2365 6.08575 17.9337 5.88005 17.7626C5.76796 17.6694 5.6764 17.5903 5.60526 17.5256C3.6974 15.788 2.5 13.2838 2.5 10.5Z" />
<path fill-rule="evenodd" clip-rule="evenodd" d="M11 22.5C11 22.7761 11.2239 23 11.5 23H12.5C12.7761 23 13 22.7761 13 22.5V13.855C14.4457 13.4248 15.5 12.0855 15.5 10.5C15.5 8.56699 13.933 6.99999 12 6.99999C10.067 6.99999 8.5 8.56699 8.5 10.5C8.5 12.0855 9.55426 13.4248 11 13.855V22.5ZM13.5 10.5C13.5 11.3284 12.8284 12 12 12C11.1716 12 10.5 11.3284 10.5 10.5C10.5 9.67157 11.1716 9 12 9C12.8284 9 13.5 9.67157 13.5 10.5Z" />
<path d="M23.5 10.5C23.5 13.8811 22.0409 16.9214 19.718 19.0255C19.6277 19.1073 19.5095 19.2085 19.3634 19.3291C19.1506 19.505 18.8354 19.4748 18.6596 19.2619L18.653 19.2538L18.647 19.2461L18.0415 18.4494C17.8796 18.2363 17.9141 17.9336 18.1198 17.7625C18.2363 17.6656 18.3312 17.5836 18.4046 17.5165C20.3067 15.7793 21.5 13.279 21.5 10.5C21.5 7.71467 20.3013 5.20932 18.3917 3.47165C18.3213 3.40758 18.2307 3.32951 18.12 3.23744C17.9143 3.06631 17.8797 2.76354 18.0416 2.55046L18.6487 1.75175C18.8157 1.53191 19.1294 1.48915 19.3493 1.65624C19.3544 1.66013 19.3594 1.66413 19.3644 1.66823C19.4184 1.71262 19.4652 1.75189 19.5048 1.78605C21.9513 3.89495 23.5 7.0166 23.5 10.5Z" />
<path d="M8.12719 6.59469C8.17717 6.54513 8.24016 6.48691 8.31618 6.42003C8.51307 6.24682 8.54267 5.95091 8.38399 5.74213L7.77553 4.94147C7.76927 4.93323 7.76275 4.92519 7.75599 4.91736C7.57559 4.70831 7.25988 4.68508 7.05084 4.86548C7.02165 4.89067 6.99533 4.91381 6.97195 4.93496C5.45387 6.30741 4.5 8.29231 4.5 10.5C4.5 12.671 5.42247 14.6266 6.89684 15.9962C6.93991 16.0362 6.99174 16.0822 7.05232 16.1343C7.05989 16.1408 7.06766 16.1471 7.07561 16.1531C7.29543 16.3202 7.60905 16.2774 7.7761 16.0576L8.38355 15.2585C8.54225 15.0497 8.51261 14.7537 8.31565 14.5805C8.25331 14.5257 8.20089 14.4775 8.15829 14.4359C7.13518 13.4371 6.5 12.0427 6.5 10.5C6.5 8.97294 7.12232 7.59125 8.12719 6.59469Z" />
<path d="M19.5 10.5C19.5 12.7105 18.5437 14.6976 17.0223 16.0702C17.0005 16.0899 16.9762 16.1112 16.9494 16.1344C16.7404 16.3149 16.4247 16.2918 16.2442 16.0828C16.2374 16.0749 16.2308 16.0668 16.2245 16.0586L15.6152 15.2568C15.4566 15.0482 15.4861 14.7525 15.6826 14.5793C15.7825 14.4911 15.8636 14.4154 15.9258 14.352C16.8995 13.3598 17.5 12 17.5 10.5C17.5 9.01832 16.9141 7.67348 15.9614 6.68454C15.8912 6.61172 15.798 6.5239 15.6816 6.42108C15.4854 6.24771 15.4562 5.95233 15.6146 5.74389L16.2235 4.9428C16.3905 4.72295 16.7042 4.68019 16.9241 4.84727C16.932 4.85331 16.9398 4.85958 16.9473 4.86608C17.02 4.92849 17.0813 4.98315 17.1313 5.03006C18.5893 6.3983 19.5 8.34279 19.5 10.5Z" />
</svg>
