<svg aria-label="channel" viewBox="0 0 24 22"  xmlns="http://www.w3.org/2000/svg">
<path d="M2.5 9.49999C2.5 6.52177 3.87045 3.86365 6.01513 2.12183C6.14524 2.01616 6.16802 1.8263 6.0666 1.69286L5.20788 0.563012L5.20371 0.557674C5.10985 0.440352 4.93866 0.421332 4.82133 0.515193C2.18719 2.62257 0.5 5.86424 0.5 9.49999C0.5 12.9024 1.97762 15.9598 4.32618 18.0653C4.40639 18.1372 4.5098 18.2254 4.63641 18.3298C4.64152 18.334 4.6467 18.3381 4.65197 18.3421C4.87186 18.5092 5.18559 18.4664 5.35271 18.2466L5.95838 17.4495C6.12028 17.2365 6.08575 16.9337 5.88005 16.7626C5.76796 16.6694 5.6764 16.5903 5.60526 16.5256C3.6974 14.788 2.5 12.2838 2.5 9.49999Z" />
<path fill-rule="evenodd" clip-rule="evenodd" d="M11 21.5C11 21.7761 11.2239 22 11.5 22H12.5C12.7761 22 13 21.7761 13 21.5V12.855C14.4457 12.4248 15.5 11.0855 15.5 9.49999C15.5 7.56699 13.933 5.99999 12 5.99999C10.067 5.99999 8.5 7.56699 8.5 9.49999C8.5 11.0855 9.55426 12.4248 11 12.855V21.5ZM13.5 9.5C13.5 10.3284 12.8284 11 12 11C11.1716 11 10.5 10.3284 10.5 9.5C10.5 8.67157 11.1716 8 12 8C12.8284 8 13.5 8.67157 13.5 9.5Z" />
<path d="M23.5 9.49999C23.5 12.8811 22.0409 15.9214 19.718 18.0255C19.6277 18.1073 19.5095 18.2085 19.3634 18.3291C19.1506 18.505 18.8354 18.4748 18.6596 18.2619L18.653 18.2538L18.647 18.2461L18.0415 17.4494C17.8796 17.2363 17.9141 16.9336 18.1198 16.7625C18.2363 16.6656 18.3312 16.5836 18.4046 16.5165C20.3067 14.7793 21.5 12.279 21.5 9.49999C21.5 6.71467 20.3013 4.20932 18.3917 2.47165C18.3213 2.40758 18.2307 2.32951 18.12 2.23744C17.9143 2.06631 17.8797 1.76354 18.0416 1.55046L18.6487 0.751755C18.8157 0.531912 19.1294 0.489155 19.3493 0.656235C19.3544 0.660134 19.3594 0.664132 19.3644 0.668226C19.4184 0.712618 19.4652 0.751892 19.5048 0.78605C21.9513 2.89495 23.5 6.0166 23.5 9.49999Z" />
<path d="M8.12719 5.59469C8.17717 5.54513 8.24016 5.48691 8.31618 5.42003C8.51307 5.24682 8.54267 4.95091 8.38399 4.74213L7.77553 3.94147C7.76927 3.93323 7.76275 3.92519 7.75599 3.91736C7.57559 3.70831 7.25988 3.68508 7.05084 3.86548C7.02165 3.89067 6.99533 3.91381 6.97195 3.93496C5.45387 5.30741 4.5 7.29231 4.5 9.49999C4.5 11.671 5.42247 13.6266 6.89684 14.9962C6.93991 15.0362 6.99174 15.0822 7.05232 15.1343C7.05989 15.1408 7.06766 15.1471 7.07561 15.1531C7.29543 15.3202 7.60905 15.2774 7.7761 15.0576L8.38355 14.2585C8.54225 14.0497 8.51261 13.7537 8.31565 13.5805C8.25331 13.5257 8.20089 13.4775 8.15829 13.4359C7.13518 12.4371 6.5 11.0427 6.5 9.49999C6.5 7.97294 7.12232 6.59125 8.12719 5.59469Z" />
<path d="M19.5 9.49999C19.5 11.7105 18.5437 13.6976 17.0223 15.0702C17.0005 15.0899 16.9762 15.1112 16.9494 15.1344C16.7404 15.3149 16.4247 15.2918 16.2442 15.0828C16.2374 15.0749 16.2308 15.0668 16.2245 15.0586L15.6152 14.2568C15.4566 14.0482 15.4861 13.7525 15.6826 13.5793C15.7825 13.4911 15.8636 13.4154 15.9258 13.352C16.8995 12.3598 17.5 11 17.5 9.49999C17.5 8.01832 16.9141 6.67348 15.9614 5.68454C15.8912 5.61172 15.798 5.5239 15.6816 5.42108C15.4854 5.24771 15.4562 4.95233 15.6146 4.74389L16.2235 3.9428C16.3905 3.72295 16.7042 3.68019 16.9241 3.84727C16.932 3.85331 16.9398 3.85958 16.9473 3.86608C17.02 3.92849 17.0813 3.98315 17.1313 4.03006C18.5893 5.3983 19.5 7.34279 19.5 9.49999Z" />
</svg>
