<svg aria-label="dashboard" viewBox="0 0 20 20"  xmlns="http://www.w3.org/2000/svg">
<path fill-rule="evenodd" clip-rule="evenodd" d="M11.5 0H0.5C0.223877 0 0 0.223877 0 0.5V9.5C0 9.77612 0.223877 10 0.5 10H11.5C11.7761 10 12 9.77612 12 9.5V0.5C12 0.223877 11.7761 0 11.5 0ZM10 8H2V2H10V8ZM19.5 0H14.5C14.2239 0 14 0.223877 14 0.5V9.5C14 9.77612 14.2239 10 14.5 10H19.5C19.7761 10 20 9.77612 20 9.5V0.5C20 0.223877 19.7761 0 19.5 0ZM16 8H18V2H16V8ZM0.5 12H6.5C6.77612 12 7 12.2239 7 12.5V19.5C7 19.7761 6.77612 20 6.5 20H0.5C0.223877 20 0 19.7761 0 19.5V12.5C0 12.2239 0.223877 12 0.5 12ZM5 18H2V14H5V18ZM20 12.5C20 12.2239 19.7761 12 19.5 12H9.5C9.22388 12 9 12.2239 9 12.5V19.5C9 19.7761 9.22388 20 9.5 20H19.5C19.7761 20 20 19.7761 20 19.5V12.5ZM11 18H18V14H11V18Z" />
</svg>
