<svg aria-label="dashboard" viewBox="0 0 24 24"  xmlns="http://www.w3.org/2000/svg">
<path fill-rule="evenodd" clip-rule="evenodd" d="M13.5 2H2.5C2.22388 2 2 2.22388 2 2.5V11.5C2 11.7761 2.22388 12 2.5 12H13.5C13.7761 12 14 11.7761 14 11.5V2.5C14 2.22388 13.7761 2 13.5 2ZM12 10H4V4H12V10ZM21.5 2H16.5C16.2239 2 16 2.22388 16 2.5V11.5C16 11.7761 16.2239 12 16.5 12H21.5C21.7761 12 22 11.7761 22 11.5V2.5C22 2.22388 21.7761 2 21.5 2ZM18 10H20V4H18V10ZM2.5 14H8.5C8.77612 14 9 14.2239 9 14.5V21.5C9 21.7761 8.77612 22 8.5 22H2.5C2.22388 22 2 21.7761 2 21.5V14.5C2 14.2239 2.22388 14 2.5 14ZM7 20H4V16H7V20ZM22 14.5C22 14.2239 21.7761 14 21.5 14H11.5C11.2239 14 11 14.2239 11 14.5V21.5C11 21.7761 11.2239 22 11.5 22H21.5C21.7761 22 22 21.7761 22 21.5V14.5ZM13 20H20V16H13V20Z" />
</svg>
