<svg aria-label="history" viewBox="0 0 20 20"  xmlns="http://www.w3.org/2000/svg">
<path d="M1.47039 15.2225C3.22885 18.0884 6.39118 20 10 20C15.5228 20 20 15.5228 20 10C20 4.47715 15.5228 0 10 0C6.72855 0 3.82401 1.57093 1.99958 3.99958L0.853554 2.85355C0.53857 2.53857 0 2.76166 0 3.20711V7.5C0 7.77614 0.223858 8 0.5 8H4.79289C5.23835 8 5.46143 7.46143 5.14645 7.14645L3.43173 5.43173C4.87714 3.3574 7.28005 2 10 2C14.4183 2 18 5.58172 18 10C18 14.4183 14.4183 18 10 18C7.14844 18 4.64534 16.5081 3.2287 14.2622C3.08147 14.0288 2.77925 13.9386 2.53698 14.0708L1.65875 14.5498C1.41617 14.6821 1.32588 14.987 1.47039 15.2225Z" />
<path d="M9.513 4.99933H10.513C10.7891 4.99933 11.013 5.22319 11.013 5.49933V9.57774L13.9126 12.4773C14.1079 12.6726 14.1079 12.9892 13.9126 13.1845L13.2055 13.8916C13.0102 14.0868 12.6937 14.0868 12.4984 13.8916L9.013 10.4062V5.49933C9.013 5.22319 9.23686 4.99933 9.513 4.99933Z" />
</svg>
