<svg aria-label="content tools home" viewBox="0 0 24 24"  xmlns="http://www.w3.org/2000/svg">
<path fill-rule="evenodd" clip-rule="evenodd" d="M22 4.28571C22 3.57563 21.5025 3 20.8889 3H3.11111C2.49746 3 2 3.57563 2 4.28571V19.7143C2 20.4244 2.49746 21 3.11111 21H5V19H4V9H19.999L19.9967 19H19V21H20.8889C21.5025 21 22 20.4244 22 19.7143V4.28571ZM8 7V5H10V7H8ZM20 7H12V5H20V7ZM6 7H4V5H6V7Z" />
<path d="M8 20.5V16.8624C7.8807 16.8624 7.38982 16.864 7.00167 16.8654C6.7248 16.8664 6.5 16.6422 6.50001 16.3653V16.3512C6.50001 16.2127 6.55748 16.0804 6.65871 15.9859L11.6559 11.3182C11.8478 11.139 12.1446 11.1377 12.3368 11.3167C13.3774 12.2855 16.4988 15.1922 17.3441 15.9874C17.4437 16.0811 17.4994 16.2115 17.4995 16.3482L17.4996 16.3668C17.4998 16.6431 17.2761 16.8672 16.9998 16.8672H16V20.5C16 20.7762 15.7765 21 15.5003 21H13V19C13 18.453 12.5742 18 12 18C11.4258 18 11 18.453 11 19V21H8.49966C8.22351 21 8 20.7762 8 20.5Z" />
</svg>
