<svg aria-label="admin tools home" viewBox="0 0 22 20"  xmlns="http://www.w3.org/2000/svg">
<path d="M10.9938 12.076C9.67993 12.076 8.61143 10.9655 8.61143 9.59996C8.61143 8.2344 9.67993 7.12388 10.9938 7.12388C12.3077 7.12388 13.3762 8.2344 13.3762 9.59996C13.3762 10.9655 12.3077 12.076 10.9938 12.076ZM6.52684 17.0282C6.36238 17.0282 6.22905 16.8962 6.22905 16.7334V16.4387C6.22905 14.3558 8.18856 12.9014 10.9938 12.9014C13.7991 12.9014 15.7586 14.3558 15.7586 16.4387V16.7334C15.7586 16.8962 15.6253 17.0282 15.4608 17.0282H6.52684ZM19.5704 11.4987V19.0096C19.5704 19.5566 19.1438 20 18.6175 20H13.8527C13.3264 20 8.66126 20 8.13496 20H3.37018C2.84388 20 2.41723 19.5566 2.41723 19.0096V11.5099L1.48724 12.4764C1.30116 12.6698 0.999472 12.6698 0.813396 12.4764L0.139558 11.7761C-0.0465191 11.5827 -0.0465192 11.2691 0.139557 11.0757L10.6569 0.14485L10.6571 0.145044C10.8431 -0.0482731 11.1446 -0.0483591 11.3307 0.144852L21.8601 11.0758L21.8603 11.0757C22.0464 11.269 22.0466 11.5825 21.8606 11.776L21.8605 11.7762L21.1864 12.4766L21.1863 12.4764C21.0003 12.6698 20.6987 12.6699 20.5126 12.4767L19.5704 11.4987ZM17.6645 9.52025L10.9939 2.5959L4.32314 9.529V18.0191H17.6645V9.52025Z" />
</svg>
