<svg aria-label="content tools home" viewBox="0 0 20 18"  xmlns="http://www.w3.org/2000/svg">
<path fill-rule="evenodd" clip-rule="evenodd" d="M20 1.28571C20 0.57563 19.5025 0 18.8889 0H1.11111C0.49746 0 0 0.57563 0 1.28571V16.7143C0 17.4244 0.49746 18 1.11111 18H3V16H2V6H17.999L17.9967 16H17V18H18.8889C19.5025 18 20 17.4244 20 16.7143V1.28571ZM6 4V2H8V4H6ZM18 4H10V2H18V4ZM4 4H2V2H4V4Z" />
<path d="M6 17.5V13.8624C5.8807 13.8624 5.38982 13.864 5.00167 13.8654C4.7248 13.8664 4.5 13.6422 4.50001 13.3653V13.3512C4.50001 13.2127 4.55748 13.0804 4.65871 12.9859L9.6559 8.3182C9.8478 8.139 10.1446 8.1377 10.3368 8.3167C11.3774 9.2855 14.4988 12.1922 15.3441 12.9874C15.4437 13.0811 15.4994 13.2115 15.4995 13.3482L15.4996 13.3668C15.4998 13.6431 15.2761 13.8672 14.9998 13.8672H14V17.5C14 17.7762 13.7765 18 13.5003 18H11V16C11 15.453 10.5742 15 10 15C9.4258 15 9 15.453 9 16V18H6.49966C6.22351 18 6 17.7762 6 17.5Z" />
</svg>
