<svg aria-label="link" viewBox="0 0 24 24"  xmlns="http://www.w3.org/2000/svg">
<path fill-rule="evenodd" clip-rule="evenodd" d="M11 6.5V7.5C11 7.77612 10.7761 8 10.5 8H8C5.79089 8 4 9.79083 4 12C4 14.2092 5.79089 16 8 16H10.5C10.7761 16 11 16.2239 11 16.5V17.5C11 17.7761 10.7761 18 10.5 18H8C4.68628 18 2 15.3137 2 12C2 8.68628 4.68628 6 8 6H10.5C10.7761 6 11 6.22388 11 6.5ZM16 6C19.3137 6 22 8.68628 22 12C22 15.3137 19.3137 18 16 18H13.5C13.2239 18 13 17.7761 13 17.5V16.5C13 16.2239 13.2239 16 13.5 16H16C18.2091 16 20 14.2092 20 12C20 9.79083 18.2091 8 16 8H13.5C13.2239 8 13 7.77612 13 7.5V6.5C13 6.22388 13.2239 6 13.5 6H16ZM8.5 11C8.22388 11 8 11.2239 8 11.5V12.5C8 12.7761 8.22388 13 8.5 13H15.5C15.7761 13 16 12.7761 16 12.5V11.5C16 11.2239 15.7761 11 15.5 11H8.5Z" />
</svg>
