<svg aria-label="link" viewBox="0 -4 20 20"  xmlns="http://www.w3.org/2000/svg">
<path fill-rule="evenodd" clip-rule="evenodd" d="M9 0.5V1.5C9 1.77612 8.77612 2 8.5 2H6C3.79089 2 2 3.79083 2 6C2 8.20917 3.79089 10 6 10H8.5C8.77612 10 9 10.2239 9 10.5V11.5C9 11.7761 8.77612 12 8.5 12H6C2.68628 12 0 9.31372 0 6C0 2.68628 2.68628 0 6 0H8.5C8.77612 0 9 0.223877 9 0.5ZM14 0C17.3137 0 20 2.68628 20 6C20 9.31372 17.3137 12 14 12H11.5C11.2239 12 11 11.7761 11 11.5V10.5C11 10.2239 11.2239 10 11.5 10H14C16.2091 10 18 8.20917 18 6C18 3.79083 16.2091 2 14 2H11.5C11.2239 2 11 1.77612 11 1.5V0.5C11 0.223877 11.2239 0 11.5 0H14ZM6.5 5C6.22388 5 6 5.22388 6 5.5V6.5C6 6.77612 6.22388 7 6.5 7H13.5C13.7761 7 14 6.77612 14 6.5V5.5C14 5.22388 13.7761 5 13.5 5H6.5Z" />
</svg>
