<svg aria-label="menu with arrow pointing left" viewBox="0 0 20 20"  xmlns="http://www.w3.org/2000/svg">
<path fill-rule="evenodd" clip-rule="evenodd" d="M3.824 3H19.5C19.7761 3 20 3.22386 20 3.5V4.5C20 4.77615 19.7761 5 19.5 5H3.824L4.76331 5.93859C4.95865 6.13377 4.95878 6.45034 4.76359 6.64568L4.05643 7.35332C3.86124 7.54866 3.54478 7.54889 3.34945 7.3537L0.349554 4.35356C0.15431 4.15831 0.154337 3.84172 0.349554 3.64645L3.34949 0.645604C3.54473 0.450316 3.86114 0.4501 4.05643 0.645336L4.76357 1.35332C4.95872 1.54861 4.95854 1.86522 4.76332 2.06043L3.824 3ZM6.5 9.00004C6.22386 9.00004 6 9.22389 6 9.50004V10.5C6 10.7762 6.22386 11 6.5 11H19.5C19.7761 11 20 10.7762 20 10.5V9.50004C20 9.22389 19.7761 9.00004 19.5 9.00004H6.5ZM19.5 15H1.5C1.22386 15 1 15.2239 1 15.5V16.5C1 16.7762 1.22386 17 1.5 17H19.5C19.7761 17 20 16.7762 20 16.5V15.5C20 15.2239 19.7761 15 19.5 15Z" />
</svg>
