<svg aria-label="menu" viewBox="0 0 24 24"  xmlns="http://www.w3.org/2000/svg">
<path fill-rule="evenodd" clip-rule="evenodd" d="M22 11.5V12.5C22 12.7761 21.7761 13 21.5 13H2.5C2.22386 13 2 12.7761 2 12.5V11.5C2 11.2239 2.22386 11 2.5 11H21.5C21.7761 11 22 11.2239 22 11.5ZM2.5 17H21.4795C21.7556 17 21.9795 17.2239 21.9795 17.5V18.5C21.9795 18.7761 21.7556 19 21.4795 19H2.5C2.22386 19 2 18.7761 2 18.5V17.5C2 17.2239 2.22386 17 2.5 17ZM2.5 5H21.4773C21.7534 5 21.9773 5.22386 21.9773 5.5V6.5C21.9773 6.77614 21.7534 7 21.4773 7H2.5C2.22386 7 2 6.77614 2 6.5V5.5C2 5.22386 2.22386 5 2.5 5Z" />
</svg>
