<svg aria-label="menu with arrow pointing left" viewBox="0 0 24 24"  xmlns="http://www.w3.org/2000/svg">
<path fill-rule="evenodd" clip-rule="evenodd" d="M5.824 5H21.5C21.7761 5 22 5.22386 22 5.5V6.5C22 6.77615 21.7761 7 21.5 7H5.824L6.76331 7.93859C6.95865 8.13377 6.95878 8.45034 6.76359 8.64568L6.05643 9.35332C5.86124 9.54866 5.54478 9.54889 5.34945 9.3537L2.34955 6.35356C2.15431 6.15831 2.15434 5.84172 2.34955 5.64645L5.34949 2.6456C5.54473 2.45032 5.86114 2.4501 6.05643 2.64534L6.76357 3.35332C6.95872 3.54861 6.95854 3.86522 6.76332 4.06043L5.824 5ZM8.5 11C8.22386 11 8 11.2239 8 11.5V12.5C8 12.7762 8.22386 13 8.5 13H21.5C21.7761 13 22 12.7762 22 12.5V11.5C22 11.2239 21.7761 11 21.5 11H8.5ZM21.5 17H3.5C3.22386 17 3 17.2239 3 17.5V18.5C3 18.7762 3.22386 19 3.5 19H21.5C21.7761 19 22 18.7762 22 18.5V17.5C22 17.2239 21.7761 17 21.5 17Z" />
</svg>
