<svg aria-label="menu with arrow pointing right" viewBox="0 0 24 24"  xmlns="http://www.w3.org/2000/svg">
<path fill-rule="evenodd" clip-rule="evenodd" d="M18.176 5H2.5C2.22386 5 2 5.22386 2 5.5V6.5C2 6.77615 2.22386 7 2.5 7H18.176L17.2367 7.93859C17.0414 8.13377 17.0412 8.45034 17.2364 8.64568L17.9436 9.35332C18.1388 9.54866 18.4552 9.54889 18.6506 9.3537L21.6504 6.35356C21.8457 6.15831 21.8457 5.84172 21.6504 5.64645L18.6505 2.6456C18.4553 2.45032 18.1389 2.4501 17.9436 2.64534L17.2364 3.35332C17.0413 3.54861 17.0415 3.86522 17.2367 4.06043L18.176 5ZM15.5 11C15.7761 11 16 11.2239 16 11.5V12.5C16 12.7762 15.7761 13 15.5 13H2.5C2.22386 13 2 12.7762 2 12.5V11.5C2 11.2239 2.22386 11 2.5 11H15.5ZM2.5 17H20.5C20.7761 17 21 17.2239 21 17.5V18.5C21 18.7762 20.7761 19 20.5 19H2.5C2.22386 19 2 18.7762 2 18.5V17.5C2 17.2239 2.22386 17 2.5 17Z" />
</svg>
