<svg aria-label="menu with arrow pointing right" viewBox="0 0 20 20"  xmlns="http://www.w3.org/2000/svg">
<path fill-rule="evenodd" clip-rule="evenodd" d="M16.176 3H0.5C0.223858 3 0 3.22386 0 3.5V4.5C0 4.77615 0.223858 5 0.5 5H16.176L15.2367 5.93859C15.0414 6.13377 15.0412 6.45034 15.2364 6.64568L15.9436 7.35332C16.1388 7.54866 16.4552 7.54889 16.6506 7.3537L19.6504 4.35356C19.8457 4.15831 19.8457 3.84172 19.6504 3.64645L16.6505 0.645604C16.4553 0.450316 16.1389 0.4501 15.9436 0.645336L15.2364 1.35332C15.0413 1.54861 15.0415 1.86522 15.2367 2.06043L16.176 3ZM13.5 9.00004C13.7761 9.00004 14 9.22389 14 9.50004V10.5C14 10.7762 13.7761 11 13.5 11H0.5C0.223858 11 0 10.7762 0 10.5V9.50004C0 9.22389 0.223858 9.00004 0.5 9.00004H13.5ZM0.5 15H18.5C18.7761 15 19 15.2239 19 15.5V16.5C19 16.7762 18.7761 17 18.5 17H0.5C0.223858 17 0 16.7762 0 16.5V15.5C0 15.2239 0.223858 15 0.5 15Z" />
</svg>
