<svg aria-label="notebooks" viewBox="0 0 19 22"  xmlns="http://www.w3.org/2000/svg">
<path fill-rule="evenodd" clip-rule="evenodd" d="M10.5 4H5.5C5.22386 4 5 4.22386 5 4.5V9.5C5 9.7761 5.22386 10 5.5 10H10.5C10.7761 10 11 9.7761 11 9.5V4.5C11 4.22386 10.7761 4 10.5 4ZM7 6V8H9V6H7Z" />
<path fill-rule="evenodd" clip-rule="evenodd" d="M15 1V17C15 17.5523 14.5523 18 14 18H2C1.44772 18 1 17.5523 1 17V14H0.5C0.22386 14 0 13.7761 0 13.5V12.5C0 12.2239 0.22386 12 0.5 12H1V10H0.5C0.22386 10 0 9.7761 0 9.5V8.5C0 8.22386 0.22386 8 0.5 8H1V6H0.5C0.22386 6 0 5.77614 0 5.5V4.5C0 4.22386 0.22386 4 0.5 4H1V1C1 0.44772 1.44772 0 2 0H14C14.5523 0 15 0.44772 15 1ZM3 14V16H13.002L13 2H3V4H3.5C3.77614 4 4 4.22386 4 4.5V5.5C4 5.77614 3.77614 6 3.5 6H3V8H3.5C3.77614 8 4 8.22386 4 8.5V9.5C4 9.7761 3.77614 10 3.5 10H3V12H3.5C3.77614 12 4 12.2239 4 12.5V13.5C4 13.7761 3.77614 14 3.5 14H3Z" />
<path d="M5 20.8V19H7V20C10.3333 20 13.6667 20 17 20V6H16V4H18.1765C18.6313 4 19 4.53726 19 5.2V20.8C19 21.4627 18.6313 22 18.1765 22H5.82353C5.36871 22 5 21.4627 5 20.8Z" />
</svg>
