<svg aria-label="notebooks" viewBox="0 0 24 24"  xmlns="http://www.w3.org/2000/svg">
<path fill-rule="evenodd" clip-rule="evenodd" d="M12.5 5H7.5C7.22386 5 7 5.22386 7 5.5V10.5C7 10.7761 7.22386 11 7.5 11H12.5C12.7761 11 13 10.7761 13 10.5V5.5C13 5.22386 12.7761 5 12.5 5ZM9 7V9H11V7H9Z" />
<path fill-rule="evenodd" clip-rule="evenodd" d="M17 2V18C17 18.5523 16.5523 19 16 19H4C3.44772 19 3 18.5523 3 18V15H2.5C2.22386 15 2 14.7761 2 14.5V13.5C2 13.2239 2.22386 13 2.5 13H3V11H2.5C2.22386 11 2 10.7761 2 10.5V9.5C2 9.22386 2.22386 9 2.5 9H3V7H2.5C2.22386 7 2 6.77614 2 6.5V5.5C2 5.22386 2.22386 5 2.5 5H3V2C3 1.44772 3.44772 1 4 1H16C16.5523 1 17 1.44772 17 2ZM5 15V17H15.002L15 3H5V5H5.5C5.77614 5 6 5.22386 6 5.5V6.5C6 6.77614 5.77614 7 5.5 7H5V9H5.5C5.77614 9 6 9.22386 6 9.5V10.5C6 10.7761 5.77614 11 5.5 11H5V13H5.5C5.77614 13 6 13.2239 6 13.5V14.5C6 14.7761 5.77614 15 5.5 15H5Z" />
<path d="M7 21.8V20H9V21C12.3333 21 15.6667 21 19 21V7H18V5H20.1765C20.6313 5 21 5.53726 21 6.2V21.8C21 22.4627 20.6313 23 20.1765 23H7.82353C7.36871 23 7 22.4627 7 21.8Z" />
</svg>
