<svg aria-label="path" viewBox="0 0 22 20"  xmlns="http://www.w3.org/2000/svg">
<path fill-rule="evenodd" clip-rule="evenodd" d="M3.41132 8L6.85066 11.4393C6.94443 11.5331 6.99711 11.6603 6.99711 11.7929V19.5C6.99711 19.7761 6.77325 20 6.49711 20H5.5C5.22393 20 5.00011 19.7761 5 19.5L4.99711 12.4142L2 9.41711V11.5C2 11.7761 1.77614 12 1.5 12H0.5C0.223858 12 0 11.7761 0 11.5V6.5C0 6.22386 0.223858 6 0.5 6H5.5C5.77614 6 6 6.22386 6 6.5V7.5C6 7.77614 5.77614 8 5.5 8H3.41132ZM20 9.41421L17 12.4142V19.5C17 19.7761 16.7761 20 16.5 20H15.5C15.2239 20 15 19.7761 15 19.5V11.7929C15 11.6603 15.0527 11.5331 15.1464 11.4393L18.5858 8H16.5C16.2239 8 16 7.77614 16 7.5V6.5C16 6.22386 16.2239 6 16.5 6H21.5C21.7761 6 22 6.22386 22 6.5V11.5C22 11.7761 21.7761 12 21.5 12H20.5C20.2239 12 20 11.7761 20 11.5V9.41421ZM11.5001 19.9999H10.5001C10.2239 19.9999 10.0001 19.7761 10.0001 19.4999V3.83099L8.52782 5.30323C8.33256 5.49849 8.01598 5.49849 7.82072 5.30323L7.11361 4.59612C6.91835 4.40086 6.91835 4.08427 7.11361 3.88901L10.6491 0.353478C10.8444 0.158216 11.161 0.158216 11.3563 0.353478L14.8918 3.88901C15.087 4.08427 15.087 4.40086 14.8918 4.59612L14.1847 5.30323C13.9894 5.49849 13.6728 5.49849 13.4776 5.30323L12.0001 3.82571V19.4999C12.0001 19.7761 11.7762 19.9999 11.5001 19.9999Z" />
</svg>
