<svg aria-label="path" viewBox="0 0 24 24"  xmlns="http://www.w3.org/2000/svg">
<path fill-rule="evenodd" clip-rule="evenodd" d="M4.41132 9L7.85066 12.4393C7.94443 12.5331 7.99711 12.6603 7.99711 12.7929V20.5C7.99711 20.7761 7.77325 21 7.49711 21H6.5C6.22393 21 6.00011 20.7761 6 20.5L5.99711 13.4142L3 10.4171V12.5C3 12.7761 2.77614 13 2.5 13H1.5C1.22386 13 1 12.7761 1 12.5V7.5C1 7.22386 1.22386 7 1.5 7H6.5C6.77614 7 7 7.22386 7 7.5V8.5C7 8.77614 6.77614 9 6.5 9H4.41132ZM21 10.4142L18 13.4142V20.5C18 20.7761 17.7761 21 17.5 21H16.5C16.2239 21 16 20.7761 16 20.5V12.7929C16 12.6603 16.0527 12.5331 16.1464 12.4393L19.5858 9H17.5C17.2239 9 17 8.77614 17 8.5V7.5C17 7.22386 17.2239 7 17.5 7H22.5C22.7761 7 23 7.22386 23 7.5V12.5C23 12.7761 22.7761 13 22.5 13H21.5C21.2239 13 21 12.7761 21 12.5V10.4142ZM12.5001 20.9999H11.5001C11.2239 20.9999 11.0001 20.7761 11.0001 20.4999V4.83099L9.52782 6.30323C9.33256 6.49849 9.01598 6.49849 8.82072 6.30323L8.11361 5.59612C7.91835 5.40086 7.91835 5.08427 8.11361 4.88901L11.6491 1.35348C11.8444 1.15822 12.161 1.15822 12.3563 1.35348L15.8918 4.88901C16.087 5.08427 16.087 5.40086 15.8918 5.59612L15.1847 6.30323C14.9894 6.49849 14.6728 6.49849 14.4776 6.30323L13.0001 4.82571V20.4999C13.0001 20.7761 12.7762 20.9999 12.5001 20.9999Z" />
</svg>
