<svg aria-label="RSS icon" viewBox="0 0 16 16"  xmlns="http://www.w3.org/2000/svg">
<path fill-rule="evenodd" clip-rule="evenodd" d="M0 0.440002C8.59357 0.440002 15.56 7.40643 15.56 16.0001H12.73C12.73 8.96942 7.03058 3.26996 0 3.26996V0.440002ZM2.17999 11.64C3.38397 11.64 4.35999 12.616 4.35999 13.82C4.35999 14.9999 3.38 15.9999 2.17999 15.9999C1 15.9999 0 14.9999 0 13.82C0 12.616 0.976013 11.64 2.17999 11.64ZM9.90002 16.0001C9.90002 10.5324 5.46759 6.10004 0 6.10004V8.92999C1.87506 8.92999 3.67334 9.67487 4.99927 11.0008C6.32513 12.3267 7.07001 14.1249 7.07001 16.0001H9.90002Z" />
</svg>
