<svg aria-label="tag assignments" viewBox="0 0 24 24"  xmlns="http://www.w3.org/2000/svg">
<path fill-rule="evenodd" clip-rule="evenodd" d="M13.905 19.612C13.9987 19.5182 14.0514 19.3911 14.0514 19.2585C14.0514 19.1259 13.9987 18.9988 13.905 18.905L13.104 18.104C13.0576 18.0574 13.0024 18.0205 12.9416 17.9953C12.8809 17.9701 12.8158 17.9571 12.75 17.9571C12.6842 17.9571 12.6191 17.9701 12.5584 17.9953C12.4976 18.0205 12.4424 18.0574 12.396 18.104L12 18.5L3.004 9.603L3 5H7.602L11.423 8.865C11.4693 8.91199 11.5245 8.94935 11.5854 8.97491C11.6463 9.00046 11.7116 9.01371 11.7776 9.0139C11.8436 9.01409 11.909 9.0012 11.97 8.97599C12.031 8.95078 12.0864 8.91373 12.133 8.867L12.819 8.181C12.9127 8.08724 12.9654 7.96008 12.9654 7.8275C12.9654 7.69492 12.9127 7.56776 12.819 7.474L8.652 3.304C8.55561 3.20761 8.44117 3.13116 8.31524 3.079C8.1893 3.02684 8.05431 2.99999 7.918 3H2.038C1.76252 3.00053 1.49851 3.11033 1.3039 3.30532C1.1093 3.5003 0.999999 3.76452 1 4.04L1.006 9.92C1.006 10.195 1.116 10.459 1.31 10.653L11.353 20.696C11.5478 20.8907 11.812 21.0001 12.0875 21.0001C12.363 21.0001 12.6272 20.8907 12.822 20.696L13.905 19.612Z" />
<path fill-rule="evenodd" clip-rule="evenodd" d="M5.615 9.115C6.01282 9.115 6.39436 8.95696 6.67566 8.67566C6.95696 8.39436 7.115 8.01282 7.115 7.615C7.115 7.21718 6.95696 6.83564 6.67566 6.55434C6.39436 6.27304 6.01282 6.115 5.615 6.115C5.21718 6.115 4.83564 6.27304 4.55434 6.55434C4.27304 6.83564 4.115 7.21718 4.115 7.615C4.115 8.01282 4.27304 8.39436 4.55434 8.67566C4.83564 8.95696 5.21718 9.115 5.615 9.115Z" />
<path d="M18.5 12H15.5C15.3674 12 15.2402 12.0527 15.1464 12.1464C15.0527 12.2402 15 12.3674 15 12.5V13.5C15 13.6326 15.0527 13.7598 15.1464 13.8536C15.2402 13.9473 15.3674 14 15.5 14H18.5C18.6326 14 18.7598 13.9473 18.8536 13.8536C18.9473 13.7598 19 13.6326 19 13.5V12.5C19 12.3674 18.9473 12.2402 18.8536 12.1464C18.7598 12.0527 18.6326 12 18.5 12Z" />
<path fill-rule="evenodd" clip-rule="evenodd" d="M19 11H18.5C18.3674 11 18.2402 10.9473 18.1464 10.8536C18.0527 10.7598 18 10.6326 18 10.5V9.5C18 9.36739 18.0527 9.24021 18.1464 9.14645C18.2402 9.05268 18.3674 9 18.5 9H19C20.0609 9 21.0783 9.42143 21.8284 10.1716C22.5786 10.9217 23 11.9391 23 13C23 14.0609 22.5786 15.0783 21.8284 15.8284C21.0783 16.5786 20.0609 17 19 17H18.5C18.3674 17 18.2402 16.9473 18.1464 16.8536C18.0527 16.7598 18 16.6326 18 16.5V15.5C18 15.3674 18.0527 15.2402 18.1464 15.1464C18.2402 15.0527 18.3674 15 18.5 15H19C19.5304 15 20.0391 14.7893 20.4142 14.4142C20.7893 14.0391 21 13.5304 21 13C21 12.4696 20.7893 11.9609 20.4142 11.5858C20.0391 11.2107 19.5304 11 19 11ZM16 15.5C16 15.3674 15.9473 15.2402 15.8536 15.1464C15.7598 15.0527 15.6326 15 15.5 15H15C14.4696 15 13.9609 14.7893 13.5858 14.4142C13.2107 14.0391 13 13.5304 13 13C13 12.4696 13.2107 11.9609 13.5858 11.5858C13.9609 11.2107 14.4696 11 15 11H15.5C15.6326 11 15.7598 10.9473 15.8536 10.8536C15.9473 10.7598 16 10.6326 16 10.5V9.5C16 9.36739 15.9473 9.24021 15.8536 9.14645C15.7598 9.05268 15.6326 9 15.5 9H15C13.9391 9 12.9217 9.42143 12.1716 10.1716C11.4214 10.9217 11 11.9391 11 13C11 14.0609 11.4214 15.0783 12.1716 15.8284C12.9217 16.5786 13.9391 17 15 17H15.5C15.6326 17 15.7598 16.9473 15.8536 16.8536C15.9473 16.7598 16 16.6326 16 16.5V15.5Z" />
</svg>
