<svg aria-label="tag assignments" viewBox="0 0 22 18"  xmlns="http://www.w3.org/2000/svg">
<path fill-rule="evenodd" clip-rule="evenodd" d="M12.905 16.612C12.9987 16.5182 13.0514 16.3911 13.0514 16.2585C13.0514 16.1259 12.9987 15.9988 12.905 15.905L12.104 15.104C12.0576 15.0574 12.0024 15.0205 11.9416 14.9953C11.8809 14.9701 11.8158 14.9571 11.75 14.9571C11.6842 14.9571 11.6191 14.9701 11.5584 14.9953C11.4976 15.0205 11.4424 15.0574 11.396 15.104L11 15.5L2.004 6.603L2 2H6.602L10.423 5.865C10.4693 5.91199 10.5245 5.94935 10.5854 5.97491C10.6463 6.00046 10.7116 6.01371 10.7776 6.0139C10.8436 6.01409 10.909 6.0012 10.97 5.97599C11.031 5.95078 11.0864 5.91373 11.133 5.867L11.819 5.181C11.9127 5.08724 11.9654 4.96008 11.9654 4.8275C11.9654 4.69492 11.9127 4.56776 11.819 4.474L7.652 0.304C7.55561 0.207614 7.44117 0.131158 7.31524 0.0789979C7.1893 0.0268374 7.05431 -6.08215e-06 6.918 1.03364e-09H1.038C0.762522 0.000529768 0.498507 0.110335 0.303902 0.305315C0.109296 0.500296 -5.0939e-07 0.764521 0 1.04L0.00600004 6.92C0.00600004 7.195 0.116 7.459 0.31 7.653L10.353 17.696C10.5478 17.8907 10.812 18.0001 11.0875 18.0001C11.363 18.0001 11.6272 17.8907 11.822 17.696L12.905 16.612Z" />
<path fill-rule="evenodd" clip-rule="evenodd" d="M4.615 6.115C5.01282 6.115 5.39436 5.95696 5.67566 5.67566C5.95696 5.39436 6.115 5.01282 6.115 4.615C6.115 4.21718 5.95696 3.83564 5.67566 3.55434C5.39436 3.27304 5.01282 3.115 4.615 3.115C4.21718 3.115 3.83564 3.27304 3.55434 3.55434C3.27304 3.83564 3.115 4.21718 3.115 4.615C3.115 5.01282 3.27304 5.39436 3.55434 5.67566C3.83564 5.95696 4.21718 6.115 4.615 6.115Z" />
<path d="M17.5 9H14.5C14.3674 9 14.2402 9.05268 14.1464 9.14645C14.0527 9.24021 14 9.36739 14 9.5V10.5C14 10.6326 14.0527 10.7598 14.1464 10.8536C14.2402 10.9473 14.3674 11 14.5 11H17.5C17.6326 11 17.7598 10.9473 17.8536 10.8536C17.9473 10.7598 18 10.6326 18 10.5V9.5C18 9.36739 17.9473 9.24021 17.8536 9.14645C17.7598 9.05268 17.6326 9 17.5 9Z" />
<path fill-rule="evenodd" clip-rule="evenodd" d="M18 8H17.5C17.3674 8 17.2402 7.94732 17.1464 7.85355C17.0527 7.75979 17 7.63261 17 7.5V6.5C17 6.36739 17.0527 6.24021 17.1464 6.14645C17.2402 6.05268 17.3674 6 17.5 6H18C19.0609 6 20.0783 6.42143 20.8284 7.17157C21.5786 7.92172 22 8.93913 22 10C22 11.0609 21.5786 12.0783 20.8284 12.8284C20.0783 13.5786 19.0609 14 18 14H17.5C17.3674 14 17.2402 13.9473 17.1464 13.8536C17.0527 13.7598 17 13.6326 17 13.5V12.5C17 12.3674 17.0527 12.2402 17.1464 12.1464C17.2402 12.0527 17.3674 12 17.5 12H18C18.5304 12 19.0391 11.7893 19.4142 11.4142C19.7893 11.0391 20 10.5304 20 10C20 9.46957 19.7893 8.96086 19.4142 8.58579C19.0391 8.21071 18.5304 8 18 8ZM15 12.5C15 12.3674 14.9473 12.2402 14.8536 12.1464C14.7598 12.0527 14.6326 12 14.5 12H14C13.4696 12 12.9609 11.7893 12.5858 11.4142C12.2107 11.0391 12 10.5304 12 10C12 9.46957 12.2107 8.96086 12.5858 8.58579C12.9609 8.21071 13.4696 8 14 8H14.5C14.6326 8 14.7598 7.94732 14.8536 7.85355C14.9473 7.75979 15 7.63261 15 7.5V6.5C15 6.36739 14.9473 6.24021 14.8536 6.14645C14.7598 6.05268 14.6326 6 14.5 6H14C12.9391 6 11.9217 6.42143 11.1716 7.17157C10.4214 7.92172 10 8.93913 10 10C10 11.0609 10.4214 12.0783 11.1716 12.8284C11.9217 13.5786 12.9391 14 14 14H14.5C14.6326 14 14.7598 13.9473 14.8536 13.8536C14.9473 13.7598 15 13.6326 15 13.5V12.5Z" />
</svg>
