<svg aria-label="closed caption (filled)" viewBox="0 0 22 18"  xmlns="http://www.w3.org/2000/svg">
<path fill-rule="evenodd" clip-rule="evenodd" d="M1 0H21C21.5523 0 22 0.447754 22 1V17C22 17.5522 21.5523 18 21 18H1C0.447693 18 0 17.5522 0 17V1C0 0.447754 0.447693 0 1 0ZM7.52399 13.132C9.00903 13.132 9.88904 12.604 10.681 11.757L9.60303 10.668C8.99799 11.218 8.45898 11.5699 7.57904 11.5699C6.25903 11.5699 5.34601 10.47 5.34601 9.15002C5.34601 7.80798 6.28101 6.72998 7.57904 6.72998C8.349 6.72998 8.95404 7.05994 9.54803 7.599L10.626 6.35596C9.91101 5.65198 9.04199 5.16797 7.59003 5.16797C5.22504 5.16797 3.57501 6.96094 3.57501 9.15002C3.57501 11.3829 5.258 13.132 7.52399 13.132ZM18.579 11.757C17.787 12.604 16.907 13.132 15.422 13.132C13.156 13.132 11.473 11.3829 11.473 9.15002C11.473 6.96094 13.123 5.16797 15.488 5.16797C16.94 5.16797 17.809 5.65198 18.524 6.35596L17.446 7.599C16.8521 7.05994 16.247 6.72998 15.4771 6.72998C14.179 6.72998 13.244 7.80798 13.244 9.15002C13.244 10.47 14.157 11.5699 15.4771 11.5699C16.357 11.5699 16.896 11.218 17.501 10.668L18.579 11.757Z" />
</svg>
