<svg aria-label="fullscreen" viewBox="0 0 18 18"  xmlns="http://www.w3.org/2000/svg">
<path d="M11.5 0H17.5C17.7761 0 18 0.223877 18 0.5V6.5C18 6.77612 17.7761 7 17.5 7H16.5C16.2239 7 16 6.77612 16 6.5V3.41418L11.3535 8.06067C11.1583 8.25598 10.8417 8.25598 10.6464 8.06067L9.93933 7.35364C9.74402 7.15833 9.74402 6.8418 9.93933 6.64648L14.5858 2H11.5C11.2239 2 11 1.77612 11 1.5V0.5C11 0.223877 11.2239 0 11.5 0Z" />
<path d="M6.64642 9.93933L2 14.5857V11.5C2 11.2239 1.77612 11 1.5 11H0.5C0.223877 11 0 11.2239 0 11.5V17.5C0 17.7761 0.223877 18 0.5 18H6.5C6.77612 18 7 17.7761 7 17.5V16.5C7 16.2239 6.77612 16 6.5 16H3.41418L8.06067 11.3535C8.25592 11.1582 8.25592 10.8417 8.06067 10.6464L7.35352 9.93933C7.15826 9.74402 6.84167 9.74402 6.64642 9.93933Z" />
</svg>
