<svg aria-label="exit fullscreen" viewBox="0 0 22 22"  xmlns="http://www.w3.org/2000/svg">
<path d="M19.6464 0.939331L14 6.58557V3.49988C14 3.22375 13.7761 2.99988 13.5 2.99988H12.5C12.2239 2.99988 12 3.22375 12 3.49988V9.49988C12 9.776 12.2239 9.99988 12.5 9.99988H18.5C18.7761 9.99988 19 9.776 19 9.49988V8.49988C19 8.22375 18.7761 7.99988 18.5 7.99988H15.4143L21.0607 2.35339C21.2559 2.15833 21.2559 1.84167 21.0607 1.64636L20.3535 0.939331C20.1583 0.744019 19.8417 0.744019 19.6464 0.939331Z" />
<path d="M6.58594 13.9999L0.939331 19.6464C0.744019 19.8417 0.744019 20.1583 0.939331 20.3536L1.64642 21.0607C1.84167 21.256 2.15826 21.256 2.35352 21.0607L8 15.4142V18.4999C8 18.776 8.22388 18.9999 8.5 18.9999H9.5C9.77612 18.9999 10 18.776 10 18.4999V12.4999C10 12.2238 9.77612 11.9999 9.5 11.9999H3.5C3.22388 11.9999 3 12.2238 3 12.4999V13.4999C3 13.776 3.22388 13.9999 3.5 13.9999H6.58594Z" />
</svg>
