<svg aria-label="exit fullscreen" viewBox="0 0 24 24"  xmlns="http://www.w3.org/2000/svg">
<path d="M20.6464 1.93933L15 7.58557V4.49988C15 4.22375 14.7761 3.99988 14.5 3.99988H13.5C13.2239 3.99988 13 4.22375 13 4.49988V10.4999C13 10.776 13.2239 10.9999 13.5 10.9999H19.5C19.7761 10.9999 20 10.776 20 10.4999V9.49988C20 9.22375 19.7761 8.99988 19.5 8.99988H16.4143L22.0607 3.35339C22.2559 3.15833 22.2559 2.84167 22.0607 2.64636L21.3535 1.93933C21.1583 1.74402 20.8417 1.74402 20.6464 1.93933Z" />
<path d="M7.58594 14.9999L1.93933 20.6464C1.74402 20.8417 1.74402 21.1583 1.93933 21.3536L2.64642 22.0607C2.84167 22.256 3.15826 22.256 3.35352 22.0607L9 16.4142V19.4999C9 19.776 9.22388 19.9999 9.5 19.9999H10.5C10.7761 19.9999 11 19.776 11 19.4999V13.4999C11 13.2238 10.7761 12.9999 10.5 12.9999H4.5C4.22388 12.9999 4 13.2238 4 13.4999V14.4999C4 14.776 4.22388 14.9999 4.5 14.9999H7.58594Z" />
</svg>
