<svg aria-label="microphone" viewBox="0 0 24 24"  xmlns="http://www.w3.org/2000/svg">
<path fill-rule="evenodd" clip-rule="evenodd" d="M14.9899 11C14.9899 12.66 13.66 14 11.9999 14C10.3399 14 8.99994 12.66 8.99994 11V5C8.99994 3.33997 10.3399 2 11.9999 2C13.66 2 14.9999 3.33997 14.9999 5L14.9899 11ZM11.9999 3.69995C11.34 3.69995 10.8 4.23999 10.8 4.8999V11.1C10.8 11.76 11.34 12.2999 11.9999 12.2999C12.66 12.2999 13.19 11.76 13.19 11.1L13.2 4.8999C13.2 4.23999 12.66 3.69995 11.9999 3.69995Z" />
<path d="M17.269 11.4575C17.2469 11.7162 17.2199 11.9198 17.188 12.0682C16.6691 14.4868 14.419 16.1 11.9999 16.1C9.58136 16.1 7.33173 14.4874 6.81219 12.0697C6.78021 11.9209 6.75311 11.7168 6.73102 11.4575C6.70892 11.1989 6.49249 11 6.23285 11H5.53143C5.25531 11 5.03143 11.2239 5.03143 11.5C5.03143 11.5132 5.03192 11.5262 5.03302 11.5393C5.05365 11.8013 5.07855 12.0107 5.10785 12.1677C5.64288 15.0369 8.10297 17.2872 10.9999 17.72V20H9.49994C9.22382 20 8.99994 20.2239 8.99994 20.5V21.5C8.99994 21.7761 9.22382 22 9.49994 22H14.4999C14.7761 22 14.9999 21.7761 14.9999 21.5V20.5C14.9999 20.2239 14.7761 20 14.4999 20H12.9999V17.72C15.9273 17.2916 18.4086 14.9994 18.9084 12.0802C18.9319 11.9426 18.9521 11.7618 18.9691 11.5377C18.9899 11.2623 18.7836 11.0223 18.5082 11.0015C18.4957 11.0005 18.4831 11 18.4705 11H17.7673C17.5075 11 17.2911 11.1987 17.269 11.4575Z" />
</svg>
