<svg aria-label="microphone" viewBox="0 0 14 20"  xmlns="http://www.w3.org/2000/svg">
<path fill-rule="evenodd" clip-rule="evenodd" d="M9.98993 9C9.98993 10.66 8.65997 12 6.99994 12C5.3399 12 3.99994 10.66 3.99994 9V3C3.99994 1.33997 5.3399 0 6.99994 0C8.65997 0 9.99994 1.33997 9.99994 3L9.98993 9ZM6.99994 1.69995C6.34003 1.69995 5.79999 2.23999 5.79999 2.8999V9.09998C5.79999 9.76001 6.34003 10.2999 6.99994 10.2999C7.65997 10.2999 8.19 9.76001 8.19 9.09998L8.20001 2.8999C8.20001 2.23999 7.65997 1.69995 6.99994 1.69995Z" />
<path d="M12.269 9.45752C12.2469 9.71619 12.2199 9.9198 12.188 10.0682C11.6691 12.4868 9.41901 14.1 6.99994 14.1C4.58136 14.1 2.33173 12.4874 1.81219 10.0697C1.78021 9.9209 1.75311 9.7168 1.73102 9.45752C1.70892 9.19885 1.49249 9 1.23285 9H0.531433C0.25531 9 0.0314331 9.22388 0.0314331 9.5C0.0314331 9.51318 0.0319214 9.52625 0.03302 9.53931C0.0536499 9.80127 0.0785522 10.0107 0.107849 10.1677C0.642883 13.0369 3.10297 15.2872 5.99994 15.72V18H4.49994C4.22382 18 3.99994 18.2239 3.99994 18.5V19.5C3.99994 19.7761 4.22382 20 4.49994 20H9.49994C9.77606 20 9.99994 19.7761 9.99994 19.5V18.5C9.99994 18.2239 9.77606 18 9.49994 18H7.99994V15.72C10.9273 15.2916 13.4086 12.9994 13.9084 10.0802C13.9319 9.94263 13.9521 9.76184 13.9691 9.53772C13.9899 9.26233 13.7836 9.02234 13.5082 9.00146C13.4957 9.00049 13.4831 9 13.4705 9H12.7673C12.5075 9 12.2911 9.19873 12.269 9.45752Z" />
</svg>
