<svg aria-label="next" viewBox="0 0 13 14"  xmlns="http://www.w3.org/2000/svg">
<path d="M12.5 0H11.5C11.2239 0 11 0.223877 11 0.5V13.5C11 13.7761 11.2239 14 11.5 14H12.5C12.7761 14 13 13.7761 13 13.5V0.5C13 0.223877 12.7761 0 12.5 0Z" />
<path d="M10.3372 6.57825L0.768433 0.489014C0.688232 0.437988 0.595093 0.410889 0.5 0.410889C0.223877 0.410889 0 0.634766 0 0.910889V13.0892C0 13.1843 0.0270996 13.2775 0.078125 13.3577C0.22644 13.5906 0.535522 13.6593 0.768433 13.511L10.3372 7.42188C10.3988 7.38257 10.4512 7.3302 10.4905 7.26843C10.6388 7.03552 10.5701 6.72644 10.3372 6.57825Z" />
</svg>
