<svg aria-label="pause (filled)" viewBox="0 0 24 24"  xmlns="http://www.w3.org/2000/svg">
<path fill-rule="evenodd" clip-rule="evenodd" d="M2 12C2 6.48001 6.47998 2 12 2C17.52 2 22 6.48001 22 12C22 17.52 17.52 22 12 22C6.47998 22 2 17.52 2 12ZM9.25 8C9.11193 8 9 8.11193 9 8.25V15.75C9 15.8881 9.11193 16 9.25 16H10.75C10.8881 16 11 15.8881 11 15.75V8.25C11 8.11193 10.8881 8 10.75 8H9.25ZM13.25 8C13.1119 8 13 8.11193 13 8.25V15.75C13 15.8881 13.1119 16 13.25 16H14.75C14.8881 16 15 15.8881 15 15.75V8.25C15 8.11193 14.8881 8 14.75 8H13.25Z" />
</svg>
