<svg aria-label="pause" viewBox="0 0 20 20"  xmlns="http://www.w3.org/2000/svg">
<path d="M7 6.25C7 6.11193 7.11193 6 7.25 6H8.75C8.88807 6 9 6.11193 9 6.25V13.75C9 13.8881 8.88807 14 8.75 14H7.25C7.11193 14 7 13.8881 7 13.75V6.25Z" />
<path d="M11 6.25C11 6.11193 11.1119 6 11.25 6H12.75C12.8881 6 13 6.11193 13 6.25V13.75C13 13.8881 12.8881 14 12.75 14H11.25C11.1119 14 11 13.8881 11 13.75V6.25Z" />
<path fill-rule="evenodd" clip-rule="evenodd" d="M10 0C4.47998 0 0 4.48001 0 10C0 15.52 4.47998 20 10 20C15.52 20 20 15.52 20 10C20 4.48001 15.52 0 10 0ZM10 18C5.58997 18 2 14.41 2 10C2 5.59 5.58997 2 10 2C14.41 2 18 5.59 18 10C18 14.41 14.41 18 10 18Z" />
</svg>
