<svg aria-label="pause" viewBox="0 0 24 24"  xmlns="http://www.w3.org/2000/svg">
<path d="M9 8.25C9 8.11193 9.11193 8 9.25 8H10.75C10.8881 8 11 8.11193 11 8.25V15.75C11 15.8881 10.8881 16 10.75 16H9.25C9.11193 16 9 15.8881 9 15.75V8.25Z" />
<path d="M13 8.25C13 8.11193 13.1119 8 13.25 8H14.75C14.8881 8 15 8.11193 15 8.25V15.75C15 15.8881 14.8881 16 14.75 16H13.25C13.1119 16 13 15.8881 13 15.75V8.25Z" />
<path fill-rule="evenodd" clip-rule="evenodd" d="M12 2C6.47998 2 2 6.48001 2 12C2 17.52 6.47998 22 12 22C17.52 22 22 17.52 22 12C22 6.48001 17.52 2 12 2ZM12 20C7.58997 20 4 16.41 4 12C4 7.59 7.58997 4 12 4C16.41 4 20 7.59 20 12C20 16.41 16.41 20 12 20Z" />
</svg>
