<svg aria-label="pause (filled)" viewBox="0 0 20 20"  xmlns="http://www.w3.org/2000/svg">
<path fill-rule="evenodd" clip-rule="evenodd" d="M0 10C0 4.48001 4.47998 0 10 0C15.52 0 20 4.48001 20 10C20 15.52 15.52 20 10 20C4.47998 20 0 15.52 0 10ZM7.25 6C7.11193 6 7 6.11193 7 6.25V13.75C7 13.8881 7.11193 14 7.25 14H8.75C8.88807 14 9 13.8881 9 13.75V6.25C9 6.11193 8.88807 6 8.75 6H7.25ZM11.25 6C11.1119 6 11 6.11193 11 6.25V13.75C11 13.8881 11.1119 14 11.25 14H12.75C12.8881 14 13 13.8881 13 13.75V6.25C13 6.11193 12.8881 6 12.75 6H11.25Z" />
</svg>
