<svg aria-label="play (filled)" viewBox="0 0 24 24"  xmlns="http://www.w3.org/2000/svg">
<path fill-rule="evenodd" clip-rule="evenodd" d="M2 12C2 6.48001 6.47998 2 12 2C17.52 2 22 6.48001 22 12C22 17.52 17.52 22 12 22C6.47998 22 2 17.52 2 12ZM10.3887 15.7408L15.688 12.2079C15.8029 12.1313 15.8339 11.9761 15.7573 11.8613C15.739 11.8338 15.7155 11.8102 15.688 11.7919L10.3887 8.25906C10.2738 8.18247 10.1185 8.2135 10.042 8.3284C10.0146 8.36945 10 8.41773 10 8.46707V15.5328C10 15.6709 10.1119 15.7828 10.25 15.7828C10.2993 15.7828 10.3477 15.7682 10.3887 15.7408Z" />
</svg>
