<svg aria-label="play" viewBox="0 0 24 24"  xmlns="http://www.w3.org/2000/svg">
<path d="M15.688 12.208L10.3887 15.7409C10.3477 15.7682 10.2993 15.7829 10.25 15.7829C10.1119 15.7829 10 15.6709 10 15.5329V8.46713C10 8.41779 10.0146 8.36951 10.042 8.32846C10.1185 8.21356 10.2738 8.18253 10.3887 8.25912L15.688 11.792C15.7155 11.8103 15.739 11.8339 15.7573 11.8613C15.8339 11.9762 15.8029 12.1314 15.688 12.208Z" />
<path fill-rule="evenodd" clip-rule="evenodd" d="M12 2C6.47998 2 2 6.48001 2 12C2 17.52 6.47998 22 12 22C17.52 22 22 17.52 22 12C22 6.48001 17.52 2 12 2ZM12 20C7.58997 20 4 16.41 4 12C4 7.59 7.58997 4 12 4C16.41 4 20 7.59 20 12C20 16.41 16.41 20 12 20Z" />
</svg>
