<svg aria-label="play" viewBox="0 0 20 20"  xmlns="http://www.w3.org/2000/svg">
<path d="M13.688 10.208L8.38867 13.7409C8.34766 13.7682 8.29932 13.7829 8.25 13.7829C8.11194 13.7829 8 13.6709 8 13.5329V6.46713C8 6.41779 8.01465 6.36951 8.04199 6.32846C8.11853 6.21356 8.2738 6.18253 8.38867 6.25912L13.688 9.79199C13.7155 9.8103 13.739 9.83386 13.7573 9.86133C13.8339 9.9762 13.8029 10.1314 13.688 10.208Z" />
<path fill-rule="evenodd" clip-rule="evenodd" d="M10 0C4.47998 0 0 4.48001 0 10C0 15.52 4.47998 20 10 20C15.52 20 20 15.52 20 10C20 4.48001 15.52 0 10 0ZM10 18C5.58997 18 2 14.41 2 10C2 5.59 5.58997 2 10 2C14.41 2 18 5.59 18 10C18 14.41 14.41 18 10 18Z" />
</svg>
