<svg aria-label="play (filled)" viewBox="0 0 20 20"  xmlns="http://www.w3.org/2000/svg">
<path fill-rule="evenodd" clip-rule="evenodd" d="M0 10C0 4.48001 4.47998 0 10 0C15.52 0 20 4.48001 20 10C20 15.52 15.52 20 10 20C4.47998 20 0 15.52 0 10ZM8.38867 13.7408L13.688 10.2079C13.8029 10.1313 13.8339 9.97614 13.7573 9.86127C13.739 9.8338 13.7155 9.81024 13.688 9.79193L8.38867 6.25906C8.2738 6.18247 8.11853 6.2135 8.04199 6.3284C8.01465 6.36945 8 6.41773 8 6.46707V13.5328C8 13.6709 8.11194 13.7828 8.25 13.7828C8.29932 13.7828 8.34766 13.7682 8.38867 13.7408Z" />
</svg>
