<svg aria-label="podcast" viewBox="0 0 20 19"  xmlns="http://www.w3.org/2000/svg">
<path fill-rule="evenodd" clip-rule="evenodd" d="M3.17542 17.3093C3.23853 17.3682 3.31836 17.4395 3.41516 17.5229C3.44507 17.5488 3.47974 17.5684 3.51721 17.5807C3.67432 17.6324 3.84363 17.5471 3.89526 17.39C3.97937 17.1348 4.10571 16.7926 4.27441 16.3634C4.34741 16.1777 4.3031 15.9664 4.1615 15.8257C4.07153 15.7364 3.99915 15.662 3.94421 15.6027C2.58228 14.1314 1.75 12.1629 1.75 10C1.75 5.44366 5.4436 1.75 10 1.75C14.5564 1.75 18.25 5.44366 18.25 10C18.25 12.1411 17.4344 14.0916 16.097 15.5579C16.0328 15.6282 15.9464 15.7175 15.8379 15.8256C15.6967 15.9662 15.6525 16.1773 15.7253 16.3628C15.8942 16.7924 16.0206 17.1348 16.1047 17.3902C16.1171 17.4277 16.1367 17.4625 16.1626 17.4924C16.2709 17.6179 16.4603 17.6319 16.5859 17.5236C16.6444 17.4731 16.6946 17.4288 16.7363 17.3907C18.7417 15.562 20 12.9279 20 10C20 4.47717 15.5228 0 10 0C4.47717 0 0 4.47717 0 10C0 12.8847 1.22144 15.4841 3.17542 17.3093ZM5.14404 13.5249L5.14539 13.5267C5.16528 13.554 5.18787 13.5793 5.21289 13.6021C5.41711 13.7879 5.73328 13.7731 5.91919 13.5689L6.43701 13.0001C6.59399 12.8278 6.61096 12.5699 6.47803 12.3784C6.46094 12.3537 6.44568 12.3311 6.43237 12.3106C6.00073 11.6454 5.75 10.852 5.75 10C5.75 7.65277 7.65283 5.75 10 5.75C12.3472 5.75 14.25 7.65277 14.25 10C14.25 10.8187 14.0184 11.5834 13.6174 12.2321C13.5918 12.2734 13.5599 12.3214 13.5216 12.3763C13.3879 12.5678 13.4047 12.8264 13.562 12.9991L14.0978 13.5876C14.1191 13.6111 14.1428 13.6324 14.1683 13.6512C14.3817 13.8079 14.6818 13.762 14.8386 13.5486C15.5687 12.5548 16 11.3278 16 10C16 6.68628 13.3137 4 10 4C6.68628 4 4 6.68628 4 10C4 11.3172 4.42444 12.5353 5.14404 13.5249ZM10 13.5C11.8121 13.5 13.2139 15.0052 14.205 18.0155C14.3345 18.4089 14.1206 18.8328 13.7272 18.9624C13.6515 18.9873 13.5723 19 13.4927 19H6.50732C6.09314 19 5.75732 18.6642 5.75732 18.25C5.75732 18.1703 5.77002 18.0911 5.79492 18.0154C6.78613 15.0051 8.18774 13.5 10 13.5ZM7.75 10C7.75 11.2426 8.75732 12.25 10 12.25C11.2427 12.25 12.25 11.2426 12.25 10C12.25 8.75739 11.2427 7.75 10 7.75C8.75732 7.75 7.75 8.75739 7.75 10Z" />
</svg>
