<svg aria-label="previous" viewBox="0 0 13 14"  xmlns="http://www.w3.org/2000/svg">
<path d="M1.5 0H0.5C0.223877 0 0 0.223877 0 0.5V13.5C0 13.7761 0.223877 14 0.5 14H1.5C1.77612 14 2 13.7761 2 13.5V0.5C2 0.223877 1.77612 0 1.5 0Z" />
<path d="M2.66284 6.57825L12.2316 0.489014C12.3118 0.437988 12.4049 0.410889 12.5 0.410889C12.7761 0.410889 13 0.634766 13 0.910889V13.0892C13 13.1843 12.9729 13.2775 12.9219 13.3577C12.7736 13.5906 12.4646 13.6593 12.2316 13.511L2.66284 7.42188C2.6012 7.38257 2.54883 7.3302 2.50952 7.26843C2.36121 7.03552 2.42993 6.72644 2.66284 6.57825Z" />
</svg>
