<svg aria-label="screenshare" viewBox="0 0 20 16"  xmlns="http://www.w3.org/2000/svg">
<path fill-rule="evenodd" clip-rule="evenodd" d="M0 13C0 13.2652 0.105357 13.5196 0.292893 13.7071C0.48043 13.8946 0.734784 14 1 14H3.172L5.172 12H2V2H18V12H14.828L16.828 14H19C19.2652 14 19.5196 13.8946 19.7071 13.7071C19.8946 13.5196 20 13.2652 20 13V1C20 0.734784 19.8946 0.48043 19.7071 0.292893C19.5196 0.105357 19.2652 0 19 0H1C0.734784 0 0.48043 0.105357 0.292893 0.292893C0.105357 0.48043 0 0.734784 0 1V13ZM10 10L4 16H16L10 10Z" />
</svg>
