<svg aria-label="skip backward" viewBox="0 0 19 20"  xmlns="http://www.w3.org/2000/svg">
<path fill-rule="evenodd" clip-rule="evenodd" d="M9 0C14.5228 0 19 4.47715 19 10C19 15.5228 14.5228 20 9 20C5.52032 20 2.45575 18.2227 0.664513 15.5264C0.655965 15.5136 0.646965 15.4999 0.637513 15.4853C0.486853 15.2539 0.552318 14.9442 0.78375 14.7935C0.790594 14.7891 0.797547 14.7848 0.804601 14.7806L1.6706 14.2755C1.90047 14.1414 2.19511 14.2109 2.34085 14.4336C2.36786 14.4749 2.39227 14.5113 2.41408 14.5428C3.85753 16.6315 6.26895 18 9 18C13.4183 18 17 14.4183 17 10C17 5.58172 13.4183 2 9 2C6.79086 2 4.79086 2.89543 3.34315 4.34315L4.14645 5.14645C4.34171 5.34171 4.34171 5.65829 4.14645 5.85355C4.05268 5.94732 3.9255 6 3.79289 6H0.5C0.223858 6 0 5.77614 0 5.5V2.20711C0 1.93096 0.223858 1.70711 0.5 1.70711C0.632608 1.70711 0.759785 1.75979 0.853553 1.85355L1.92893 2.92893C3.73858 1.11929 6.23858 0 9 0ZM5.63003 13.6H7.34003V7.00299H6.08903L4.18103 7.55199L4.51403 8.91099L5.63003 8.64099V13.6ZM11.007 13.726C9.16198 13.726 8.00098 12.205 8.00098 10.342C8.00098 8.461 9.17998 6.922 11.025 6.922C12.852 6.922 14.022 8.443 14.022 10.306C14.022 12.187 12.843 13.726 11.007 13.726ZM11.025 12.187C11.781 12.187 12.267 11.413 12.267 10.342V10.324C12.267 9.253 11.754 8.461 11.007 8.461C10.251 8.461 9.75598 9.226 9.75598 10.306V10.324C9.75598 11.404 10.26 12.187 11.025 12.187Z" />
</svg>
