<svg aria-label="skip forward" viewBox="0 0 19 20"  xmlns="http://www.w3.org/2000/svg">
<path fill-rule="evenodd" clip-rule="evenodd" d="M10 0C4.47715 0 0 4.47715 0 10C0 15.5228 4.47715 20 10 20C13.3575 20 16.3286 18.3453 18.1422 15.8069C18.2025 15.7225 18.2753 15.6144 18.3606 15.4825C18.5105 15.2506 18.4441 14.941 18.2122 14.7911C18.2058 14.7869 18.1993 14.7829 18.1927 14.7791L17.3269 14.274C17.0971 14.14 16.8027 14.2093 16.6568 14.4317C16.5713 14.5621 16.4983 14.6682 16.4379 14.7499C14.9808 16.7215 12.6397 18 10 18C5.58172 18 2 14.4183 2 10C2 5.58172 5.58172 2 10 2C12.2091 2 14.2091 2.89543 15.6569 4.34315L14.8536 5.14645C14.6583 5.34171 14.6583 5.65829 14.8536 5.85355C14.9473 5.94732 15.0745 6 15.2071 6H18.5C18.7761 6 19 5.77614 19 5.5V2.20711C19 1.93096 18.7761 1.70711 18.5 1.70711C18.3674 1.70711 18.2402 1.75979 18.1464 1.85355L17.0711 2.92893C15.2614 1.11929 12.7614 0 10 0ZM6.63003 13.6H8.34003V7.00299H7.08903L5.18103 7.55199L5.51403 8.91099L6.63003 8.64099V13.6ZM12.007 13.726C10.162 13.726 9.00098 12.205 9.00098 10.342C9.00098 8.461 10.18 6.922 12.025 6.922C13.852 6.922 15.022 8.443 15.022 10.306C15.022 12.187 13.843 13.726 12.007 13.726ZM12.025 12.187C12.781 12.187 13.267 11.413 13.267 10.342V10.324C13.267 9.253 12.754 8.461 12.007 8.461C11.251 8.461 10.756 9.226 10.756 10.306V10.324C10.756 11.404 11.26 12.187 12.025 12.187Z" />
</svg>
