<svg aria-label="volume off" viewBox="-0.5 0 20 20"  xmlns="http://www.w3.org/2000/svg">
<path d="M18.182 8.23233L16.4142 10L18.182 11.7679C18.3772 11.963 18.3772 12.2797 18.182 12.4749L17.4749 13.182C17.2797 13.3772 16.963 13.3772 16.7679 13.182L15 11.4142L13.2323 13.182C13.037 13.3772 12.7205 13.3772 12.5252 13.182L11.818 12.4749C11.6228 12.2797 11.6228 11.963 11.818 11.7679L13.5858 10L11.818 8.23233C11.6228 8.03702 11.6228 7.72049 11.818 7.52518L12.5252 6.81802C12.7205 6.62283 13.037 6.62283 13.2323 6.81802L15 8.58585L16.7679 6.81802C16.963 6.62283 17.2797 6.62283 17.4749 6.81802L18.182 7.52518C18.3772 7.72049 18.3772 8.03702 18.182 8.23233Z" />
<path fill-rule="evenodd" clip-rule="evenodd" d="M4 5.99995L9.14648 0.85347C9.34167 0.658218 9.65833 0.658218 9.85352 0.85347C9.94727 0.947281 10 1.07442 10 1.20705V18.7929C10 19.069 9.77612 19.2929 9.5 19.2929C9.36743 19.2929 9.24023 19.2401 9.14648 19.1464L4 14H1C0.447754 14 0 13.5522 0 13V6.99995C0 6.44765 0.447754 5.99995 1 5.99995H4ZM2 12V7.99995H5L8 4.82838V14.8284L5 12H2Z" />
</svg>
