<svg aria-label="medium volume" viewBox="0 0 17 20"  xmlns="http://www.w3.org/2000/svg">
<path d="M12 15.7454C14.8378 15.2693 17 12.8014 17 9.82837C17 6.85535 14.8378 4.38745 12 3.91138V5.95435C13.7252 6.39844 15 7.9646 15 9.82837C15 11.6921 13.7252 13.2583 12 13.7024V15.7454Z" />
<path fill-rule="evenodd" clip-rule="evenodd" d="M4 5.99995L9.14648 0.85347C9.34167 0.658218 9.65833 0.658218 9.85352 0.85347C9.94727 0.947281 10 1.07442 10 1.20705V18.7929C10 19.069 9.77612 19.2929 9.5 19.2929C9.36743 19.2929 9.24023 19.2401 9.14648 19.1464L4 14H1C0.447754 14 0 13.5522 0 13V6.99995C0 6.44765 0.447754 5.99995 1 5.99995H4ZM2 12V7.99995H5L8 4.82838V14.8284L5 12H2Z" />
</svg>
