<svg aria-label="volume off" viewBox="0 0 24 24"  xmlns="http://www.w3.org/2000/svg">
<path d="M21.182 10.2323L19.4142 12L21.182 13.7679C21.3772 13.963 21.3772 14.2797 21.182 14.4749L20.4749 15.182C20.2797 15.3772 19.963 15.3772 19.7679 15.182L18 13.4142L16.2323 15.182C16.037 15.3772 15.7205 15.3772 15.5252 15.182L14.818 14.4749C14.6228 14.2797 14.6228 13.963 14.818 13.7679L16.5858 12L14.818 10.2323C14.6228 10.037 14.6228 9.72049 14.818 9.52518L15.5252 8.81802C15.7205 8.62283 16.037 8.62283 16.2323 8.81802L18 10.5858L19.7679 8.81802C19.963 8.62283 20.2797 8.62283 20.4749 8.81802L21.182 9.52518C21.3772 9.72049 21.3772 10.037 21.182 10.2323Z" />
<path fill-rule="evenodd" clip-rule="evenodd" d="M7 7.99995L12.1465 2.85347C12.3417 2.65822 12.6583 2.65822 12.8535 2.85347C12.9473 2.94728 13 3.07442 13 3.20705V20.7929C13 21.069 12.7761 21.2929 12.5 21.2929C12.3674 21.2929 12.2402 21.2401 12.1465 21.1464L7 16H4C3.44775 16 3 15.5522 3 15V8.99995C3 8.44765 3.44775 7.99995 4 7.99995H7ZM5 14V9.99995H8L11 6.82838V16.8284L8 14H5Z" />
</svg>
