<svg aria-label="low volume" viewBox="-0.5 0 20 20"  xmlns="http://www.w3.org/2000/svg">
<path fill-rule="evenodd" clip-rule="evenodd" d="M4 5.99995L9.14648 0.85347C9.34167 0.658218 9.65833 0.658218 9.85352 0.85347C9.94727 0.947281 10 1.07442 10 1.20705V18.7929C10 19.069 9.77612 19.2929 9.5 19.2929C9.36743 19.2929 9.24023 19.2401 9.14648 19.1464L4 14H1C0.447754 14 0 13.5522 0 13V6.99995C0 6.44765 0.447754 5.99995 1 5.99995H4ZM2 12V7.99995H5L8 4.82838V14.8284L5 12H2Z" />
<path d="M12 14.4124C13.7659 13.6408 15 11.8787 15 9.82838C15 7.77809 13.7659 6.01595 12 5.2444V7.5923C12.6138 8.14162 13 8.9399 13 9.82838C13 10.7169 12.6138 11.5152 12 12.0645V14.4124Z" />
</svg>
