<svg aria-label="add channel" viewBox="0 0 24 24"  xmlns="http://www.w3.org/2000/svg">
<path fill-rule="evenodd" clip-rule="evenodd" d="M21.065 13.3451C21.0884 13.2733 21.1083 13.2092 21.1246 13.1529C21.369 12.3109 21.5 11.4207 21.5 10.4999C21.5 7.71459 20.3013 5.20924 18.3917 3.47157C18.3213 3.4075 18.2307 3.32943 18.12 3.23737C17.9142 3.06626 17.8797 2.76346 18.0416 2.55038L18.6487 1.75168C18.8158 1.53185 19.1294 1.48908 19.3493 1.65616C19.4184 1.71254 19.4652 1.75181 19.5048 1.78597C21.9513 3.89487 23.5 7.01653 23.5 10.4999C23.5 11.4008 23.3964 12.2774 23.2005 13.1186C23.1699 13.2499 23.1243 13.4225 23.0636 13.6364C23.0025 13.8515 22.8061 13.9999 22.5826 13.9999H21.5404C21.2643 13.9999 21.0404 13.776 21.0404 13.4999C21.0404 13.4474 21.0487 13.3951 21.065 13.3451ZM12.5 23H11.5C11.2239 23 11 22.7762 11 22.5V13.8551C9.55426 13.4248 8.5 12.0855 8.5 10.5C8.5 8.56702 10.067 7.00002 12 7.00002C13.933 7.00002 15.5 8.56702 15.5 10.5C15.5 12.0855 14.4457 13.4248 13 13.8551V22.5C13 22.7762 12.7761 23 12.5 23ZM6.01513 3.12184C3.87045 4.86366 2.5 7.52179 2.5 10.5C2.5 13.2838 3.6974 15.788 5.60526 17.5256C5.6764 17.5904 5.76801 17.6694 5.8801 17.7626C6.08575 17.9338 6.12028 18.2365 5.95838 18.4495L5.35264 19.2465C5.18559 19.4665 4.87186 19.5092 4.65197 19.3421C4.5098 19.2254 4.40639 19.1372 4.32618 19.0653C1.97762 16.9598 0.5 13.9025 0.5 10.5C0.5 6.86426 2.18719 3.62258 4.82133 1.51521C4.93866 1.42135 5.10985 1.44037 5.20371 1.55769C5.20512 1.55945 6.06659 2.69288 6.06659 2.69288C6.16802 2.82632 6.14524 3.01617 6.01513 3.12184ZM8.31618 6.42017C8.24016 6.48704 8.17717 6.54526 8.12719 6.59483C7.12232 7.59138 6.5 8.97308 6.5 10.5001C6.5 12.0429 7.13518 13.4372 8.15829 14.436C8.20089 14.4776 8.25335 14.5258 8.31568 14.5806C8.51261 14.7538 8.54225 15.0498 8.38355 15.2586L7.77618 16.0578C7.60905 16.2775 7.29543 16.3203 7.07561 16.1532C7.06766 16.1472 7.05989 16.1409 7.05232 16.1344C6.99174 16.0824 6.93991 16.0363 6.89684 15.9963C5.42247 14.6268 4.5 12.6712 4.5 10.5001C4.5 8.29244 5.45387 6.30755 6.97195 4.93509C6.99533 4.91395 7.02162 4.89078 7.05081 4.86559C7.25988 4.68522 7.57559 4.70844 7.75599 4.91749C7.76275 4.92533 7.76927 4.93337 7.77553 4.94161L8.38401 5.74224C8.54267 5.95105 8.51307 6.24695 8.31618 6.42017ZM19.5 10.5C19.5 12.7105 18.5437 14.6976 17.0223 16.0703C17.0005 16.0899 16.9762 16.1113 16.9494 16.1344C16.7404 16.315 16.4247 16.2919 16.2442 16.0829C16.2374 16.075 16.2308 16.0669 16.2245 16.0586L15.6151 15.2568C15.4567 15.0482 15.4861 14.7526 15.6826 14.5793C15.7825 14.4912 15.8636 14.4154 15.9258 14.3521C16.8995 13.3598 17.5 12.0001 17.5 10.5C17.5 9.01836 16.9141 7.67353 15.9613 6.68458C15.8912 6.61177 15.7979 6.52395 15.6816 6.42112C15.4854 6.24773 15.4562 5.95238 15.6146 5.74393L16.2234 4.94284C16.3905 4.72301 16.7042 4.68024 16.9241 4.84732C16.932 4.85336 16.9398 4.85963 16.9473 4.86613C17.02 4.92854 17.0813 4.9832 17.1313 5.03011C18.5892 6.39835 19.5 8.34284 19.5 10.5ZM12 12C12.8284 12 13.5 11.3284 13.5 10.5C13.5 9.67159 12.8284 9.00002 12 9.00002C11.1716 9.00002 10.5 9.67159 10.5 10.5C10.5 11.3284 11.1716 12 12 12ZM23.5 21H21V23.5C21 23.7762 20.7761 24 20.5 24H19.5C19.2239 24 19 23.7762 19 23.5V21H16.5C16.2239 21 16 20.7762 16 20.5V19.5C16 19.2239 16.2239 19 16.5 19H19V16.5C19 16.2239 19.2239 16 19.5 16H20.5C20.7761 16 21 16.2239 21 16.5V19H23.5C23.7761 19 24 19.2239 24 19.5V20.5C24 20.7762 23.7761 21 23.5 21Z" />
</svg>
