<svg aria-label="add channel" viewBox="0 0 24 23"  xmlns="http://www.w3.org/2000/svg">
<path fill-rule="evenodd" clip-rule="evenodd" d="M21.065 12.3451C21.0884 12.2733 21.1083 12.2092 21.1246 12.1528C21.369 11.3109 21.5 10.4207 21.5 9.49989C21.5 6.71458 20.3013 4.20922 18.3917 2.47155C18.3213 2.40748 18.2307 2.32942 18.12 2.23735C17.9142 2.06624 17.8797 1.76344 18.0416 1.55037L18.6487 0.75166C18.8158 0.531833 19.1294 0.48906 19.3493 0.656141C19.4184 0.712524 19.4652 0.751798 19.5048 0.785956C21.9513 2.89486 23.5 6.01651 23.5 9.49989C23.5 10.4007 23.3964 11.2774 23.2005 12.1186C23.1699 12.2499 23.1243 12.4225 23.0636 12.6364C23.0025 12.8515 22.8061 12.9999 22.5826 12.9999H21.5404C21.2643 12.9999 21.0404 12.776 21.0404 12.4999C21.0404 12.4473 21.0487 12.3951 21.065 12.3451ZM12.5 22H11.5C11.2239 22 11 21.7761 11 21.5V12.8551C9.55426 12.4248 8.5 11.0855 8.5 9.5C8.5 7.567 10.067 6 12 6C13.933 6 15.5 7.567 15.5 9.5C15.5 11.0855 14.4457 12.4248 13 12.8551V21.5C13 21.7761 12.7761 22 12.5 22ZM6.01513 2.12183C3.87045 3.86365 2.5 6.52177 2.5 9.49999C2.5 12.2838 3.6974 14.788 5.60526 16.5256C5.6764 16.5903 5.76801 16.6693 5.8801 16.7626C6.08575 16.9337 6.12028 17.2365 5.95838 17.4495L5.35264 18.2465C5.18559 18.4664 4.87186 18.5092 4.65197 18.3421C4.5098 18.2254 4.40639 18.1372 4.32618 18.0653C1.97762 15.9598 0.5 12.9024 0.5 9.49999C0.5 5.86424 2.18719 2.62257 4.82133 0.515193C4.93866 0.421332 5.10985 0.440352 5.20371 0.557674C5.20512 0.559436 6.06659 1.69287 6.06659 1.69287C6.16802 1.8263 6.14524 2.01616 6.01513 2.12183ZM8.31618 5.42015C8.24016 5.48703 8.17717 5.54524 8.12719 5.59481C7.12232 6.59137 6.5 7.97306 6.5 9.50011C6.5 11.0428 7.13518 12.4372 8.15829 13.436C8.20089 13.4776 8.25335 13.5258 8.31568 13.5806C8.51261 13.7538 8.54225 14.0498 8.38355 14.2586L7.77618 15.0578C7.60905 15.2775 7.29543 15.3203 7.07561 15.1532C7.06766 15.1472 7.05989 15.1409 7.05232 15.1344C6.99174 15.0824 6.93991 15.0363 6.89684 14.9963C5.42247 13.6267 4.5 11.6712 4.5 9.50011C4.5 7.29243 5.45387 5.30753 6.97195 3.93508C6.99533 3.91393 7.02162 3.89077 7.05081 3.86557C7.25988 3.6852 7.57559 3.70843 7.75599 3.91747C7.76275 3.92531 7.76927 3.93335 7.77553 3.94159L8.38401 4.74223C8.54267 4.95103 8.51307 5.24694 8.31618 5.42015ZM19.5 9.50002C19.5 11.7105 18.5437 13.6976 17.0223 15.0703C17.0005 15.0899 16.9762 15.1113 16.9494 15.1344C16.7404 15.315 16.4247 15.2919 16.2442 15.0829C16.2374 15.075 16.2308 15.0669 16.2245 15.0586L15.6151 14.2568C15.4567 14.0482 15.4861 13.7526 15.6826 13.5793C15.7825 13.4912 15.8636 13.4154 15.9258 13.3521C16.8995 12.3598 17.5 11 17.5 9.50002C17.5 8.01835 16.9141 6.67352 15.9613 5.68457C15.8912 5.61175 15.7979 5.52393 15.6816 5.42111C15.4854 5.24771 15.4562 4.95236 15.6146 4.74392L16.2234 3.94283C16.3905 3.72299 16.7042 3.68022 16.9241 3.8473C16.932 3.85334 16.9398 3.85961 16.9473 3.86611C17.02 3.92853 17.0813 3.98319 17.1313 4.0301C18.5892 5.39834 19.5 7.34282 19.5 9.50002ZM12 11C12.8284 11 13.5 10.3284 13.5 9.5C13.5 8.67157 12.8284 8 12 8C11.1716 8 10.5 8.67157 10.5 9.5C10.5 10.3284 11.1716 11 12 11ZM23.5 20H21V22.5C21 22.7761 20.7761 23 20.5 23H19.5C19.2239 23 19 22.7761 19 22.5V20H16.5C16.2239 20 16 19.7761 16 19.5V18.5C16 18.2239 16.2239 18 16.5 18H19V15.5C19 15.2239 19.2239 15 19.5 15H20.5C20.7761 15 21 15.2239 21 15.5V18H23.5C23.7761 18 24 18.2239 24 18.5V19.5C24 19.7761 23.7761 20 23.5 20Z" />
</svg>
