<svg aria-label="checkmark in filled circle" viewBox="0 0 20 20" xmlns="http://www.w3.org/2000/svg">
<path fill-rule="evenodd" clip-rule="evenodd" d="M10 0C4.48608 0 0 4.48608 0 10C0 15.5139 4.48608 20 10 20C15.5139 20 20 15.5139 20 10C20 4.48608 15.5139 0 10 0ZM4.64642 10.3535L5.35358 9.64645C5.54883 9.45119 5.86542 9.45119 6.06067 9.64645L8 11.5858L13.9393 5.64645C14.1346 5.45119 14.4512 5.45119 14.6464 5.64645L15.3536 6.35355C15.5488 6.54881 15.5488 6.8654 15.3536 7.06065L8.35358 14.0607C8.15826 14.2559 7.84174 14.2559 7.64642 14.0607L4.64642 11.0607C4.45117 10.8654 4.45117 10.5488 4.64642 10.3535Z" />
</svg>
