<svg aria-label="checkmark in circle" viewBox="0 0 20 20" xmlns="http://www.w3.org/2000/svg">
<path d="M4.64642 10.3536L5.35358 9.64645C5.54883 9.45118 5.86542 9.45118 6.06067 9.64645L8 11.5858L13.9393 5.64645C14.1346 5.45118 14.4512 5.45118 14.6464 5.64645L15.3536 6.35355C15.5488 6.54882 15.5488 6.8654 15.3536 7.06066L8.35358 14.0607C8.15826 14.2559 7.84174 14.2559 7.64642 14.0607L4.64642 11.0607C4.45117 10.8654 4.45117 10.5488 4.64642 10.3536Z" />
<path fill-rule="evenodd" clip-rule="evenodd" d="M0 10C0 4.48609 4.48608 0 10 0C15.5139 0 20 4.48609 20 10C20 15.5139 15.5139 20 10 20C4.48608 20 0 15.5139 0 10ZM2 10C2 5.58887 5.58887 2 10 2C14.4111 2 18 5.58887 18 10C18 14.4111 14.4111 18 10 18C5.58887 18 2 14.4111 2 10Z" />
</svg>
