<svg aria-label="checkmark in filled circle" viewBox="0 0 24 24" xmlns="http://www.w3.org/2000/svg">
<path fill-rule="evenodd" clip-rule="evenodd" d="M12 2C6.48608 2 2 6.48608 2 12C2 17.5139 6.48608 22 12 22C17.5139 22 22 17.5139 22 12C22 6.48608 17.5139 2 12 2ZM6.64642 12.3535L7.35358 11.6465C7.54883 11.4512 7.86542 11.4512 8.06067 11.6465L10 13.5858L15.9393 7.64645C16.1346 7.45119 16.4512 7.45119 16.6464 7.64645L17.3536 8.35355C17.5488 8.54881 17.5488 8.8654 17.3536 9.06065L10.3536 16.0607C10.1583 16.2559 9.84174 16.2559 9.64642 16.0607L6.64642 13.0607C6.45117 12.8654 6.45117 12.5488 6.64642 12.3535Z" />
</svg>
