<svg aria-label="close" viewBox="0 0 14 14" xmlns="http://www.w3.org/2000/svg">
<path d="M13.7029 1.00004L13 0.297143C12.8047 0.101881 12.4881 0.101881 12.2929 0.297143L6.99998 5.59001L1.70709 0.297142C1.51182 0.10188 1.19524 0.10188 0.99998 0.297142L0.297087 1.00004C0.101824 1.1953 0.101824 1.51188 0.297087 1.70714L5.58998 7.00001L0.297091 12.2929C0.101829 12.4882 0.101829 12.8048 0.297091 13L0.999985 13.7029C1.19525 13.8982 1.51183 13.8982 1.70709 13.7029L6.99998 8.41L12.2929 13.7029C12.4881 13.8982 12.8047 13.8982 13 13.7029L13.7029 13C13.8981 12.8047 13.8981 12.4882 13.7029 12.2929L8.40998 7.00001L13.7029 1.70714C13.8981 1.51188 13.8981 1.1953 13.7029 1.00004Z" />
</svg>
