<svg aria-label="close" viewBox="0 0 24 24" xmlns="http://www.w3.org/2000/svg">
<path d="M18.7029 6.00004L18 5.29714C17.8047 5.10188 17.4881 5.10188 17.2929 5.29714L12 10.59L6.70709 5.29714C6.51182 5.10188 6.19524 5.10188 5.99998 5.29714L5.29709 6.00004C5.10182 6.1953 5.10182 6.51188 5.29709 6.70714L10.59 12L5.29709 17.2929C5.10183 17.4882 5.10183 17.8048 5.29709 18L5.99998 18.7029C6.19525 18.8982 6.51183 18.8982 6.70709 18.7029L12 13.41L17.2929 18.7029C17.4881 18.8982 17.8047 18.8982 18 18.7029L18.7029 18C18.8981 17.8047 18.8981 17.4882 18.7029 17.2929L13.41 12L18.7029 6.70714C18.8981 6.51188 18.8981 6.1953 18.7029 6.00004Z" />
</svg>
