<svg aria-label="delete" viewBox="0 0 24 24" xmlns="http://www.w3.org/2000/svg">
<path d="M9.00024 3.50031V2.50031C9.00024 2.22417 9.22412 2.00031 9.50024 2.00031H14.4993C14.7754 2.00031 14.9993 2.22417 14.9993 2.50031V3.50031C14.9993 3.77644 14.7754 4.00031 14.4993 4.00031H9.50024C9.22412 4.00031 9.00024 3.77644 9.00024 3.50031Z" />
<path d="M9.5 9H10.5C10.7761 9 11 9.22385 11 9.5V17.5C11 17.7762 10.7761 18 10.5 18H9.5C9.22388 18 9 17.7762 9 17.5V9.5C9 9.22385 9.22388 9 9.5 9Z" />
<path d="M14.5 9H13.5C13.2239 9 13 9.22385 13 9.5V17.5C13 17.7762 13.2239 18 13.5 18H14.5C14.7761 18 15 17.7762 15 17.5V9.5C15 9.22385 14.7761 9 14.5 9Z" />
<path fill-rule="evenodd" clip-rule="evenodd" d="M20.5 7H19L18.5322 21.0333C18.5143 21.5723 18.0721 22 17.5328 22H6.46716C5.92786 22 5.48572 21.5723 5.46777 21.0333L5 7H3.5C3.22388 7 3 6.77614 3 6.5V5.5C3 5.22386 3.22388 5 3.5 5H20.5C20.7761 5 21 5.22386 21 5.5V6.5C21 6.77614 20.7761 7 20.5 7ZM17 7H7L7.5 20H16.5L17 7Z" />
</svg>
