<svg aria-label="delete" viewBox="0 0 18 20" xmlns="http://www.w3.org/2000/svg">
<path d="M6.00024 1.50031V0.500305C6.00024 0.224167 6.22412 0.000305176 6.50024 0.000305176H11.4993C11.7754 0.000305176 11.9993 0.224167 11.9993 0.500305V1.50031C11.9993 1.77644 11.7754 2.00031 11.4993 2.00031H6.50024C6.22412 2.00031 6.00024 1.77644 6.00024 1.50031Z" />
<path d="M6.5 7H7.5C7.77612 7 8 7.22385 8 7.5V15.5C8 15.7762 7.77612 16 7.5 16H6.5C6.22388 16 6 15.7762 6 15.5V7.5C6 7.22385 6.22388 7 6.5 7Z" />
<path d="M11.5 7H10.5C10.2239 7 10 7.22385 10 7.5V15.5C10 15.7762 10.2239 16 10.5 16H11.5C11.7761 16 12 15.7762 12 15.5V7.5C12 7.22385 11.7761 7 11.5 7Z" />
<path fill-rule="evenodd" clip-rule="evenodd" d="M17.5 5H16L15.5322 19.0333C15.5143 19.5723 15.0721 20 14.5328 20H3.46716C2.92786 20 2.48572 19.5723 2.46777 19.0333L2 5H0.5C0.223877 5 0 4.77614 0 4.5V3.5C0 3.22386 0.223877 3 0.5 3H17.5C17.7761 3 18 3.22386 18 3.5V4.5C18 4.77614 17.7761 5 17.5 5ZM14 5H4L4.5 18H13.5L14 5Z" />
</svg>
