<svg aria-label="download" viewBox="0 0 24 24" xmlns="http://www.w3.org/2000/svg">
<path d="M13 3.5V12.586L14.9395 10.6466C15.1347 10.4513 15.4513 10.4513 15.6466 10.6466L16.3535 11.3534C16.5487 11.5487 16.5487 11.8653 16.3535 12.0606L12.3536 16.0604C12.1583 16.2557 11.8417 16.2557 11.6465 16.0604L7.64657 12.0606C7.45131 11.8653 7.45131 11.5487 7.64657 11.3534L8.35346 10.6466C8.54872 10.4513 8.86531 10.4513 9.06057 10.6466L11 12.586V3.5C11 3.22386 11.2239 3 11.5 3H12.5C12.7762 3 13 3.22386 13 3.5Z" />
<path d="M3.5 15C3.22386 15 3 15.2239 3 15.5V20C3 20.5523 3.44772 21 4 21H20C20.5523 21 21 20.5523 21 20V15.5C21 15.2239 20.7761 15 20.5 15H19.5C19.2239 15 19 15.2239 19 15.5V19H5V15.5C5 15.2239 4.77614 15 4.5 15H3.5Z" />
</svg>
