<svg aria-label="download" viewBox="0 0 18 18" xmlns="http://www.w3.org/2000/svg">
<path d="M10 0.5V9.586L11.9395 7.64655C12.1347 7.45129 12.4513 7.45129 12.6466 7.64655L13.3535 8.35345C13.5487 8.54871 13.5487 8.86529 13.3535 9.06055L9.35357 13.0604C9.15831 13.2557 8.84172 13.2557 8.64646 13.0604L4.64657 9.06055C4.45131 8.86529 4.45131 8.54871 4.64657 8.35345L5.35346 7.64655C5.54872 7.45129 5.86531 7.45129 6.06057 7.64655L8.00002 9.586V0.5C8.00002 0.223858 8.22387 0 8.50002 0H9.50002C9.77616 0 10 0.223858 10 0.5Z" />
<path d="M0.5 12C0.223858 12 0 12.2239 0 12.5V17C0 17.5523 0.447715 18 1 18H17C17.5523 18 18 17.5523 18 17V12.5C18 12.2239 17.7761 12 17.5 12H16.5C16.2239 12 16 12.2239 16 12.5V16H2V12.5C2 12.2239 1.77614 12 1.5 12H0.5Z" />
</svg>
