<svg aria-label="filter" viewBox="0 0 18 12" xmlns="http://www.w3.org/2000/svg">
<path fill-rule="evenodd" clip-rule="evenodd" d="M0.5 0C0.223858 0 0 0.223858 0 0.5V1.5C0 1.77614 0.223858 2 0.5 2H17.5C17.7761 2 18 1.77614 18 1.5V0.5C18 0.223858 17.7761 0 17.5 0H0.5ZM3.5 5C3.22386 5 3 5.22386 3 5.5V6.5C3 6.77614 3.22386 7 3.5 7H14.5C14.7761 7 15 6.77614 15 6.5V5.5C15 5.22386 14.7761 5 14.5 5H3.5ZM6 10.5C6 10.2239 6.22386 10 6.5 10H11.5C11.7761 10 12 10.2239 12 10.5V11.5C12 11.7761 11.7761 12 11.5 12H6.5C6.22386 12 6 11.7761 6 11.5V10.5Z" />
</svg>
