<svg aria-label="gear" viewBox="0 0 24 24" xmlns="http://www.w3.org/2000/svg">
<path fill-rule="evenodd" clip-rule="evenodd" d="M4.00002 12C4.00002 11.6229 4.02615 11.2521 4.07656 10.8889L2.27383 9.84802C2.03469 9.70996 1.95266 9.40417 2.09072 9.16504L4.59072 4.83496C4.72891 4.59583 5.03469 4.51379 5.27383 4.65198L7.07754 5.69336C7.65945 5.2384 8.30593 4.8623 9.001 4.58105V2.5C9.001 2.22388 9.22488 2 9.501 2H14.501C14.7771 2 15.001 2.22388 15.001 2.5V4.58191C15.6957 4.86316 16.3418 5.23926 16.9234 5.69397L18.7283 4.65198C18.9674 4.51379 19.2732 4.59583 19.4113 4.83496L21.9113 9.16504C22.0493 9.40417 21.9674 9.70996 21.7283 9.84802L19.9236 10.89C19.974 11.2528 20 11.6233 20 12C20 12.3767 19.974 12.7472 19.9236 13.11L21.7283 14.152C21.9674 14.29 22.0493 14.5958 21.9113 14.835L19.4113 19.165C19.2732 19.4042 18.9674 19.4862 18.7283 19.348L16.9234 18.306C16.3418 18.7607 15.6957 19.1368 15.001 19.4181V21.5C15.001 21.7761 14.7771 22 14.501 22H9.501C9.22488 22 9.001 21.7761 9.001 21.5V19.4189C8.30593 19.1377 7.65945 18.7616 7.07754 18.3066L5.27383 19.348C5.03469 19.4862 4.72891 19.4042 4.59072 19.165L2.09072 14.835C1.95266 14.5958 2.03469 14.29 2.27383 14.152L4.07656 13.1111C4.02615 12.7479 4.00002 12.3771 4.00002 12ZM13 4H11V6.08301C9.54995 6.32617 8.27627 7.0896 7.37734 8.17468L5.57327 7.13306L4.57327 8.86511L6.37563 9.90576C6.13271 10.5577 6.00002 11.2634 6.00002 12C6.00002 12.736 6.13247 13.4409 6.3749 14.0924L4.57229 15.1331L5.57229 16.8651L7.376 15.8237C8.27505 16.9097 9.54922 17.6737 11 17.917V20H13V17.917C14.4511 17.6736 15.7255 16.9093 16.6245 15.823L18.4297 16.8651L19.4297 15.1331L17.6254 14.0914C17.8676 13.4402 18 12.7356 18 12C18 11.2637 17.8673 10.5585 17.6248 9.90674L19.4287 8.86511L18.4287 7.13306L16.6233 8.17542C15.7243 7.08997 14.4503 6.32629 13 6.08301V4ZM8.00002 12C8.00002 14.2091 9.79092 16 12 16C14.2091 16 16 14.2091 16 12C16 9.79089 14.2091 8 12 8C9.79092 8 8.00002 9.79089 8.00002 12ZM12 14C13.1046 14 14 13.1046 14 12C14 10.8954 13.1046 10 12 10C10.8954 10 10 10.8954 10 12C10 13.1046 10.8954 14 12 14Z" />
</svg>
