<svg aria-label="gear" viewBox="0 0 20 20" xmlns="http://www.w3.org/2000/svg">
<path fill-rule="evenodd" clip-rule="evenodd" d="M2.00002 10C2.00002 9.62292 2.02615 9.25208 2.07656 8.88892L0.273828 7.84802C0.034692 7.70996 -0.0473392 7.40417 0.0907223 7.16504L2.59072 2.83496C2.72891 2.59583 3.03469 2.51379 3.27383 2.65198L5.07754 3.69336C5.65945 3.2384 6.30593 2.8623 7.001 2.58105V0.5C7.001 0.223877 7.22488 0 7.501 0H12.501C12.7771 0 13.001 0.223877 13.001 0.5V2.58191C13.6957 2.86316 14.3418 3.23926 14.9234 3.69397L16.7283 2.65198C16.9674 2.51379 17.2732 2.59583 17.4113 2.83496L19.9113 7.16504C20.0493 7.40417 19.9674 7.70996 19.7283 7.84802L17.9236 8.89001C17.974 9.25281 18 9.62329 18 10C18 10.3767 17.974 10.7472 17.9236 11.11L19.7283 12.152C19.9674 12.29 20.0493 12.5958 19.9113 12.835L17.4113 17.165C17.2732 17.4042 16.9674 17.4862 16.7283 17.348L14.9234 16.306C14.3418 16.7607 13.6957 17.1368 13.001 17.4181V19.5C13.001 19.7761 12.7771 20 12.501 20H7.501C7.22488 20 7.001 19.7761 7.001 19.5V17.4189C6.30593 17.1377 5.65945 16.7616 5.07754 16.3066L3.27383 17.348C3.03469 17.4862 2.72891 17.4042 2.59072 17.165L0.0907223 12.835C-0.0473392 12.5958 0.034692 12.29 0.273828 12.152L2.07656 11.1111C2.02615 10.7479 2.00002 10.3771 2.00002 10ZM11 2H9.00002V4.08301C7.54995 4.32617 6.27627 5.0896 5.37734 6.17468L3.57327 5.13306L2.57327 6.86511L4.37563 7.90576C4.13271 8.55774 4.00002 9.26343 4.00002 10C4.00002 10.736 4.13247 11.4409 4.3749 12.0924L2.57229 13.1331L3.57229 14.8651L5.376 13.8237C6.27505 14.9097 7.54922 15.6737 9.00002 15.917V18H11V15.917C12.4511 15.6736 13.7255 14.9093 14.6245 13.823L16.4297 14.8651L17.4297 13.1331L15.6254 12.0914C15.8676 11.4402 16 10.7356 16 10C16 9.26367 15.8673 8.55847 15.6248 7.90674L17.4287 6.86511L16.4287 5.13306L14.6233 6.17542C13.7243 5.08997 12.4503 4.32629 11 4.08301V2ZM6.00002 10C6.00002 12.2091 7.79092 14 10 14C12.2091 14 14 12.2091 14 10C14 7.79089 12.2091 6 10 6C7.79092 6 6.00002 7.79089 6.00002 10ZM10 12C11.1046 12 12 11.1046 12 10C12 8.89543 11.1046 8 10 8C8.89543 8 8 8.89543 8 10C8 11.1046 8.89543 12 10 12Z" />
</svg>
