<svg aria-label="not allowed" viewBox="0 0 20 20" xmlns="http://www.w3.org/2000/svg">
<path fill-rule="evenodd" clip-rule="evenodd" d="M10 2C5.58172 2 2 5.58172 2 10C2 11.8487 2.62708 13.551 3.68014 14.9056L14.9056 3.68014C13.551 2.62708 11.8487 2 10 2ZM16.3199 5.09436L5.09436 16.3199C6.44904 17.3729 8.15129 18 10 18C14.4183 18 18 14.4183 18 10C18 8.15129 17.3729 6.44904 16.3199 5.09436ZM0 10C0 4.47715 4.47715 0 10 0C15.5228 0 20 4.47715 20 10C20 15.5228 15.5228 20 10 20C4.47715 20 0 15.5228 0 10Z" />
</svg>
