<svg aria-label="paperclip" viewBox="0 0 24 24" xmlns="http://www.w3.org/2000/svg">
<path fill-rule="evenodd" clip-rule="evenodd" d="M10 3C8.34315 3 7 4.34315 7 6V16C7 18.7614 9.23858 21 12 21C14.7614 21 17 18.7614 17 16V7.25C17 7.11193 17.1119 7 17.25 7H18.75C18.8881 7 19 7.11193 19 7.25V16C19 19.866 15.866 23 12 23C8.13401 23 5 19.866 5 16V6C5 3.23858 7.23858 1 10 1C12.7614 1 15 3.23858 15 6V15C15 16.6569 13.6569 18 12 18C10.3431 18 9 16.6569 9 15V7.25C9 7.11193 9.11193 7 9.25 7H10.75C10.8881 7 11 7.11193 11 7.25V15C11 15.5523 11.4477 16 12 16C12.5523 16 13 15.5523 13 15V6C13 4.34315 11.6569 3 10 3Z" />
</svg>
