<svg aria-label="paperclip" viewBox="0 0 14 22" xmlns="http://www.w3.org/2000/svg">
<path fill-rule="evenodd" clip-rule="evenodd" d="M5 2C3.34315 2 2 3.34315 2 5V15C2 17.7614 4.23858 20 7 20C9.76142 20 12 17.7614 12 15V6.25C12 6.11193 12.1119 6 12.25 6H13.75C13.8881 6 14 6.11193 14 6.25V15C14 18.866 10.866 22 7 22C3.13401 22 0 18.866 0 15V5C0 2.23858 2.23858 0 5 0C7.76142 0 10 2.23858 10 5V14C10 15.6569 8.65685 17 7 17C5.34315 17 4 15.6569 4 14V6.25C4 6.11193 4.11193 6 4.25 6H5.75C5.88807 6 6 6.11193 6 6.25V14C6 14.5523 6.44772 15 7 15C7.55228 15 8 14.5523 8 14V5C8 3.34315 6.65685 2 5 2Z" />
</svg>
