<svg aria-label="pencil" viewBox="0 0 24 24" xmlns="http://www.w3.org/2000/svg">
<path fill-rule="evenodd" clip-rule="evenodd" d="M19.8191 4.1795C19.0601 3.4205 18.0501 3.0025 16.9742 3.0025C15.9002 3.0025 14.8881 3.4205 14.1281 4.1815L3.71915 14.5905C3.59109 14.7185 3.50015 14.8785 3.45609 15.0545L2.95499 20.5013C2.95218 20.5317 2.95218 20.5624 2.95499 20.5928C2.98026 20.8678 3.22366 21.0703 3.49869 21.045L8.94717 20.5445C9.1221 20.5015 9.28311 20.4095 9.41116 20.2815L19.8201 9.8725C20.5801 9.1125 20.9981 8.1005 20.9981 7.0265C20.9981 5.9515 20.5801 4.9395 19.8191 4.1795ZM17.6392 9.22503L18.4059 8.45829C18.7901 8.07415 18.9982 7.57118 18.9982 7.0265C18.9982 6.48095 18.7902 5.97848 18.4049 5.59372C18.0211 5.20989 17.5199 5.0025 16.9742 5.0025C16.4296 5.0025 15.9272 5.21049 15.5424 5.59572L14.7762 6.36196L17.6392 9.22503ZM5.27603 15.862L4.99991 19L8.13919 18.725L16.2249 10.6392L13.3618 7.77617L5.27603 15.862Z" />
</svg>
