<svg aria-label="pencil" viewBox="0 0 19 19" xmlns="http://www.w3.org/2000/svg">
<path fill-rule="evenodd" clip-rule="evenodd" d="M17.8192 1.1795C17.0602 0.420502 16.0502 0.00250244 14.9743 0.00250244C13.9003 0.00250244 12.8882 0.420502 12.1282 1.1815L1.71927 11.5905C1.59122 11.7185 1.50027 11.8785 1.45621 12.0545L0.955109 17.5013C0.952301 17.5317 0.952301 17.5624 0.955109 17.5928C0.980377 17.8678 1.22379 18.0703 1.49881 18.045L6.9473 17.5445C7.12222 17.5015 7.28323 17.4095 7.41129 17.2815L17.8202 6.8725C18.5802 6.1125 18.9982 5.1005 18.9982 4.0265C18.9982 2.9515 18.5802 1.9395 17.8192 1.1795ZM15.6393 6.22503L16.406 5.45829C16.7902 5.07415 16.9983 4.57118 16.9983 4.0265C16.9983 3.48095 16.7903 2.97848 16.4051 2.59372C16.0213 2.20989 15.5201 2.0025 14.9743 2.0025C14.4297 2.0025 13.9273 2.21049 13.5425 2.59572L12.7763 3.36196L15.6393 6.22503ZM3.27615 12.862L3.00003 16L6.13931 15.725L14.225 7.63925L11.362 4.77617L3.27615 12.862Z" />
</svg>
