<svg aria-label="plus in circle" viewBox="0 0 24 24" xmlns="http://www.w3.org/2000/svg">
<path d="M12.5 7C12.7761 7 13 7.22388 13 7.5V11H16.5C16.7761 11 17 11.2239 17 11.5V12.5C17 12.7761 16.7761 13 16.5 13H13V16.5C13 16.7761 12.7761 17 12.5 17H11.5C11.2239 17 11 16.7761 11 16.5V13H7.5C7.22388 13 7 12.7761 7 12.5V11.5C7 11.2239 7.22388 11 7.5 11H11V7.5C11 7.22388 11.2239 7 11.5 7H12.5Z" />
<path fill-rule="evenodd" clip-rule="evenodd" d="M2 12C2 6.47998 6.47998 2 12 2C17.52 2 22 6.47998 22 12C22 17.52 17.52 22 12 22C6.47998 22 2 17.52 2 12ZM4 12C4 16.41 7.58997 20 12 20C16.41 20 20 16.41 20 12C20 7.59003 16.41 4 12 4C7.58997 4 4 7.59003 4 12Z" />
</svg>
