<svg aria-label="search" viewBox="0 0 20 20" xmlns="http://www.w3.org/2000/svg">
<path fill-rule="evenodd" clip-rule="evenodd" d="M19.3534 18.6476C19.5487 18.4523 19.5487 18.1357 19.3535 17.9404L14.314 12.9C15.403 11.504 16 9.79895 16 8C16 5.86304 15.167 3.85596 13.656 2.34399C12.145 0.832031 10.137 0 8 0C5.86304 0 3.854 0.832031 2.34399 2.34399C0.832031 3.85596 0 5.86304 0 8C0 10.137 0.832031 12.146 2.34399 13.656C3.854 15.168 5.86304 16 8 16C9.79895 16 11.504 15.4041 12.9 14.3149L17.9395 19.3545C18.1348 19.5497 18.4513 19.5497 18.6466 19.3545L19.3534 18.6476ZM12.2419 12.243C11.109 13.376 9.60205 14 8 14C6.39697 14 4.89099 13.376 3.75806 12.243C2.62402 11.11 2 9.60303 2 8C2 6.39795 2.62402 4.89099 3.75806 3.75806C4.89099 2.62402 6.39697 2 8 2C9.60205 2 11.109 2.62402 12.2419 3.75806C13.376 4.89099 14 6.39795 14 8C14 9.60303 13.376 11.11 12.2419 12.243Z" />
</svg>
