<svg aria-label="search" viewBox="0 0 24 24" xmlns="http://www.w3.org/2000/svg">
<path fill-rule="evenodd" clip-rule="evenodd" d="M21.3534 20.6476C21.5487 20.4523 21.5487 20.1357 21.3535 19.9404L16.314 14.9C17.403 13.504 18 11.799 18 10C18 7.86304 17.167 5.85596 15.656 4.34399C14.145 2.83203 12.137 2 10 2C7.86304 2 5.854 2.83203 4.34399 4.34399C2.83203 5.85596 2 7.86304 2 10C2 12.137 2.83203 14.146 4.34399 15.656C5.854 17.168 7.86304 18 10 18C11.799 18 13.504 17.4041 14.9 16.3149L19.9395 21.3545C20.1348 21.5497 20.4513 21.5497 20.6466 21.3545L21.3534 20.6476ZM14.2419 14.243C13.109 15.376 11.6021 16 10 16C8.39697 16 6.89099 15.376 5.75806 14.243C4.62402 13.11 4 11.603 4 10C4 8.39795 4.62402 6.89099 5.75806 5.75806C6.89099 4.62402 8.39697 4 10 4C11.6021 4 13.109 4.62402 14.2419 5.75806C15.376 6.89099 16 8.39795 16 10C16 11.603 15.376 13.11 14.2419 14.243Z" />
</svg>
