<svg aria-label="sort" viewBox="0 0 10 14" xmlns="http://www.w3.org/2000/svg">
<path d="M0.353592 4.64636L4.64644 0.353516C4.84175 0.158203 5.15828 0.158203 5.35359 0.353516L9.64644 4.64636C9.84175 4.84167 9.84175 5.1582 9.64644 5.35352L8.94307 6.05688C8.748 6.25195 8.43184 6.2522 8.2364 6.05737L4.99995 2.82996L1.7635 6.05737C1.56819 6.2522 1.25203 6.25195 1.05696 6.05688L0.353592 5.35352C0.158279 5.1582 0.158279 4.84167 0.353592 4.64636Z" />
<path d="M0.353592 9.35339L4.64644 13.6464C4.84175 13.8416 5.15828 13.8416 5.35359 13.6464L9.64644 9.35339C9.84175 9.1582 9.84175 8.84155 9.64644 8.64636L8.94307 7.94299C8.748 7.74792 8.43184 7.74768 8.2364 7.9425L4.99995 11.1699L1.7635 7.9425C1.56819 7.74768 1.25203 7.74792 1.05696 7.94299L0.353592 8.64636C0.158279 8.84155 0.158279 9.1582 0.353592 9.35339Z" />
</svg>
