<svg aria-label="sort" viewBox="0 0 24 24" xmlns="http://www.w3.org/2000/svg">
<path d="M7.35352 9.64648L11.6464 5.35364C11.8417 5.15833 12.1582 5.15833 12.3535 5.35364L16.6464 9.64648C16.8417 9.8418 16.8417 10.1583 16.6464 10.3536L15.943 11.057C15.7479 11.2521 15.4318 11.2523 15.2363 11.0575L11.9999 7.83008L8.76343 11.0575C8.56812 11.2523 8.25195 11.2521 8.05688 11.057L7.35352 10.3536C7.1582 10.1583 7.1582 9.8418 7.35352 9.64648Z" />
<path d="M7.35352 14.3535L11.6464 18.6465C11.8417 18.8417 12.1582 18.8417 12.3535 18.6465L16.6464 14.3535C16.8417 14.1583 16.8417 13.8417 16.6464 13.6465L15.943 12.9431C15.7479 12.748 15.4318 12.7478 15.2363 12.9426L11.9999 16.17L8.76343 12.9426C8.56812 12.7478 8.25195 12.748 8.05688 12.9431L7.35352 13.6465C7.1582 13.8417 7.1582 14.1583 7.35352 14.3535Z" />
</svg>
