<svg aria-label="star" viewBox="0 0 24 24" xmlns="http://www.w3.org/2000/svg">
<path fill-rule="evenodd" clip-rule="evenodd" d="M2.25295 9.90521L7.71584 13.8522L5.49025 20.529C5.43935 20.6816 5.46498 20.8493 5.55922 20.9797C5.72084 21.2035 6.03334 21.2541 6.25722 21.0925L12.0021 16.946L17.7422 21.0916C17.8727 21.1858 18.0404 21.2115 18.1931 21.1607C18.4551 21.0733 18.5967 20.7902 18.5093 20.5281L16.284 13.8522L21.747 9.90521C21.8771 9.81121 21.9541 9.66046 21.9541 9.49993C21.9541 9.22381 21.7302 8.99993 21.4541 8.99993H14.6724L12.4744 2.42022C12.4246 2.27117 12.3075 2.15411 12.1585 2.10443C11.8965 2.01702 11.6133 2.1585 11.5259 2.42034L9.32985 8.99993H2.54567C2.38515 8.99993 2.23439 9.07708 2.1404 9.20721C1.97866 9.43096 2.02907 9.74359 2.25295 9.90521ZM8.66567 17.0108L9.95949 13.1293L6.87392 10.9H10.6987L12.0008 6.99908L13.3039 10.9H17.1259L14.0402 13.1293L15.3331 17.008L12.0023 14.6025L8.66567 17.0108Z" />
</svg>
