<svg aria-label="filled star" viewBox="0 0 24 24" xmlns="http://www.w3.org/2000/svg">
<path d="M7.7158 13.8523L2.25287 9.90529C2.02904 9.74357 1.97869 9.43102 2.14041 9.20718C2.23441 9.07707 2.38517 9 2.54569 9H9.32989L11.5258 2.42043C11.6132 2.15849 11.8965 2.01701 12.1584 2.10444C12.3075 2.1542 12.4245 2.2712 12.4743 2.4203L14.6723 9H21.4541C21.7302 9 21.9541 9.22386 21.9541 9.5C21.9541 9.66052 21.877 9.81128 21.7469 9.90529L16.284 13.8523L18.5093 20.5282C18.5966 20.7902 18.455 21.0734 18.1931 21.1607C18.0404 21.2116 17.8726 21.1859 17.7422 21.0917L12.002 16.946L6.25721 21.0925C6.03329 21.2541 5.72077 21.2036 5.55915 20.9797C5.46502 20.8493 5.43937 20.6815 5.49024 20.529L7.7158 13.8523Z" />
</svg>
