<svg aria-label="star" viewBox="0 0 20 20" xmlns="http://www.w3.org/2000/svg">
<path fill-rule="evenodd" clip-rule="evenodd" d="M0.25307 7.90518L5.71596 11.8522L3.49037 18.529C3.43947 18.6815 3.46511 18.8493 3.55934 18.9796C3.72097 19.2035 4.03347 19.2541 4.25734 19.0924L10.0022 14.9459L15.7423 19.0916C15.8728 19.1858 16.0405 19.2115 16.1933 19.1607C16.4552 19.0733 16.5968 18.7902 16.5094 18.5281L14.2841 11.8522L19.7471 7.90518C19.8772 7.81118 19.9542 7.66043 19.9542 7.4999C19.9542 7.22378 19.7304 6.9999 19.4542 6.9999H12.6725L10.4745 0.420192C10.4247 0.271144 10.3076 0.154079 10.1586 0.104396C9.89662 0.0169938 9.61342 0.158473 9.52602 0.420314L7.32997 6.9999H0.545794C0.385272 6.9999 0.234515 7.07705 0.140521 7.20718C-0.0212221 7.43093 0.0291929 7.74356 0.25307 7.90518ZM6.66579 15.0108L7.95961 11.1293L4.87404 8.89993H8.69887L10.0009 4.99905L11.304 8.89993H15.126L12.0403 11.1293L13.3333 15.008L10.0025 12.6024L6.66579 15.0108Z" />
</svg>
