<svg aria-label="filled star" viewBox="0 0 20 20" xmlns="http://www.w3.org/2000/svg">
<path d="M5.71592 11.8523L0.252992 7.90526C0.0291595 7.74354 -0.0211926 7.43099 0.140528 7.20715C0.234534 7.07704 0.385294 6.99997 0.545813 6.99997H7.33001L9.52595 0.420396C9.61337 0.158457 9.89658 0.0169835 10.1585 0.104406C10.3076 0.154172 10.4247 0.271167 10.4745 0.420266L12.6725 6.99997H19.4542C19.7304 6.99997 19.9542 7.22383 19.9542 7.49997C19.9542 7.66049 19.8771 7.81125 19.747 7.90526L14.2841 11.8523L16.5094 18.5282C16.5967 18.7902 16.4552 19.0733 16.1932 19.1607C16.0406 19.2115 15.8728 19.1859 15.7423 19.0917L10.0022 14.946L4.25733 19.0925C4.03342 19.2541 3.72089 19.2036 3.55928 18.9797C3.46514 18.8493 3.4395 18.6815 3.49036 18.5289L5.71592 11.8523Z" />
</svg>
