<svg aria-label="thumbs up" viewBox="0 0 21 22" xmlns="http://www.w3.org/2000/svg">
<path fill-rule="evenodd" clip-rule="evenodd" d="M7.4 8.5C7.11064 8.57234 6.61195 8.69701 5.97965 8.7983C5.88634 8.3427 5.48319 8 5 8H1C0.447715 8 0 8.44772 0 9V20C0 20.5523 0.447715 21 1 21H5C5.41917 21 5.77811 20.7421 5.92678 20.3763C6.44711 20.5382 6.73819 20.6382 6.8 20.7L7.1 20.8C8.7 21.4 10.5 22 13 22H17.2C18.8 22 20 20.8 20 19.2V18.9C20.3 18.6 21 17.9 21 16.7C21 16 20.9 15.6 20.7 15.2C20.7104 15.1689 20.7218 15.1357 20.734 15.1003C20.8393 14.7943 21 14.3273 21 13.7C21 13.0727 20.8394 12.6061 20.7341 12.3C20.7219 12.2646 20.7104 12.2311 20.7 12.2C20.7117 12.165 20.7247 12.1274 20.7386 12.0872C20.8439 11.7821 21 11.3301 21 10.8C21 9.3 19.7 8 18.2 8H16.1653C15.8161 8 15.5687 7.64838 15.6415 7.30695C15.7896 6.61191 15.8438 5.78303 15.8438 4.9C15.8438 3.5 15.4619 2.75458 14.7969 2.01562C13.9985 1.12854 13.0312 0.96875 12.4531 0.96875C11.0312 0.96875 10.0781 1.09375 10.0781 2.51562C10.0781 2.59031 10.0785 2.67164 10.0789 2.75882C10.0821 3.48872 10.087 4.62803 9.9 5.7C9.7 6.6 9.37109 7.27734 8.875 7.75C8.61396 7.99871 8.1 8.3 7.4 8.5ZM17.2 20C17.7 20 18 19.7 18 19.2V18.8C18 18.0904 18.2979 17.7979 18.5686 17.5323C18.7937 17.3112 19 17.1087 19 16.7C19 16.2045 18.8788 15.9818 18.7698 15.7816C18.6808 15.6182 18.6 15.4697 18.6 15.2C18.6 14.9215 18.6862 14.7508 18.7785 14.5677C18.8851 14.3564 19 14.1287 19 13.7C19 13.2713 18.8851 13.0436 18.7785 12.8323C18.6862 12.6492 18.6 12.4785 18.6 12.2C18.6 11.8697 18.7212 11.6 18.8302 11.3575C18.9192 11.1596 19 10.9798 19 10.8C19 10.4 18.6 10 18.2 10H16C15.1562 10 14.5115 9.55986 14.1562 9.0625C13.801 8.56514 13.6484 8 13.7031 7.20312C13.7103 7.09849 13.7229 6.98218 13.7378 6.84551C13.7813 6.44489 13.8438 5.86931 13.8438 4.9C13.8438 4.03339 13.5813 2.97656 12.2812 2.97656C12.1328 2.97656 12 3.03125 12 3.2C12 4.1 12 5.1 11.8 6C11.6 7.1 11.2 8.2 10.2 9.2C9.6 9.8 8.7 10.2 7.9 10.5C7.44965 10.6501 6.66126 10.8002 6 10.9081V18.3L7.5 18.8C7.55 18.8 7.6 18.825 7.65 18.85C7.7 18.875 7.75 18.9 7.8 18.9C9.3 19.5 10.7 20 13 20H17.2ZM4 10H2V19H4V10Z" />
</svg>
