<svg aria-label="filled thumbs down" viewBox="0 0 21 21" xmlns="http://www.w3.org/2000/svg">
<path fill-rule="evenodd" clip-rule="evenodd" d="M15.0204 13.2017C14.3881 13.303 13.8894 13.4277 13.6 13.5C12.3121 13.868 10.8401 14.9238 10.6 16.3C10.413 17.372 10.4168 18.5113 10.42 19.2412C10.4203 19.3001 10.4202 19.3563 10.4201 19.4096C10.42 19.4352 10.42 19.4602 10.42 19.4844C10.42 20.9062 10 21 9 21C8.42188 21 7.49837 20.8715 6.7 19.9844C6.03494 19.2454 5.66 18.5 5.66 17.1C5.66 16.217 5.71186 15.3881 5.86 14.6931C5.93277 14.3516 5.6791 14 5.33 14H2.8C1.3 14 0 12.7 0 11.2C0 10.6699 0.156109 10.2179 0.261448 9.91285C0.275339 9.87262 0.288347 9.83495 0.299999 9.8C0.289639 9.76892 0.278097 9.73538 0.265924 9.7C0.160595 9.39393 0 8.92726 0 8.3C0 7.67274 0.160704 7.20575 0.266033 6.89968C0.278206 6.8643 0.289639 6.83108 0.299999 6.8C0.0999985 6.4 0 6 0 5.3C0 4.1 0.700001 3.4 1 3.1V2.8C1 1.2 2.2 0 3.8 0H8C10.7 0 12.3 0.6 13.9 1.2L14.2 1.3C14.2618 1.36181 14.5529 1.46184 15.0732 1.62369C15.2219 1.25791 15.5808 0.999996 16 0.999996H20C20.5523 0.999996 21 1.44771 21 2V13C21 13.5523 20.5523 14 20 14H16C15.5168 14 15.1137 13.6573 15.0204 13.2017ZM19 12H17V3H19V12Z" />
</svg>
