<svg aria-label="thumbs down" viewBox="0 0 21 22" xmlns="http://www.w3.org/2000/svg">
<path fill-rule="evenodd" clip-rule="evenodd" d="M13.6 13.5C13.8894 13.4277 14.3881 13.303 15.0204 13.2017C15.1137 13.6573 15.5168 14 16 14H20C20.5523 14 21 13.5523 21 13V2C21 1.44771 20.5523 0.999996 20 0.999996H16C15.5808 0.999996 15.2219 1.25791 15.0732 1.62369C14.5529 1.46184 14.2618 1.36181 14.2 1.3L13.9 1.2C12.3 0.6 10.5 0 8 0H3.8C2.2 0 1 1.2 1 2.8V3.1C0.700001 3.4 0 4.1 0 5.3C0 6 0.0999985 6.4 0.299999 6.8C0.289639 6.83108 0.278206 6.8643 0.266033 6.89968C0.160704 7.20575 0 7.67274 0 8.3C0 8.92726 0.160595 9.39393 0.265924 9.7C0.278097 9.73538 0.289639 9.76892 0.299999 9.8C0.288347 9.83495 0.275339 9.87262 0.261448 9.91285C0.156109 10.2179 0 10.6699 0 11.2C0 12.7 1.3 14 2.8 14H4.83475C5.18385 14 5.43132 14.3516 5.35854 14.6931C5.2104 15.3881 5.15625 16.217 5.15625 17.1C5.15625 18.5 5.53807 19.2454 6.20312 19.9844C7.0015 20.8715 7.96875 21.0312 8.54688 21.0312C9.96875 21.0312 10.9219 20.9062 10.9219 19.4844C10.9219 19.4097 10.9215 19.3284 10.9211 19.2412C10.9179 18.5113 10.913 17.372 11.1 16.3C11.3 15.4 11.6289 14.7227 12.125 14.25C12.386 14.0013 12.9 13.7 13.6 13.5ZM3.8 2C3.3 2 3 2.3 3 2.8V3.2C3 3.90959 2.70206 4.20206 2.43144 4.46773C2.20626 4.68877 2 4.89125 2 5.3C2 5.79546 2.12122 6.01816 2.2302 6.21837C2.31918 6.38184 2.4 6.53031 2.4 6.8C2.4 7.07846 2.31384 7.24923 2.2215 7.43225C2.11487 7.64359 2 7.87128 2 8.3C2 8.72872 2.11487 8.95641 2.2215 9.16775C2.31384 9.35077 2.4 9.52154 2.4 9.8C2.4 10.1303 2.27878 10.4 2.1698 10.6425C2.08082 10.8404 2 11.0202 2 11.2C2 11.6 2.4 12 2.8 12H5C5.84375 12 6.48849 12.4401 6.84375 12.9375C7.19901 13.4349 7.35156 14 7.29688 14.7969C7.28969 14.9015 7.27707 15.0178 7.26223 15.1545C7.21874 15.5551 7.15625 16.1307 7.15625 17.1C7.15625 17.9666 7.41875 19.0234 8.71875 19.0234C8.86719 19.0234 9 18.9688 9 18.8C9 17.9 9 16.9 9.2 16C9.4 14.9 9.8 13.8 10.8 12.8C11.4 12.2 12.3 11.8 13.1 11.5C13.5504 11.3499 14.3387 11.1998 15 11.0919V3.7L13.5 3.2C13.45 3.2 13.4 3.175 13.35 3.15C13.3 3.125 13.25 3.1 13.2 3.1C11.7 2.5 10.3 2 8 2H3.8ZM17 12H19V3H17V12Z" />
</svg>
