<svg aria-label="filled thumbs up" viewBox="0 0 21 21" xmlns="http://www.w3.org/2000/svg">
<path fill-rule="evenodd" clip-rule="evenodd" d="M5.97965 7.7983C6.61195 7.69701 7.11064 7.57234 7.4 7.5C8.68786 7.13204 10.1599 6.07616 10.4 4.7C10.587 3.62803 10.5832 2.48872 10.58 1.75882C10.5797 1.69992 10.5798 1.64368 10.5799 1.59037C10.58 1.56477 10.58 1.53985 10.58 1.51562C10.58 0.09375 11 0 12 0C12.5781 0 13.5016 0.128543 14.3 1.01562C14.9651 1.75458 15.34 2.5 15.34 3.9C15.34 4.78303 15.2881 5.61191 15.14 6.30695C15.0672 6.64838 15.3209 7 15.67 7H18.2C19.7 7 21 8.3 21 9.8C21 10.3301 20.8439 10.7821 20.7386 11.0872C20.7247 11.1274 20.7117 11.165 20.7 11.2C20.7104 11.2311 20.7219 11.2646 20.7341 11.3C20.8394 11.6061 21 12.0727 21 12.7C21 13.3273 20.8393 13.7943 20.734 14.1003C20.7218 14.1357 20.7104 14.1689 20.7 14.2C20.9 14.6 21 15 21 15.7C21 16.9 20.3 17.6 20 17.9V18.2C20 19.8 18.8 21 17.2 21H13C10.3 21 8.7 20.4 7.1 19.8L6.8 19.7C6.73819 19.6382 6.44711 19.5382 5.92678 19.3763C5.77811 19.7421 5.41917 20 5 20H1C0.447715 20 0 19.5523 0 19V8C0 7.44772 0.447715 7 1 7H5C5.48319 7 5.88634 7.3427 5.97965 7.7983ZM2 9H4V18H2V9Z" />
</svg>
