<svg aria-label="X in filled circle" viewBox="0 0 20 20" xmlns="http://www.w3.org/2000/svg">
<path fill-rule="evenodd" clip-rule="evenodd" d="M0 10C0 4.47998 4.47998 0 10 0C15.52 0 20 4.47998 20 10C20 15.52 15.52 20 10 20C4.47998 20 0 15.52 0 10ZM13.889 7.52515L11.4142 10L13.889 12.4749C14.0844 12.6702 14.0844 12.9867 13.889 13.182L13.182 13.889C12.9867 14.0844 12.6702 14.0844 12.4749 13.889L10 11.4142L7.52515 13.889C7.32983 14.0844 7.01331 14.0844 6.81799 13.889L6.11096 13.182C5.91565 12.9867 5.91565 12.6702 6.11096 12.4749L8.58582 10L6.11096 7.52515C5.91565 7.32983 5.91565 7.01331 6.11096 6.81799L6.81799 6.11096C7.01331 5.91565 7.32983 5.91565 7.52515 6.11096L10 8.58582L12.4749 6.11096C12.6702 5.91565 12.9867 5.91565 13.182 6.11096L13.889 6.81799C14.0844 7.01331 14.0844 7.32983 13.889 7.52515Z" />
</svg>
