<svg fill="none" xmlns="http://www.w3.org/2000/svg" viewBox="0 0 64 64">
  <path fill-rule="evenodd" clip-rule="evenodd" d="M24 23.05 17 19v26l7-4.05v7.8L52.715 32 24 15.25v7.8Zm0 3.465-4-2.314V39.8l4-2.314v-10.97Zm3 9.234v-7.498L33.481 32 27 35.75Zm0 3.466L39.472 32 27 24.785v-4.312L46.76 32 27 43.527v-4.312Z" fill="#ffffff"/>
  <path fill-rule="evenodd" clip-rule="evenodd" d="M32 64c17.673 0 32-14.327 32-32C64 14.327 49.673 0 32 0 14.327 0 0 14.327 0 32c0 17.673 14.327 32 32 32Zm0-3c16.016 0 29-12.984 29-29S48.016 3 32 3 3 15.984 3 32s12.984 29 29 29Z" fill="#ffffff"/>
</svg>